<?xml version="1.0" encoding="UTF-8" standalone="no"?>
<!-- Created with Inkscape (http://www.inkscape.org/) -->

<svg
   width="210mm"
   height="297mm"
   viewBox="0 0 210 297"
   version="1.1"
   id="svg4468"
   inkscape:version="1.1.1 (3bf5ae0d25, 2021-09-20)"
   sodipodi:docname="ballons.svg"
   xmlns:inkscape="http://www.inkscape.org/namespaces/inkscape"
   xmlns:sodipodi="http://sodipodi.sourceforge.net/DTD/sodipodi-0.dtd"
   xmlns="http://www.w3.org/2000/svg"
   xmlns:svg="http://www.w3.org/2000/svg">
  <sodipodi:namedview
     id="namedview4470"
     pagecolor="#ffffff"
     bordercolor="#666666"
     borderopacity="1.0"
     inkscape:pageshadow="2"
     inkscape:pageopacity="0.0"
     inkscape:pagecheckerboard="0"
     inkscape:document-units="mm"
     showgrid="false"
     inkscape:zoom="0.3884119"
     inkscape:cx="397.7736"
     inkscape:cy="562.54714"
     inkscape:window-width="1366"
     inkscape:window-height="705"
     inkscape:window-x="-8"
     inkscape:window-y="-8"
     inkscape:window-maximized="1"
     inkscape:current-layer="layer1" />
  <defs
     id="defs4465" />
  <g
     inkscape:label="Layer 1"
     inkscape:groupmode="layer"
     id="layer1">
    <path
       d="m 126.13202,53.706306 c -0.18946,-4.12659 -3.64194,-7.33414 -6.5843,-7.21125 -2.94238,0.12301 -6.08717,3.60575 -5.89751,7.73237 0.17558,3.81966 3.2776,6.84426 5.93565,7.1816 a 0.30087123,0.28677201 0 0 0 -0.0653,0.0888 l -0.26456,0.59854 a 0.30472757,0.29044763 0 0 0 0.30042,0.40223 l 1.44857,-0.0901 a 0.3047364,0.29045605 0 0 0 0.24358,-0.4362 l -0.34403,-0.56075 a 0.30170351,0.28756524 0 0 0 -0.0457,-0.053 c 2.62565,-0.54713 5.44704,-3.82459 5.27112,-7.65257 z"
       fill="#73ff63"
       id="path5014-4"
       style="stroke-width:0.17215" />
    <path
       d="m 55.28798,108.20172 c -0.18946,-4.12659 -3.64194,-7.33414 -6.5843,-7.21125 -2.94238,0.12301 -6.08717,3.60575 -5.89751,7.73237 0.17558,3.81966 3.2776,6.84426 5.93565,7.1816 a 0.30087123,0.28677201 0 0 0 -0.0653,0.0888 l -0.26456,0.59854 a 0.30472757,0.29044763 0 0 0 0.30042,0.40223 l 1.44857,-0.0901 a 0.3047364,0.29045605 0 0 0 0.24358,-0.4362 l -0.34403,-0.56075 a 0.30170351,0.28756524 0 0 0 -0.0457,-0.053 c 2.62565,-0.54713 5.44704,-3.82459 5.27112,-7.65257 z"
       fill="#73ff63"
       id="path5014-4-0"
       style="stroke-width:0.17215" />
    <path
       d="m 186.75816,106.83933 c -0.18946,-4.12659 -3.64194,-7.334137 -6.5843,-7.211247 -2.94238,0.12301 -6.08717,3.605747 -5.89751,7.732367 0.17558,3.81966 3.2776,6.84426 5.93565,7.1816 a 0.30087123,0.28677201 0 0 0 -0.0653,0.0888 l -0.26456,0.59854 a 0.30472757,0.29044763 0 0 0 0.30042,0.40223 l 1.44857,-0.0901 a 0.3047364,0.29045605 0 0 0 0.24358,-0.4362 l -0.34403,-0.56075 a 0.30170351,0.28756524 0 0 0 -0.0457,-0.053 c 2.62565,-0.54713 5.44704,-3.82459 5.27112,-7.65257 z"
       fill="#73ff63"
       id="path5014-4-2"
       style="stroke-width:0.17215" />
    <path
       d="m 120.00128,168.82787 c -0.18946,-4.12659 -3.64194,-7.33414 -6.5843,-7.21125 -2.94238,0.12301 -6.08717,3.60575 -5.89751,7.73237 0.17558,3.81966 3.2776,6.84426 5.93565,7.1816 a 0.30087123,0.28677201 0 0 0 -0.0653,0.0888 l -0.26456,0.59854 a 0.30472757,0.29044763 0 0 0 0.30042,0.40223 l 1.44857,-0.0901 a 0.3047364,0.29045605 0 0 0 0.24358,-0.4362 l -0.34403,-0.56075 a 0.30170351,0.28756524 0 0 0 -0.0457,-0.053 c 2.62565,-0.54713 5.44704,-3.82459 5.27112,-7.65257 z"
       fill="#73ff63"
       id="path5014-4-3"
       style="stroke-width:0.17215" />
    <path
       d="m 111.14578,90.490709 c -0.18946,-4.12659 -3.64194,-7.33414 -6.5843,-7.21125 -2.94238,0.12301 -6.087172,3.60575 -5.897512,7.73237 0.17558,3.81966 3.277602,6.84426 5.935652,7.1816 a 0.30087123,0.28677201 0 0 0 -0.0653,0.0888 l -0.26456,0.59854 a 0.30472757,0.29044763 0 0 0 0.30042,0.40223 l 1.44857,-0.0901 a 0.3047364,0.29045605 0 0 0 0.24358,-0.4362 l -0.34403,-0.56075 a 0.30170351,0.28756524 0 0 0 -0.0457,-0.053 c 2.62565,-0.54713 5.44704,-3.82459 5.27112,-7.65257 z"
       fill="#73ff63"
       id="path5014-4-5"
       style="stroke-width:0.17215" />
    <path
       d="m 162.91642,123.86915 c -0.18946,-4.12659 -3.64194,-7.33414 -6.5843,-7.21125 -2.94238,0.12301 -6.08717,3.60575 -5.89751,7.73237 0.17558,3.81966 3.2776,6.84426 5.93565,7.1816 a 0.30087123,0.28677201 0 0 0 -0.0653,0.0888 l -0.26456,0.59854 a 0.30472757,0.29044763 0 0 0 0.30042,0.40223 l 1.44857,-0.0901 a 0.3047364,0.29045605 0 0 0 0.24358,-0.4362 l -0.34403,-0.56075 a 0.30170351,0.28756524 0 0 0 -0.0457,-0.053 c 2.62565,-0.54713 5.44704,-3.82459 5.27112,-7.65257 z"
       fill="#73ff63"
       id="path5014-4-4"
       style="stroke-width:0.17215" />
    <path
       d="m 68.911833,192.66961 c -0.18946,-4.12659 -3.64194,-7.33414 -6.5843,-7.21125 -2.94238,0.12301 -6.08717,3.60575 -5.89751,7.73237 0.17558,3.81966 3.2776,6.84426 5.93565,7.1816 a 0.30087123,0.28677201 0 0 0 -0.0653,0.0888 l -0.26456,0.59854 a 0.30472757,0.29044763 0 0 0 0.30042,0.40223 l 1.44857,-0.0901 a 0.3047364,0.29045605 0 0 0 0.24358,-0.4362 l -0.34403,-0.56075 a 0.30170351,0.28756524 0 0 0 -0.0457,-0.053 c 2.62565,-0.54713 5.44704,-3.82459 5.27112,-7.65257 z"
       fill="#73ff63"
       id="path5014-4-1"
       style="stroke-width:0.17215" />
    <path
       d="m 188.80174,187.90126 c -0.18946,-4.12659 -3.64194,-7.33414 -6.5843,-7.21125 -2.94238,0.12301 -6.08717,3.60575 -5.89751,7.73237 0.17558,3.81966 3.2776,6.84426 5.93565,7.1816 a 0.30087123,0.28677201 0 0 0 -0.0653,0.0888 l -0.26456,0.59854 a 0.30472757,0.29044763 0 0 0 0.30042,0.40223 l 1.44857,-0.0901 a 0.3047364,0.29045605 0 0 0 0.24358,-0.4362 l -0.34403,-0.56075 a 0.30170351,0.28756524 0 0 0 -0.0457,-0.053 c 2.62565,-0.54713 5.44704,-3.82459 5.27112,-7.65257 z"
       fill="#73ff63"
       id="path5014-4-11"
       style="stroke-width:0.17215" />
    <path
       d="m 64.824678,47.575572 c -0.18946,-4.12659 -3.64194,-7.33414 -6.5843,-7.21125 -2.94238,0.12301 -6.08717,3.60575 -5.89751,7.73237 0.17558,3.81966 3.2776,6.84426 5.93565,7.1816 a 0.30087123,0.28677201 0 0 0 -0.0653,0.0888 l -0.26456,0.59854 a 0.30472757,0.29044763 0 0 0 0.30042,0.40223 l 1.44857,-0.0901 a 0.3047364,0.29045605 0 0 0 0.24358,-0.4362 l -0.34403,-0.56075 a 0.30170351,0.28756524 0 0 0 -0.0457,-0.053 c 2.62565,-0.54713 5.44704,-3.82459 5.27112,-7.65257 z"
       fill="#73ff63"
       id="path5014-4-8"
       style="stroke-width:0.17215" />
    <path
       d="m 90.028806,122.50676 c -0.18946,-4.12659 -3.64194,-7.33414 -6.5843,-7.21125 -2.94238,0.12301 -6.08717,3.60575 -5.89751,7.73237 0.17558,3.81966 3.2776,6.84426 5.93565,7.1816 a 0.30087123,0.28677201 0 0 0 -0.0653,0.0888 l -0.26456,0.59854 a 0.30472757,0.29044763 0 0 0 0.30042,0.40223 l 1.44857,-0.0901 a 0.3047364,0.29045605 0 0 0 0.24358,-0.4362 l -0.34403,-0.56075 a 0.30170351,0.28756524 0 0 0 -0.0457,-0.053 c 2.62565,-0.54713 5.44704,-3.82459 5.27112,-7.65257 z"
       fill="#73ff63"
       id="path5014-4-9"
       style="stroke-width:0.17215" />
    <path
       d="m 153.37972,200.84392 c -0.18946,-4.12659 -3.64194,-7.33414 -6.5843,-7.21125 -2.94238,0.12301 -6.08717,3.60575 -5.89751,7.73237 0.17558,3.81966 3.2776,6.84426 5.93565,7.1816 a 0.30087123,0.28677201 0 0 0 -0.0653,0.0888 l -0.26456,0.59854 a 0.30472757,0.29044763 0 0 0 0.30042,0.40223 l 1.44857,-0.0901 a 0.3047364,0.29045605 0 0 0 0.24358,-0.4362 l -0.34403,-0.56075 a 0.30170351,0.28756524 0 0 0 -0.0457,-0.053 c 2.62565,-0.54713 5.44704,-3.82459 5.27112,-7.65257 z"
       fill="#73ff63"
       id="path5014-4-14"
       style="stroke-width:0.17215" />
    <path
       d="m 92.753577,232.85998 c -0.18946,-4.12659 -3.64194,-7.33414 -6.5843,-7.21125 -2.94238,0.12301 -6.08717,3.60575 -5.89751,7.73237 0.17558,3.81966 3.2776,6.84426 5.93565,7.1816 a 0.30087123,0.28677201 0 0 0 -0.0653,0.0888 l -0.26456,0.59854 a 0.30472757,0.29044763 0 0 0 0.30042,0.40223 l 1.44857,-0.0901 a 0.3047364,0.29045605 0 0 0 0.24358,-0.4362 l -0.34403,-0.56075 a 0.30170351,0.28756524 0 0 0 -0.0457,-0.053 c 2.62565,-0.54713 5.44704,-3.82459 5.27112,-7.65257 z"
       fill="#73ff63"
       id="path5014-4-44"
       style="stroke-width:0.17215" />
    <path
       d="m 168.36596,239.67191 c -0.18946,-4.12659 -3.64194,-7.33414 -6.5843,-7.21125 -2.94238,0.12301 -6.08717,3.60575 -5.89751,7.73237 0.17558,3.81966 3.2776,6.84426 5.93565,7.1816 a 0.30087123,0.28677201 0 0 0 -0.0653,0.0888 l -0.26456,0.59854 a 0.30472757,0.29044763 0 0 0 0.30042,0.40223 l 1.44857,-0.0901 a 0.3047364,0.29045605 0 0 0 0.24358,-0.4362 l -0.34403,-0.56075 a 0.30170351,0.28756524 0 0 0 -0.0457,-0.053 c 2.62565,-0.54713 5.44704,-3.82459 5.27112,-7.65257 z"
       fill="#73ff63"
       id="path5014-4-45"
       style="stroke-width:0.17215" />
    <path
       d="m 41.664127,229.45402 c -0.18946,-4.12659 -3.64194,-7.33414 -6.5843,-7.21125 -2.94238,0.12301 -6.08717,3.60575 -5.89751,7.73237 0.17558,3.81966 3.2776,6.84426 5.93565,7.1816 a 0.30087123,0.28677201 0 0 0 -0.0653,0.0888 l -0.26456,0.59854 a 0.30472757,0.29044763 0 0 0 0.30042,0.40223 l 1.44857,-0.0901 a 0.3047364,0.29045605 0 0 0 0.24358,-0.4362 l -0.34403,-0.56075 a 0.30170351,0.28756524 0 0 0 -0.0457,-0.053 c 2.62565,-0.54713 5.44704,-3.82459 5.27112,-7.65257 z"
       fill="#73ff63"
       id="path5014-4-46"
       style="stroke-width:0.17215" />
    <path
       d="m 30.083852,121.14438 c -0.18946,-4.12659 -3.64194,-7.33414 -6.5843,-7.21125 -2.94238,0.12301 -6.08717,3.60575 -5.89751,7.73237 0.17558,3.81966 3.2776,6.84426 5.93565,7.1816 a 0.30087123,0.28677201 0 0 0 -0.0653,0.0888 l -0.26456,0.59854 a 0.30472757,0.29044763 0 0 0 0.30042,0.40223 l 1.44857,-0.0901 a 0.3047364,0.29045605 0 0 0 0.24358,-0.4362 l -0.34403,-0.56075 a 0.30170351,0.28756524 0 0 0 -0.0457,-0.053 c 2.62565,-0.54713 5.44704,-3.82459 5.27112,-7.65257 z"
       fill="#73ff63"
       id="path5014-4-82"
       style="stroke-width:0.17215" />
    <path
       d="m 23.95312,12.153553 c -0.18946,-4.12659 -3.64194,-7.33414 -6.5843,-7.21125 -2.94238,0.12301 -6.08717,3.60575 -5.89751,7.73237 0.17558,3.81966 3.2776,6.84426 5.93565,7.1816 a 0.30087123,0.28677201 0 0 0 -0.0653,0.0888 l -0.26456,0.59854 a 0.30472757,0.29044763 0 0 0 0.30042,0.40223 l 1.44857,-0.0901 a 0.3047364,0.29045605 0 0 0 0.24358,-0.4362 l -0.34403,-0.56075 a 0.30170351,0.28756524 0 0 0 -0.0457,-0.053 c 2.62565,-0.54713 5.44704,-3.82459 5.27112,-7.65257 z"
       fill="#73ff63"
       id="path5014-4-85"
       style="stroke-width:0.17215" />
    <path
       d="m 115.91413,20.327865 c -0.18946,-4.12659 -3.64194,-7.33414 -6.5843,-7.21125 -2.94238,0.12301 -6.08717,3.60575 -5.89751,7.73237 0.17558,3.81966 3.2776,6.84426 5.93565,7.1816 a 0.30087123,0.28677201 0 0 0 -0.0653,0.0888 l -0.26456,0.59854 a 0.30472757,0.29044763 0 0 0 0.30042,0.40223 l 1.44857,-0.0901 a 0.3047364,0.29045605 0 0 0 0.24358,-0.4362 l -0.34403,-0.56075 a 0.30170351,0.28756524 0 0 0 -0.0457,-0.053 c 2.62565,-0.54713 5.44704,-3.82459 5.27112,-7.65257 z"
       fill="#73ff63"
       id="path5014-4-59"
       style="stroke-width:0.17215" />
    <path
       d="m 179.26504,16.921902 c -0.18946,-4.12659 -3.64194,-7.33414 -6.5843,-7.21125 -2.94238,0.12301 -6.08717,3.60575 -5.89751,7.73237 0.17559,3.81966 3.2776,6.84426 5.93565,7.1816 a 0.30087123,0.28677201 0 0 0 -0.0653,0.0888 l -0.26457,0.59854 a 0.30472757,0.29044763 0 0 0 0.30042,0.40223 l 1.44857,-0.0901 a 0.3047364,0.29045605 0 0 0 0.24358,-0.4362 l -0.34403,-0.56075 a 0.30170351,0.28756524 0 0 0 -0.0457,-0.053 c 2.62564,-0.54713 5.44703,-3.82459 5.27112,-7.65257 z"
       fill="#73ff63"
       id="path5014-4-21"
       style="stroke-width:0.17215" />
    <path
       d="m 206.51275,56.431076 c -0.18946,-4.12659 -3.64194,-7.33414 -6.5843,-7.21125 -2.94238,0.12301 -6.08717,3.60575 -5.89751,7.73237 0.17558,3.81966 3.2776,6.84426 5.93565,7.1816 a 0.30087123,0.28677201 0 0 0 -0.0653,0.0888 l -0.26456,0.59854 a 0.30472757,0.29044763 0 0 0 0.30042,0.40223 l 1.44857,-0.0901 a 0.3047364,0.29045605 0 0 0 0.24358,-0.4362 l -0.34403,-0.56075 a 0.30170351,0.28756524 0 0 0 -0.0457,-0.053 c 2.62565,-0.54713 5.44704,-3.82459 5.27112,-7.65257 z"
       fill="#73ff63"
       id="path5014-4-16"
       style="stroke-width:0.17215" />
    <path
       d="m 186.75816,269.64438 c -0.18946,-4.12659 -3.64194,-7.33414 -6.5843,-7.21125 -2.94238,0.12301 -6.08717,3.60575 -5.89751,7.73237 0.17558,3.81966 3.2776,6.84426 5.93565,7.1816 a 0.30087123,0.28677201 0 0 0 -0.0653,0.0888 l -0.26456,0.59854 a 0.30472757,0.29044763 0 0 0 0.30042,0.40223 l 1.44857,-0.0901 a 0.3047364,0.29045605 0 0 0 0.24358,-0.4362 l -0.34403,-0.56075 a 0.30170351,0.28756524 0 0 0 -0.0457,-0.053 c 2.62565,-0.54713 5.44704,-3.82459 5.27112,-7.65257 z"
       fill="#73ff63"
       id="path5014-4-05"
       style="stroke-width:0.17215" />
    <path
       d="m 93.434769,279.18108 c -0.18946,-4.12659 -3.64194,-7.33414 -6.5843,-7.21125 -2.94238,0.12301 -6.08717,3.60575 -5.89751,7.73237 0.17558,3.81966 3.2776,6.84426 5.93565,7.1816 a 0.30087123,0.28677201 0 0 0 -0.0653,0.0888 l -0.26456,0.59854 a 0.30472757,0.29044763 0 0 0 0.30042,0.40223 l 1.44857,-0.0901 a 0.3047364,0.29045605 0 0 0 0.24358,-0.4362 l -0.34403,-0.56075 a 0.30170351,0.28756524 0 0 0 -0.0457,-0.053 c 2.62565,-0.54713 5.44704,-3.82459 5.27112,-7.65257 z"
       fill="#73ff63"
       id="path5014-4-17"
       style="stroke-width:0.17215" />
    <path
       d="m 36.895778,275.09392 c -0.18946,-4.12659 -3.64194,-7.33414 -6.5843,-7.21125 -2.94238,0.12301 -6.08717,3.60575 -5.89751,7.73237 0.17558,3.81966 3.2776,6.84426 5.93565,7.1816 a 0.30087123,0.28677201 0 0 0 -0.0653,0.0888 l -0.26456,0.59854 a 0.30472757,0.29044763 0 0 0 0.30042,0.40223 l 1.44857,-0.0901 a 0.3047364,0.29045605 0 0 0 0.24358,-0.4362 l -0.34403,-0.56075 a 0.30170351,0.28756524 0 0 0 -0.0457,-0.053 c 2.62565,-0.54713 5.44704,-3.82459 5.27112,-7.65257 z"
       fill="#73ff63"
       id="path5014-4-6"
       style="stroke-width:0.17215" />
  </g>
</svg>
