<?xml version="1.0" encoding="UTF-8" standalone="no"?>
<!-- Created with Inkscape (http://www.inkscape.org/) -->

<svg
   width="210mm"
   height="297mm"
   viewBox="0 0 210 297"
   version="1.1"
   id="svg5581"
   inkscape:version="1.1.1 (3bf5ae0d25, 2021-09-20)"
   sodipodi:docname="drawing.svg"
   xmlns:inkscape="http://www.inkscape.org/namespaces/inkscape"
   xmlns:sodipodi="http://sodipodi.sourceforge.net/DTD/sodipodi-0.dtd"
   xmlns="http://www.w3.org/2000/svg"
   xmlns:svg="http://www.w3.org/2000/svg">
  <sodipodi:namedview
     id="namedview5583"
     pagecolor="#ffffff"
     bordercolor="#666666"
     borderopacity="1.0"
     inkscape:pageshadow="2"
     inkscape:pageopacity="0.0"
     inkscape:pagecheckerboard="0"
     inkscape:document-units="mm"
     showgrid="false"
     inkscape:zoom="0.58"
     inkscape:cx="307.75862"
     inkscape:cy="369.82759"
     inkscape:window-width="1366"
     inkscape:window-height="705"
     inkscape:window-x="-8"
     inkscape:window-y="-8"
     inkscape:window-maximized="1"
     inkscape:current-layer="layer1" />
  <defs
     id="defs5578" />
  <g
     inkscape:label="Layer 1"
     inkscape:groupmode="layer"
     id="layer1">
    <path
       d="m 133.90502,91.386291 c -0.18948,-4.12658 -3.64194,-7.3341 -6.58428,-7.21125 -2.94241,0.12301 -6.08716,3.6058 -5.89757,7.73238 0.17524,3.81965 3.27761,6.84425 5.93566,7.18166 a 0.30087123,0.28677201 0 0 0 -0.0653,0.0888 l -0.26457,0.59859 a 0.30472757,0.29044763 0 0 0 0.30076,0.402269 l 1.44854,-0.0901 a 0.3047364,0.29045605 0 0 0 0.24358,-0.436219 l -0.34402,-0.56072 a 0.30170351,0.28756524 0 0 0 -0.0457,-0.053 c 2.6257,-0.54714 5.44704,-3.82457 5.27113,-7.65254 z"
       fill="#73ff63"
       id="path5014"
       style="stroke-width:0.17215" />
    <path
       d="m 129.95319,87.309142 a 5.0134235,4.7784875 0 0 1 0.38469,6.57087 c -0.18776,0.21559 0.19081,0.45936 0.37783,0.24533 a 5.4818172,5.2249318 0 0 0 -0.41393,-7.09811 c -0.21009,-0.19299 -0.56035,0.0875 -0.34859,0.28188 z"
       fill="#ffffff"
       id="path5016"
       style="stroke-width:0.17215" />
    <path
       d="m 127.35883,99.089079 a 7.1915753,6.854569 0 0 1 -1.40915,6.084891 c -0.2057,0.23511 -0.42029,0.52555 -0.77539,0.51851 a 0.5959817,0.56805317 0 0 1 -0.58462,-0.43621 c -0.0687,-0.32716 0.18471,-0.63162 0.4808,-0.76736 0.33561,-0.15393 0.69296,-0.003 0.9239,0.24626 0.56436,0.61246 0.31935,1.48542 0.12647,2.18871 -0.43997,1.60263 -0.74881,3.31052 -0.29872,4.9444 0.41666,1.51173 1.57435,2.91009 3.20705,3.31207 0.28555,0.0707 0.38012,-0.35595 0.096,-0.42594 -1.61924,-0.39864 -2.6695,-1.90095 -2.95831,-3.40281 a 8.3891732,7.9960455 0 0 1 0.0271,-2.71781 c 0.0792,-0.46247 0.18506,-0.92015 0.30651,-1.37406 a 8.1286513,7.7477309 0 0 0 0.29061,-1.34446 c 0.0573,-0.74874 -0.26626,-1.61501 -1.07993,-1.87077 -0.75889,-0.23851 -1.66099,0.41204 -1.5848,1.18492 a 1.0729659,1.0226853 0 0 0 1.60511,0.75818 c 0.33493,-0.184 0.5978,-0.55269 0.82284,-0.84456 a 7.6491727,7.2907224 0 0 0 1.23831,-6.189801 c -0.0782,-0.27044 -0.51199,-0.13388 -0.43447,0.13574 z"
       fill="#cccccc"
       id="path5018-74"
       style="stroke-width:0.17215" />
    <path
       d="m 109.62068,31.595184 c -0.18944,-4.126597 -3.64189,-7.334108 -6.58426,-7.211286 -2.94234,0.123009 -6.087142,3.605816 -5.897484,7.732406 0.17557,3.81969 3.277544,6.84426 5.935594,7.18163 a 0.30087123,0.28677201 0 0 0 -0.0653,0.0888 l -0.26421,0.5986 a 0.30472757,0.29044763 0 0 0 0.30075,0.40224 l 1.44857,-0.0901 a 0.3047364,0.29045605 0 0 0 0.24358,-0.43619 l -0.34403,-0.56075 a 0.30170351,0.28756524 0 0 0 -0.0457,-0.053 c 2.62568,-0.54712 5.44708,-3.82459 5.27112,-7.65257 z"
       fill="#73ff63"
       id="path5014-0"
       style="stroke-width:0.17215" />
    <path
       d="m 105.66895,27.51805 a 5.0134235,4.7784875 0 0 1 0.38469,6.57086 c -0.18776,0.21559 0.19081,0.45934 0.37782,0.24533 a 5.4818172,5.2249318 0 0 0 -0.41392,-7.09814 c -0.21009,-0.193 -0.56036,0.0873 -0.34859,0.28189 z"
       fill="#ffffff"
       id="path5016-1"
       style="stroke-width:0.17215" />
    <path
       d="m 103.07458,39.297915 a 7.1915753,6.854569 0 0 1 -1.40911,6.084907 c -0.20569,0.23511 -0.42032,0.52555 -0.77543,0.5185 a 0.5959817,0.56805317 0 0 1 -0.5846,-0.43618 c -0.0687,-0.32716 0.18471,-0.63158 0.4808,-0.767335 0.3356,-0.153613 0.69297,-0.0031 0.92389,0.246265 0.56437,0.61244 0.31937,1.48534 0.12647,2.18874 -0.43996,1.60263 -0.74885,3.31046 -0.29839,4.94434 0.41666,1.51174 1.57428,2.91012 3.20708,3.3121 0.28552,0.0707 0.38009,-0.35597 0.096,-0.4259 -1.61931,-0.39868 -2.66951,-1.90104 -2.95831,-3.40291 a 8.3891732,7.9960455 0 0 1 0.0271,-2.71781 c 0.0792,-0.46244 0.18505,-0.92015 0.30651,-1.37403 a 8.1286513,7.7477309 0 0 0 0.2906,-1.34446 c 0.0565,-0.74868 -0.26624,-1.61503 -1.07997,-1.87077 -0.7589,-0.238535 -1.660993,0.412017 -1.584813,1.18486 a 1.0729659,1.0226853 0 0 0 1.605113,0.75824 c 0.33491,-0.184 0.59778,-0.55272 0.82289,-0.84459 a 7.6491727,7.2907224 0 0 0 1.23831,-6.189776 c -0.078,-0.270742 -0.51199,-0.133881 -0.43447,0.135747 z"
       fill="#cccccc"
       id="path5018-74-0"
       style="stroke-width:0.17215" />
    <path
       d="m 109.62068,31.595184 c -0.18944,-4.126597 -3.64189,-7.334108 -6.58426,-7.211286 -2.94234,0.123009 -6.087142,3.605816 -5.897484,7.732406 0.17557,3.81969 3.277544,6.84426 5.935594,7.18163 a 0.30087123,0.28677201 0 0 0 -0.0653,0.0888 l -0.26421,0.5986 a 0.30472757,0.29044763 0 0 0 0.30075,0.40224 l 1.44857,-0.0901 a 0.3047364,0.29045605 0 0 0 0.24358,-0.43619 l -0.34403,-0.56075 a 0.30170351,0.28756524 0 0 0 -0.0457,-0.053 c 2.62568,-0.54712 5.44708,-3.82459 5.27112,-7.65257 z"
       fill="#73ff63"
       id="path5014-3"
       style="stroke-width:0.17215" />
    <path
       d="m 105.66895,27.51805 a 5.0134235,4.7784875 0 0 1 0.38469,6.57086 c -0.18776,0.21559 0.19081,0.45934 0.37782,0.24533 a 5.4818172,5.2249318 0 0 0 -0.41392,-7.09814 c -0.21009,-0.193 -0.56036,0.0873 -0.34859,0.28189 z"
       fill="#ffffff"
       id="path5016-9"
       style="stroke-width:0.17215" />
    <path
       d="m 103.07458,39.297915 a 7.1915753,6.854569 0 0 1 -1.40911,6.084907 c -0.20569,0.23511 -0.42032,0.52555 -0.77543,0.5185 a 0.5959817,0.56805317 0 0 1 -0.5846,-0.43618 c -0.0687,-0.32716 0.18471,-0.63158 0.4808,-0.767335 0.3356,-0.153613 0.69297,-0.0031 0.92389,0.246265 0.56437,0.61244 0.31937,1.48534 0.12647,2.18874 -0.43996,1.60263 -0.74885,3.31046 -0.29839,4.94434 0.41666,1.51174 1.57428,2.91012 3.20708,3.3121 0.28552,0.0707 0.38009,-0.35597 0.096,-0.4259 -1.61931,-0.39868 -2.66951,-1.90104 -2.95831,-3.40291 a 8.3891732,7.9960455 0 0 1 0.0271,-2.71781 c 0.0792,-0.46244 0.18505,-0.92015 0.30651,-1.37403 a 8.1286513,7.7477309 0 0 0 0.2906,-1.34446 c 0.0565,-0.74868 -0.26624,-1.61503 -1.07997,-1.87077 -0.7589,-0.238535 -1.660993,0.412017 -1.584813,1.18486 a 1.0729659,1.0226853 0 0 0 1.605113,0.75824 c 0.33491,-0.184 0.59778,-0.55272 0.82289,-0.84459 a 7.6491727,7.2907224 0 0 0 1.23831,-6.189776 c -0.078,-0.270742 -0.51199,-0.133881 -0.43447,0.135747 z"
       fill="#cccccc"
       id="path5018-74-8"
       style="stroke-width:0.17215" />
    <path
       d="m 109.62068,31.595184 c -0.18944,-4.126597 -3.64189,-7.334108 -6.58426,-7.211286 -2.94234,0.123009 -6.087142,3.605816 -5.897484,7.732406 0.17557,3.81969 3.277544,6.84426 5.935594,7.18163 a 0.30087123,0.28677201 0 0 0 -0.0653,0.0888 l -0.26421,0.5986 a 0.30472757,0.29044763 0 0 0 0.30075,0.40224 l 1.44857,-0.0901 a 0.3047364,0.29045605 0 0 0 0.24358,-0.43619 l -0.34403,-0.56075 a 0.30170351,0.28756524 0 0 0 -0.0457,-0.053 c 2.62568,-0.54712 5.44708,-3.82459 5.27112,-7.65257 z"
       fill="#73ff63"
       id="path5014-03"
       style="stroke-width:0.17215" />
    <path
       d="m 105.66895,27.51805 a 5.0134235,4.7784875 0 0 1 0.38469,6.57086 c -0.18776,0.21559 0.19081,0.45934 0.37782,0.24533 a 5.4818172,5.2249318 0 0 0 -0.41392,-7.09814 c -0.21009,-0.193 -0.56036,0.0873 -0.34859,0.28189 z"
       fill="#ffffff"
       id="path5016-4"
       style="stroke-width:0.17215" />
    <path
       d="m 103.07458,39.297915 a 7.1915753,6.854569 0 0 1 -1.40911,6.084907 c -0.20569,0.23511 -0.42032,0.52555 -0.77543,0.5185 a 0.5959817,0.56805317 0 0 1 -0.5846,-0.43618 c -0.0687,-0.32716 0.18471,-0.63158 0.4808,-0.767335 0.3356,-0.153613 0.69297,-0.0031 0.92389,0.246265 0.56437,0.61244 0.31937,1.48534 0.12647,2.18874 -0.43996,1.60263 -0.74885,3.31046 -0.29839,4.94434 0.41666,1.51174 1.57428,2.91012 3.20708,3.3121 0.28552,0.0707 0.38009,-0.35597 0.096,-0.4259 -1.61931,-0.39868 -2.66951,-1.90104 -2.95831,-3.40291 a 8.3891732,7.9960455 0 0 1 0.0271,-2.71781 c 0.0792,-0.46244 0.18505,-0.92015 0.30651,-1.37403 a 8.1286513,7.7477309 0 0 0 0.2906,-1.34446 c 0.0565,-0.74868 -0.26624,-1.61503 -1.07997,-1.87077 -0.7589,-0.238535 -1.660993,0.412017 -1.584813,1.18486 a 1.0729659,1.0226853 0 0 0 1.605113,0.75824 c 0.33491,-0.184 0.59778,-0.55272 0.82289,-0.84459 a 7.6491727,7.2907224 0 0 0 1.23831,-6.189776 c -0.078,-0.270742 -0.51199,-0.133881 -0.43447,0.135747 z"
       fill="#cccccc"
       id="path5018-74-3"
       style="stroke-width:0.17215" />
    <path
       d="m 109.62068,31.595184 c -0.18944,-4.126597 -3.64189,-7.334108 -6.58426,-7.211286 -2.94234,0.123009 -6.087142,3.605816 -5.897484,7.732406 0.17557,3.81969 3.277544,6.84426 5.935594,7.18163 a 0.30087123,0.28677201 0 0 0 -0.0653,0.0888 l -0.26421,0.5986 a 0.30472757,0.29044763 0 0 0 0.30075,0.40224 l 1.44857,-0.0901 a 0.3047364,0.29045605 0 0 0 0.24358,-0.43619 l -0.34403,-0.56075 a 0.30170351,0.28756524 0 0 0 -0.0457,-0.053 c 2.62568,-0.54712 5.44708,-3.82459 5.27112,-7.65257 z"
       fill="#73ff63"
       id="path5014-38"
       style="stroke-width:0.17215" />
    <path
       d="m 105.66895,27.51805 a 5.0134235,4.7784875 0 0 1 0.38469,6.57086 c -0.18776,0.21559 0.19081,0.45934 0.37782,0.24533 a 5.4818172,5.2249318 0 0 0 -0.41392,-7.09814 c -0.21009,-0.193 -0.56036,0.0873 -0.34859,0.28189 z"
       fill="#ffffff"
       id="path5016-0"
       style="stroke-width:0.17215" />
    <path
       d="m 103.07458,39.297915 a 7.1915753,6.854569 0 0 1 -1.40911,6.084907 c -0.20569,0.23511 -0.42032,0.52555 -0.77543,0.5185 a 0.5959817,0.56805317 0 0 1 -0.5846,-0.43618 c -0.0687,-0.32716 0.18471,-0.63158 0.4808,-0.767335 0.3356,-0.153613 0.69297,-0.0031 0.92389,0.246265 0.56437,0.61244 0.31937,1.48534 0.12647,2.18874 -0.43996,1.60263 -0.74885,3.31046 -0.29839,4.94434 0.41666,1.51174 1.57428,2.91012 3.20708,3.3121 0.28552,0.0707 0.38009,-0.35597 0.096,-0.4259 -1.61931,-0.39868 -2.66951,-1.90104 -2.95831,-3.40291 a 8.3891732,7.9960455 0 0 1 0.0271,-2.71781 c 0.0792,-0.46244 0.18505,-0.92015 0.30651,-1.37403 a 8.1286513,7.7477309 0 0 0 0.2906,-1.34446 c 0.0565,-0.74868 -0.26624,-1.61503 -1.07997,-1.87077 -0.7589,-0.238535 -1.660993,0.412017 -1.584813,1.18486 a 1.0729659,1.0226853 0 0 0 1.605113,0.75824 c 0.33491,-0.184 0.59778,-0.55272 0.82289,-0.84459 a 7.6491727,7.2907224 0 0 0 1.23831,-6.189776 c -0.078,-0.270742 -0.51199,-0.133881 -0.43447,0.135747 z"
       fill="#cccccc"
       id="path5018-74-7"
       style="stroke-width:0.17215" />
    <path
       d="m 109.62068,31.595184 c -0.18944,-4.126597 -3.64189,-7.334108 -6.58426,-7.211286 -2.94234,0.123009 -6.087142,3.605816 -5.897484,7.732406 0.17557,3.81969 3.277544,6.84426 5.935594,7.18163 a 0.30087123,0.28677201 0 0 0 -0.0653,0.0888 l -0.26421,0.5986 a 0.30472757,0.29044763 0 0 0 0.30075,0.40224 l 1.44857,-0.0901 a 0.3047364,0.29045605 0 0 0 0.24358,-0.43619 l -0.34403,-0.56075 a 0.30170351,0.28756524 0 0 0 -0.0457,-0.053 c 2.62568,-0.54712 5.44708,-3.82459 5.27112,-7.65257 z"
       fill="#73ff63"
       id="path5014-6"
       style="stroke-width:0.17215" />
    <path
       d="m 105.66895,27.51805 a 5.0134235,4.7784875 0 0 1 0.38469,6.57086 c -0.18776,0.21559 0.19081,0.45934 0.37782,0.24533 a 5.4818172,5.2249318 0 0 0 -0.41392,-7.09814 c -0.21009,-0.193 -0.56036,0.0873 -0.34859,0.28189 z"
       fill="#ffffff"
       id="path5016-5"
       style="stroke-width:0.17215" />
    <path
       d="m 103.07458,39.297915 a 7.1915753,6.854569 0 0 1 -1.40911,6.084907 c -0.20569,0.23511 -0.42032,0.52555 -0.77543,0.5185 a 0.5959817,0.56805317 0 0 1 -0.5846,-0.43618 c -0.0687,-0.32716 0.18471,-0.63158 0.4808,-0.767335 0.3356,-0.153613 0.69297,-0.0031 0.92389,0.246265 0.56437,0.61244 0.31937,1.48534 0.12647,2.18874 -0.43996,1.60263 -0.74885,3.31046 -0.29839,4.94434 0.41666,1.51174 1.57428,2.91012 3.20708,3.3121 0.28552,0.0707 0.38009,-0.35597 0.096,-0.4259 -1.61931,-0.39868 -2.66951,-1.90104 -2.95831,-3.40291 a 8.3891732,7.9960455 0 0 1 0.0271,-2.71781 c 0.0792,-0.46244 0.18505,-0.92015 0.30651,-1.37403 a 8.1286513,7.7477309 0 0 0 0.2906,-1.34446 c 0.0565,-0.74868 -0.26624,-1.61503 -1.07997,-1.87077 -0.7589,-0.238535 -1.660993,0.412017 -1.584813,1.18486 a 1.0729659,1.0226853 0 0 0 1.605113,0.75824 c 0.33491,-0.184 0.59778,-0.55272 0.82289,-0.84459 a 7.6491727,7.2907224 0 0 0 1.23831,-6.189776 c -0.078,-0.270742 -0.51199,-0.133881 -0.43447,0.135747 z"
       fill="#cccccc"
       id="path5018-74-5"
       style="stroke-width:0.17215" />
    <path
       d="m 109.62068,31.595184 c -0.18944,-4.126597 -3.64189,-7.334108 -6.58426,-7.211286 -2.94234,0.123009 -6.087142,3.605816 -5.897484,7.732406 0.17557,3.81969 3.277544,6.84426 5.935594,7.18163 a 0.30087123,0.28677201 0 0 0 -0.0653,0.0888 l -0.26421,0.5986 a 0.30472757,0.29044763 0 0 0 0.30075,0.40224 l 1.44857,-0.0901 a 0.3047364,0.29045605 0 0 0 0.24358,-0.43619 l -0.34403,-0.56075 a 0.30170351,0.28756524 0 0 0 -0.0457,-0.053 c 2.62568,-0.54712 5.44708,-3.82459 5.27112,-7.65257 z"
       fill="#73ff63"
       id="path5014-8"
       style="stroke-width:0.17215" />
    <path
       d="m 105.66895,27.51805 a 5.0134235,4.7784875 0 0 1 0.38469,6.57086 c -0.18776,0.21559 0.19081,0.45934 0.37782,0.24533 a 5.4818172,5.2249318 0 0 0 -0.41392,-7.09814 c -0.21009,-0.193 -0.56036,0.0873 -0.34859,0.28189 z"
       fill="#ffffff"
       id="path5016-2"
       style="stroke-width:0.17215" />
    <path
       d="m 103.07458,39.297915 a 7.1915753,6.854569 0 0 1 -1.40911,6.084907 c -0.20569,0.23511 -0.42032,0.52555 -0.77543,0.5185 a 0.5959817,0.56805317 0 0 1 -0.5846,-0.43618 c -0.0687,-0.32716 0.18471,-0.63158 0.4808,-0.767335 0.3356,-0.153613 0.69297,-0.0031 0.92389,0.246265 0.56437,0.61244 0.31937,1.48534 0.12647,2.18874 -0.43996,1.60263 -0.74885,3.31046 -0.29839,4.94434 0.41666,1.51174 1.57428,2.91012 3.20708,3.3121 0.28552,0.0707 0.38009,-0.35597 0.096,-0.4259 -1.61931,-0.39868 -2.66951,-1.90104 -2.95831,-3.40291 a 8.3891732,7.9960455 0 0 1 0.0271,-2.71781 c 0.0792,-0.46244 0.18505,-0.92015 0.30651,-1.37403 a 8.1286513,7.7477309 0 0 0 0.2906,-1.34446 c 0.0565,-0.74868 -0.26624,-1.61503 -1.07997,-1.87077 -0.7589,-0.238535 -1.660993,0.412017 -1.584813,1.18486 a 1.0729659,1.0226853 0 0 0 1.605113,0.75824 c 0.33491,-0.184 0.59778,-0.55272 0.82289,-0.84459 a 7.6491727,7.2907224 0 0 0 1.23831,-6.189776 c -0.078,-0.270742 -0.51199,-0.133881 -0.43447,0.135747 z"
       fill="#cccccc"
       id="path5018-74-1"
       style="stroke-width:0.17215" />
    <path
       d="m 65.636039,101.95828 c -0.189581,-4.126584 -3.641901,-7.334164 -6.584281,-7.211274 -2.94235,0.12301 -6.08715,3.60575 -5.89751,7.732334 0.17552,3.81969 3.27758,6.84429 5.93564,7.18163 a 0.30087123,0.28677201 0 0 0 -0.0653,0.0888 l -0.26434,0.59854 a 0.30472757,0.29044763 0 0 0 0.30075,0.40223 l 1.44857,-0.0901 a 0.3047364,0.29045605 0 0 0 0.24327,-0.43619 l -0.34383,-0.56075 a 0.30170351,0.28756524 0 0 0 -0.0438,-0.053 c 2.625646,-0.54712 5.447034,-3.82458 5.271099,-7.65254 z"
       fill="#73ff63"
       id="path5014-02"
       style="stroke-width:0.17215" />
    <path
       d="m 62.95958,97.830601 a 5.0134235,4.7784875 0 0 1 0.38468,6.570859 c -0.18776,0.21559 0.19096,0.45936 0.37781,0.24534 a 5.4818172,5.2249318 0 0 0 -0.4139,-7.098119 c -0.21016,-0.193 -0.56038,0.0873 -0.34859,0.28189 z"
       fill="#ffffff"
       id="path5016-48"
       style="stroke-width:0.17215" />
    <path
       d="m 60.365218,109.61056 a 7.1915753,6.854569 0 0 1 -1.40915,6.08487 c -0.20546,0.23512 -0.42025,0.52553 -0.7754,0.51854 a 0.5959817,0.56805317 0 0 1 -0.58461,-0.43671 c -0.0684,-0.32716 0.18464,-0.63158 0.4808,-0.76734 0.33593,-0.15391 0.69296,-0.006 0.92391,0.24627 0.56436,0.61244 0.31954,1.48533 0.12648,2.18874 -0.44,1.60263 -0.74882,3.31043 -0.29856,4.94434 0.41661,1.51174 1.57432,2.91011 3.20706,3.3121 0.28565,0.0707 0.38019,-0.35597 0.096,-0.4259 -1.61924,-0.39868 -2.66947,-1.90104 -2.95827,-3.40284 a 8.3891732,7.9960455 0 0 1 0.0277,-2.71788 c 0.0789,-0.46244 0.18524,-0.92015 0.30639,-1.374 a 8.1286513,7.7477309 0 0 0 0.29033,-1.34443 c 0.0569,-0.74874 -0.2665,-1.61509 -1.07994,-1.87083 -0.75891,-0.23883 -1.66103,0.41202 -1.58479,1.18486 a 1.0729659,1.0226853 0 0 0 1.60507,0.75827 c 0.33489,-0.18463 0.5978,-0.55269 0.82286,-0.84456 a 7.6491727,7.2907224 0 0 0 1.23832,-6.1898 c -0.0779,-0.27044 -0.51201,-0.13388 -0.43424,0.13574 z"
       fill="#cccccc"
       id="path5018-74-71"
       style="stroke-width:0.17215" />
    <path
       d="m 124.96782,48.615009 c -0.18946,-4.12663 -3.64181,-7.33416 -6.58419,-7.21131 -2.94242,0.12301 -6.0872,3.60581 -5.89758,7.73238 0.17559,3.81972 3.2776,6.84425 5.93568,7.18166 a 0.30087123,0.28677201 0 0 0 -0.0653,0.0888 l -0.26457,0.5986 a 0.30472757,0.29044763 0 0 0 0.30075,0.40226 l 1.44858,-0.0901 a 0.3047364,0.29045605 0 0 0 0.24359,-0.43621 l -0.34399,-0.56072 a 0.30170351,0.28756524 0 0 0 -0.0457,-0.053 c 2.62563,-0.54716 5.447,-3.82459 5.27111,-7.65255 z"
       fill="#73ff63"
       id="path5014-87"
       style="stroke-width:0.17215" />
    <path
       d="m 122.28948,44.487592 a 5.0134235,4.7784875 0 0 1 0.38467,6.57085 c -0.18778,0.21559 0.19146,0.45933 0.37781,0.24534 a 5.4818172,5.2249318 0 0 0 -0.41391,-7.09818 c -0.2101,-0.19298 -0.56039,0.0875 -0.34857,0.2819 z"
       fill="#ffffff"
       id="path5016-8"
       style="stroke-width:0.17215" />
    <path
       d="m 119.6951,56.267454 a 7.1915753,6.854569 0 0 1 -1.40914,6.08493 c -0.20569,0.23512 -0.4203,0.5255 -0.77543,0.51851 a 0.5959817,0.56805317 0 0 1 -0.5846,-0.43672 c -0.0687,-0.32715 0.18471,-0.63162 0.4808,-0.76736 0.33561,-0.1536 0.69297,-0.003 0.9239,0.24627 0.56436,0.61244 0.31936,1.48541 0.12648,2.18874 -0.43993,1.60263 -0.74877,3.31048 -0.29837,4.94439 0.41665,1.5117 1.57432,2.91006 3.20705,3.31204 0.28554,0.0707 0.38009,-0.35595 0.096,-0.4259 -1.61926,-0.39868 -2.66949,-1.90102 -2.95831,-3.40288 a 8.3891732,7.9960455 0 0 1 0.0271,-2.71784 c 0.0792,-0.46244 0.18505,-0.92015 0.3065,-1.37399 a 8.1286513,7.7477309 0 0 0 0.29062,-1.34444 c 0.0573,-0.74874 -0.26625,-1.61508 -1.07992,-1.87086 -0.7589,-0.23851 -1.66103,0.41203 -1.5848,1.18491 a 1.0729659,1.0226853 0 0 0 1.60506,0.75825 c 0.33492,-0.18462 0.59783,-0.55275 0.82287,-0.84461 a 7.6491727,7.2907224 0 0 0 1.23832,-6.18975 c -0.0782,-0.27043 -0.51201,-0.13388 -0.43449,0.13575 z"
       fill="#cccccc"
       id="path5018-74-00"
       style="stroke-width:0.17215" />
    <path
       d="m 142.93072,136.83143 c -0.18946,-4.12659 -3.64194,-7.33414 -6.5843,-7.21125 -2.94238,0.12301 -6.08717,3.60575 -5.89751,7.73237 0.17558,3.81966 3.2776,6.84426 5.93565,7.1816 a 0.30087123,0.28677201 0 0 0 -0.0653,0.0888 l -0.26456,0.59854 a 0.30472757,0.29044763 0 0 0 0.30042,0.40223 l 1.44857,-0.0901 a 0.3047364,0.29045605 0 0 0 0.24358,-0.4362 l -0.34403,-0.56075 a 0.30170351,0.28756524 0 0 0 -0.0457,-0.053 c 2.62565,-0.54713 5.44704,-3.82459 5.27112,-7.65257 z"
       fill="#73ff63"
       id="path5014-4"
       style="stroke-width:0.17215" />
    <path
       d="m 138.97891,132.75429 a 5.0134235,4.7784875 0 0 1 0.3847,6.57086 c -0.18776,0.21559 0.19081,0.45935 0.37782,0.24533 a 5.4818172,5.2249318 0 0 0 -0.41392,-7.09815 c -0.21008,-0.19299 -0.56035,0.0873 -0.3486,0.2819 z"
       fill="#ffffff"
       id="path5016-6"
       style="stroke-width:0.17215" />
    <path
       d="m 74.102185,30.545208 c -0.189581,-4.126571 -3.64195,-7.334082 -6.58431,-7.211229 -2.94237,0.123009 -6.087151,3.605786 -5.897517,7.732356 0.175448,3.819655 3.277598,6.844254 5.935671,7.181661 a 0.30087123,0.28677201 0 0 0 -0.06532,0.08882 l -0.264512,0.598598 a 0.30472757,0.29044763 0 0 0 0.300611,0.402285 l 1.448567,-0.09006 a 0.3047364,0.29045605 0 0 0 0.24351,-0.436237 l -0.344004,-0.560697 a 0.30170351,0.28756524 0 0 0 -0.04573,-0.05296 c 2.625679,-0.547141 5.447004,-3.824577 5.271111,-7.652544 z"
       fill="#73ff63"
       id="path5014-9"
       style="stroke-width:0.17215" />
    <path
       d="m 70.150382,26.468073 a 5.0134235,4.7784875 0 0 1 0.384677,6.570853 c -0.18776,0.215611 0.190979,0.459359 0.377839,0.245334 A 5.4818172,5.2249318 0 0 0 70.49897,26.186144 c -0.21015,-0.192976 -0.56038,0.08747 -0.348588,0.281898 z"
       fill="#ffffff"
       id="path5016-51"
       style="stroke-width:0.17215" />
    <path
       d="m 67.556029,38.247996 a 7.1915753,6.854569 0 0 1 -1.409155,6.08489 c -0.205587,0.235116 -0.4203,0.525553 -0.775421,0.518516 a 0.5959817,0.56805317 0 0 1 -0.584612,-0.436216 c -0.0686,-0.327157 0.184595,-0.631555 0.480802,-0.767301 0.335811,-0.153614 0.692975,-0.0031 0.923917,0.246267 0.56436,0.612423 0.319338,1.485353 0.126475,2.188709 -0.439959,1.602569 -0.748796,3.310456 -0.29879,4.944386 0.416659,1.511705 1.574333,2.910064 3.207072,3.312048 0.285525,0.07037 0.380104,-0.355948 0.09602,-0.425904 -1.619283,-0.398626 -2.669474,-1.901018 -2.958302,-3.402878 a 8.3891732,7.9960455 0 0 1 0.02742,-2.717807 c 0.07908,-0.462447 0.185018,-0.920148 0.306539,-1.374055 a 8.1286513,7.7477309 0 0 0 0.290565,-1.344466 c 0.05674,-0.748678 -0.266343,-1.615006 -1.079918,-1.870766 -0.758948,-0.238515 -1.661046,0.412037 -1.584803,1.184914 a 1.0729659,1.0226853 0 0 0 1.605087,0.758181 c 0.3349,-0.184 0.597803,-0.552686 0.822837,-0.844554 a 7.6491727,7.2907224 0 0 0 1.238322,-6.189804 c -0.07802,-0.270415 -0.512,-0.133881 -0.434465,0.135746 z"
       fill="#cccccc"
       id="path5018-74-30"
       style="stroke-width:0.17215" />
    <path
       d="m 67.52732,156.60552 a 5.0134235,4.7784875 0 0 1 0.38465,6.57085 c -0.18775,0.21559 0.19143,0.45936 0.37784,0.24533 a 5.4818172,5.2249318 0 0 0 -0.41391,-7.09811 c -0.21017,-0.193 -0.56038,0.0873 -0.34858,0.2819 z"
       fill="#ffffff"
       id="path5016-3"
       style="stroke-width:0.17215" />
    <path
       d="m 91.214767,52.490307 c -0.18945,-4.126576 -3.641899,-7.334085 -6.584279,-7.211262 -2.94234,0.123009 -6.087153,3.605819 -5.897498,7.73239 0.175586,3.819686 3.277577,6.844253 5.935628,7.181629 a 0.30087123,0.28677201 0 0 0 -0.0653,0.08882 l -0.26456,0.598597 a 0.30472757,0.29044763 0 0 0 0.30042,0.402254 l 1.44857,-0.09006 a 0.3047364,0.29045605 0 0 0 0.2429,-0.436185 l -0.34398,-0.560749 a 0.30170351,0.28756524 0 0 0 -0.0457,-0.05296 c 2.62568,-0.547141 5.447079,-3.824639 5.271129,-7.652574 z"
       fill="#73ff63"
       id="path5014-67"
       style="stroke-width:0.17215" />
    <path
       d="m 87.263018,48.413203 a 5.0134235,4.7784875 0 0 1 0.38469,6.570854 c -0.18776,0.21561 0.19148,0.459359 0.37782,0.245334 a 5.4818172,5.2249318 0 0 0 -0.41392,-7.09813 c -0.21009,-0.192999 -0.56038,0.08728 -0.34859,0.28188 z"
       fill="#ffffff"
       id="path5016-52"
       style="stroke-width:0.17215" />
    <path
       d="m 84.668618,60.193064 a 7.1915753,6.854569 0 0 1 -1.40908,6.084912 c -0.2057,0.235125 -0.42032,0.525563 -0.775452,0.518557 a 0.5959817,0.56805317 0 0 1 -0.584655,-0.436714 c -0.0687,-0.327136 0.184722,-0.631617 0.480866,-0.767363 0.335611,-0.153604 0.692921,-0.0031 0.923891,0.246267 0.56436,0.612423 0.31937,1.485353 0.12648,2.188709 -0.43997,1.602631 -0.74885,3.310487 -0.29873,4.944354 0.41666,1.51174 1.57429,2.910099 3.20702,3.312083 0.28555,0.07068 0.38011,-0.355948 0.096,-0.425883 -1.61924,-0.398647 -2.66949,-1.901039 -2.95827,-3.402902 a 8.3891732,7.9960455 0 0 1 0.0271,-2.717807 c 0.0793,-0.462447 0.18506,-0.920137 0.30652,-1.373982 a 8.1286513,7.7477309 0 0 0 0.28993,-1.344467 c 0.0573,-0.74875 -0.26626,-1.615078 -1.07999,-1.870817 -0.758899,-0.238536 -1.661007,0.412016 -1.584806,1.184893 a 1.0729659,1.0226853 0 0 0 1.605096,0.758192 c 0.33493,-0.184623 0.5978,-0.552697 0.82285,-0.844565 a 7.6491727,7.2907224 0 0 0 1.23837,-6.189804 c -0.078,-0.270415 -0.51199,-0.133881 -0.43449,0.135746 z"
       fill="#cccccc"
       id="path5018-74-14"
       style="stroke-width:0.17215" />
    <path
       d="m 102.75857,88.121021 c -0.18945,-4.1266 -3.641895,-7.33412 -6.584279,-7.21127 -2.942402,0.12301 -6.087194,3.6058 -5.897539,7.7324 0.175586,3.819631 3.27762,6.844231 5.935671,7.181641 a 0.30087123,0.28677201 0 0 0 -0.06532,0.0888 l -0.264554,0.59859 a 0.30472757,0.29044763 0 0 0 0.300759,0.40227 l 1.448567,-0.0901 a 0.3047364,0.29045605 0 0 0 0.24358,-0.43622 l -0.34402,-0.56072 a 0.30170351,0.28756524 0 0 0 -0.0457,-0.053 c 2.625645,-0.54709 5.447025,-3.824581 5.271075,-7.652551 z"
       fill="#73ff63"
       id="path5014-45"
       style="stroke-width:0.17215" />
    <path
       d="m 98.806774,84.043855 a 5.0134235,4.7784875 0 0 1 0.3847,6.570916 c -0.18776,0.2156 0.19081,0.45933 0.37782,0.24535 a 5.4818172,5.2249318 0 0 0 -0.41392,-7.098176 c -0.21008,-0.19299 -0.56035,0.0875 -0.3486,0.28188 z"
       fill="#ffffff"
       id="path5016-18"
       style="stroke-width:0.17215" />
    <path
       d="m 96.212426,95.823791 a 7.1915753,6.854569 0 0 1 -1.40915,6.084889 c -0.20569,0.23511 -0.42032,0.52555 -0.77539,0.51851 a 0.5959817,0.56805317 0 0 1 -0.58466,-0.43621 c -0.0684,-0.32716 0.18473,-0.63162 0.4808,-0.7673 0.33595,-0.15393 0.69296,-0.006 0.92393,0.24626 0.56436,0.61243 0.31938,1.48536 0.12648,2.18868 -0.43994,1.60263 -0.74878,3.31049 -0.29839,4.9444 0.41666,1.5117 1.57436,2.91006 3.20708,3.31204 0.28552,0.0707 0.38012,-0.35595 0.096,-0.4259 -1.61924,-0.39868 -2.66947,-1.90102 -2.95831,-3.40289 a 8.3891732,7.9960455 0 0 1 0.0271,-2.71783 c 0.0792,-0.46244 0.18508,-0.92015 0.30652,-1.374 a 8.1286513,7.7477309 0 0 0 0.29027,-1.34443 c 0.0565,-0.74874 -0.26626,-1.61508 -1.07993,-1.87086 -0.75888,-0.23852 -1.66102,0.41204 -1.5848,1.18491 a 1.0729659,1.0226853 0 0 0 1.60508,0.75825 c 0.33493,-0.18463 0.59783,-0.55275 0.82288,-0.84456 a 7.6491727,7.2907224 0 0 0 1.2383,-6.189799 c -0.078,-0.27044 -0.51199,-0.13388 -0.43449,0.13574 z"
       fill="#cccccc"
       id="path5018-74-4"
       style="stroke-width:0.17215" />
    <path
       d="m 116.86257,130.01542 c -0.18944,-4.1266 -3.6419,-7.33411 -6.58426,-7.21128 -2.94233,0.123 -6.08715,3.60581 -5.89757,7.73238 0.17557,3.81968 3.27763,6.84428 5.93565,7.1816 a 0.30087123,0.28677201 0 0 0 -0.0653,0.0888 l -0.26457,0.59862 a 0.30472757,0.29044763 0 0 0 0.30077,0.40226 l 1.44857,-0.0901 a 0.3047364,0.29045605 0 0 0 0.2429,-0.43622 l -0.34399,-0.56071 a 0.30170351,0.28756524 0 0 0 -0.0457,-0.053 c 2.62567,-0.54715 5.44703,-3.82461 5.27112,-7.65253 z"
       fill="#73ff63"
       id="path5014-69"
       style="stroke-width:0.17215" />
    <path
       d="m 110.31639,137.71815 a 7.1915753,6.854569 0 0 1 -1.40911,6.08492 c -0.20569,0.23512 -0.42032,0.52556 -0.77537,0.5185 a 0.5959817,0.56805317 0 0 1 -0.58466,-0.4362 c -0.0687,-0.32713 0.18471,-0.63161 0.48083,-0.76736 0.33594,-0.1536 0.69293,-0.003 0.92392,0.24627 0.56434,0.61242 0.31937,1.48535 0.12647,2.18873 -0.43997,1.60263 -0.74885,3.31052 -0.29872,4.94433 0.41666,1.51174 1.57428,2.91011 3.20707,3.3121 0.28552,0.0707 0.38009,-0.35595 0.096,-0.4259 -1.61932,-0.39865 -2.66952,-1.90098 -2.95835,-3.40284 a 8.3891732,7.9960455 0 0 1 0.0271,-2.71783 c 0.0792,-0.46242 0.18505,-0.92017 0.30651,-1.37401 a 8.1286513,7.7477309 0 0 0 0.2906,-1.34447 c 0.0565,-0.74876 -0.26624,-1.61509 -1.07991,-1.87076 -0.75888,-0.23854 -1.66102,0.41201 -1.58481,1.18483 a 1.0729659,1.0226853 0 0 0 1.60506,0.75827 c 0.33494,-0.18401 0.59781,-0.55274 0.82288,-0.84459 a 7.6491727,7.2907224 0 0 0 1.23831,-6.18978 c -0.078,-0.27043 -0.512,-0.13388 -0.43449,0.13559 z"
       fill="#cccccc"
       id="path5018-74-6"
       style="stroke-width:0.17215" />
    <path
       d="m 85.633098,127.47428 c -0.18946,-4.12657 -3.64194,-7.33408 -6.58432,-7.21126 -2.94234,0.12301 -6.08714,3.60582 -5.89751,7.73239 0.17546,3.81963 3.27757,6.84423 5.93567,7.18163 a 0.30087123,0.28677201 0 0 0 -0.0653,0.0888 l -0.26456,0.59857 a 0.30472757,0.29044763 0 0 0 0.30076,0.40281 l 1.44853,-0.0901 a 0.3047364,0.29045605 0 0 0 0.24291,-0.43621 l -0.34403,-0.56071 a 0.30170351,0.28756524 0 0 0 -0.0457,-0.053 c 2.62562,-0.54715 5.44698,-3.82459 5.27108,-7.65254 z"
       fill="#73ff63"
       id="path5014-2"
       style="stroke-width:0.17215" />
    <path
       d="m 82.956373,123.34698 a 5.0134235,4.7784875 0 0 1 0.38469,6.57086 c -0.18775,0.21561 0.19148,0.45936 0.37783,0.24533 a 5.4818172,5.2249318 0 0 0 -0.41393,-7.09813 c -0.21009,-0.19299 -0.56036,0.0873 -0.34859,0.28188 z"
       fill="#ffffff"
       id="path5016-13"
       style="stroke-width:0.17215" />
    <path
       d="m 80.361967,135.12685 a 7.1915753,6.854569 0 0 1 -1.40912,6.08493 c -0.20569,0.23511 -0.42032,0.52556 -0.77537,0.51855 a 0.5959817,0.56805317 0 0 1 -0.58466,-0.43618 c -0.0687,-0.32718 0.18471,-0.6316 0.48083,-0.76733 0.33593,-0.15362 0.69294,-0.006 0.92392,0.24626 0.56438,0.61245 0.31937,1.48536 0.12649,2.18868 -0.43997,1.60263 -0.74886,3.31049 -0.2984,4.94441 0.41666,1.51169 1.57432,2.91011 3.20704,3.31203 0.28552,0.0707 0.38012,-0.35595 0.096,-0.42591 -1.61924,-0.39863 -2.66949,-1.90101 -2.95831,-3.40288 a 8.3891732,7.9960455 0 0 1 0.0271,-2.71783 c 0.0791,-0.46243 0.18505,-0.92015 0.3065,-1.37399 a 8.1286513,7.7477309 0 0 0 0.28992,-1.34443 c 0.0573,-0.74875 -0.26624,-1.61509 -1.07989,-1.87082 -0.75891,-0.23855 -1.66104,0.41201 -1.5848,1.18485 a 1.0729659,1.0226853 0 0 0 1.60506,0.75827 c 0.33491,-0.18463 0.59778,-0.55276 0.82286,-0.84463 a 7.6491727,7.2907224 0 0 0 1.23834,-6.18974 c -0.0782,-0.27043 -0.51202,-0.13388 -0.43444,0.13573 z"
       fill="#cccccc"
       id="path5018-74-713"
       style="stroke-width:0.17215" />
    <path
       d="m 149.31586,49.559274 c -0.18944,-4.12666 -3.64195,-7.33417 -6.58429,-7.21135 -2.94238,0.12301 -6.08716,3.60582 -5.89754,7.73241 0.17559,3.81969 3.27761,6.84425 5.93567,7.18161 a 0.30087123,0.28677201 0 0 0 -0.0653,0.089 l -0.26457,0.5986 a 0.30472757,0.29044763 0 0 0 0.30076,0.40276 l 1.44857,-0.0901 a 0.3047364,0.29045605 0 0 0 0.24358,-0.43619 l -0.34401,-0.56121 a 0.30170351,0.28756524 0 0 0 -0.0457,-0.053 c 2.62565,-0.5471 5.44705,-3.82457 5.27109,-7.65255 z"
       fill="#73ff63"
       id="path5014-7"
       style="stroke-width:0.17215" />
    <path
       d="m 145.36411,45.482061 a 5.0134235,4.7784875 0 0 1 0.38466,6.57086 c -0.18777,0.21561 0.19114,0.45936 0.37783,0.24535 a 5.4818172,5.2249318 0 0 0 -0.41389,-7.09815 c -0.2101,-0.19299 -0.56042,0.0873 -0.3486,0.28188 z"
       fill="#ffffff"
       id="path5016-85"
       style="stroke-width:0.17215" />
    <path
       d="m 142.76972,57.261927 a 7.1915753,6.854569 0 0 1 -1.40913,6.08492 c -0.20569,0.23511 -0.42031,0.52555 -0.77544,0.51851 a 0.5959817,0.56805317 0 0 1 -0.58459,-0.43621 c -0.0687,-0.32714 0.18471,-0.63156 0.4808,-0.76733 0.33595,-0.15361 0.69296,-0.003 0.92393,0.24626 0.56433,0.61243 0.31936,1.48533 0.12648,2.18873 -0.43992,1.60263 -0.7488,3.31049 -0.29871,4.94433 0.41663,1.51174 1.57432,2.9101 3.20705,3.31211 0.28555,0.0707 0.38009,-0.35597 0.096,-0.42591 -1.6193,-0.39864 -2.66947,-1.90103 -2.95831,-3.4029 a 8.3891732,7.9960455 0 0 1 0.0271,-2.71783 c 0.0792,-0.46242 0.18506,-0.92013 0.30649,-1.37398 a 8.1286513,7.7477309 0 0 0 0.29062,-1.34443 c 0.0573,-0.74876 -0.26625,-1.61509 -1.07995,-1.87083 -0.75893,-0.23853 -1.66103,0.41202 -1.58477,1.18486 a 1.0729659,1.0226853 0 0 0 1.60507,0.75824 c 0.33493,-0.184 0.59779,-0.55273 0.82287,-0.84459 a 7.6491727,7.2907224 0 0 0 1.23832,-6.18978 c -0.0782,-0.27074 -0.51201,-0.13388 -0.4345,0.13559 z"
       fill="#cccccc"
       id="path5018-74-88"
       style="stroke-width:0.17215" />
    <path
       d="m 60.662322,65.328293 c -0.189655,-4.126602 -3.641902,-7.334134 -6.584294,-7.211228 -2.942361,0.123009 -6.087161,3.605754 -5.897515,7.732325 0.175516,3.819685 3.277576,6.844281 5.935629,7.181625 a 0.30087123,0.28677201 0 0 0 -0.06536,0.08882 l -0.264309,0.598567 a 0.30472757,0.29044763 0 0 0 0.300746,0.402264 l 1.448567,-0.09006 a 0.3047364,0.29045605 0 0 0 0.243279,-0.436227 L 55.43523,73.033672 a 0.30170351,0.28756524 0 0 0 -0.04385,-0.05296 c 2.625679,-0.547141 5.447035,-3.824605 5.27111,-7.65254 z"
       fill="#73ff63"
       id="path5014-388-5"
       style="stroke-width:0.17215" />
    <path
       d="m 56.710548,61.251158 a 5.0134235,4.7784875 0 0 1 0.384543,6.570854 c -0.187827,0.215589 0.191213,0.459358 0.377786,0.245334 a 5.4818172,5.2249318 0 0 0 -0.413783,-7.098148 c -0.210262,-0.192976 -0.560365,0.08747 -0.348546,0.281898 z"
       fill="#ffffff"
       id="path5016-90-3"
       style="stroke-width:0.17215" />
    <path
       d="m 54.116159,73.031015 a 7.1915753,6.854569 0 0 1 -1.409114,6.084957 c -0.205504,0.23511 -0.420269,0.52549 -0.775418,0.51851 a 0.5959817,0.56805317 0 0 1 -0.584628,-0.43621 c -0.06841,-0.32716 0.184643,-0.63162 0.480801,-0.76737 0.335947,-0.1536 0.692975,-0.003 0.923911,0.24627 0.56436,0.61245 0.31954,1.48535 0.126482,2.18871 -0.439995,1.60263 -0.748818,3.31053 -0.298562,4.94439 0.416611,1.51174 1.574321,2.9101 3.207056,3.31209 0.285643,0.0707 0.380208,-0.35596 0.09601,-0.42594 -1.619275,-0.39864 -2.669499,-1.90099 -2.958326,-3.40286 a 8.3891732,7.9960455 0 0 1 0.02777,-2.71783 c 0.0789,-0.46242 0.185219,-0.92015 0.306401,-1.374 a 8.1286513,7.7477309 0 0 0 0.290334,-1.34449 c 0.05689,-0.74871 -0.266442,-1.61501 -1.079924,-1.8708 -0.758891,-0.23852 -1.661011,0.41203 -1.584787,1.18491 a 1.0729659,1.0226853 0 0 0 1.605072,0.75826 c 0.334898,-0.18401 0.597818,-0.55276 0.822862,-0.84463 a 7.6491727,7.2907224 0 0 0 1.238338,-6.189806 c -0.07805,-0.270415 -0.512006,-0.133881 -0.434255,0.135746 z"
       fill="#cccccc"
       id="path5018-74-9-9"
       style="stroke-width:0.17215" />
    <path
       d="m 25.564674,156.05907 a 5.0134235,4.7784875 0 0 1 0.38458,6.57085 c -0.18783,0.21561 0.19121,0.45936 0.37778,0.24534 a 5.4818172,5.2249318 0 0 0 -0.41378,-7.0981 c -0.21026,-0.19299 -0.56038,0.0873 -0.34858,0.28188 z"
       fill="#ffffff"
       id="path5016-7-1"
       style="stroke-width:0.17215" />
    <path
       d="m 50.921615,137.79694 c -0.18965,-4.12659 -3.64192,-7.33416 -6.58429,-7.21131 -2.94237,0.12301 -6.08717,3.60579 -5.89752,7.73238 0.17551,3.81972 3.2776,6.84432 5.93565,7.18167 a 0.30087123,0.28677201 0 0 0 -0.0655,0.0888 l -0.26436,0.59857 a 0.30472757,0.29044763 0 0 0 0.30076,0.40223 l 1.44857,-0.0901 a 0.3047364,0.29045605 0 0 0 0.24328,-0.4362 l -0.34384,-0.56075 a 0.30170351,0.28756524 0 0 0 -0.0439,-0.053 c 2.62566,-0.54713 5.44704,-3.8246 5.27111,-7.65257 z"
       fill="#73ff63"
       id="path5014-49-5"
       style="stroke-width:0.17215" />
    <path
       d="m 46.96984,133.71981 a 5.0134235,4.7784875 0 0 1 0.38459,6.57084 c -0.18782,0.2156 0.19122,0.45933 0.37777,0.24536 a 5.4818172,5.2249318 0 0 0 -0.41378,-7.09819 c -0.21026,-0.193 -0.56037,0.0873 -0.34853,0.2819 z"
       fill="#ffffff"
       id="path5016-00-6"
       style="stroke-width:0.17215" />
    <path
       d="m 44.375498,145.49974 a 7.1915753,6.854569 0 0 1 -1.40914,6.0849 c -0.20549,0.23512 -0.42027,0.52549 -0.77542,0.5185 a 0.5959817,0.56805317 0 0 1 -0.58463,-0.43672 c -0.0683,-0.32714 0.18465,-0.63156 0.48082,-0.7673 0.33594,-0.15391 0.69295,-0.006 0.92392,0.24627 0.56434,0.61241 0.31946,1.48534 0.12636,2.18872 -0.44,1.60263 -0.7488,3.31052 -0.29855,4.94436 0.41661,1.51171 1.57431,2.91009 3.20705,3.31205 0.28562,0.0707 0.38015,-0.35597 0.096,-0.42591 -1.61926,-0.39868 -2.66948,-1.90104 -2.95829,-3.40287 a 8.3891732,7.9960455 0 0 1 0.0277,-2.71786 c 0.0789,-0.46242 0.18516,-0.92014 0.30638,-1.37398 a 8.1286513,7.7477309 0 0 0 0.29033,-1.34444 c 0.0569,-0.74875 -0.26649,-1.61508 -1.07994,-1.87082 -0.7589,-0.23884 -1.66103,0.41198 -1.5848,1.18486 a 1.0729659,1.0226853 0 0 0 1.60509,0.75826 c 0.33489,-0.184 0.59781,-0.55269 0.82286,-0.84456 a 7.6491727,7.2907224 0 0 0 1.23832,-6.18981 c -0.0779,-0.27042 -0.51201,-0.13388 -0.43424,0.13575 z"
       fill="#cccccc"
       id="path5018-74-16-3"
       style="stroke-width:0.17215" />
    <path
       d="m 137.65754,144.48367 a 7.1915753,6.854569 0 0 1 -1.40915,6.08489 c -0.2057,0.23511 -0.42029,0.52555 -0.77539,0.51851 a 0.5959817,0.56805317 0 0 1 -0.58462,-0.43621 c -0.0687,-0.32716 0.18471,-0.63162 0.4808,-0.76736 0.33561,-0.15393 0.69296,-0.003 0.9239,0.24626 0.56436,0.61246 0.31935,1.48542 0.12647,2.18871 -0.43997,1.60263 -0.74881,3.31052 -0.29872,4.9444 0.41666,1.51173 1.57435,2.91009 3.20705,3.31207 0.28555,0.0707 0.38012,-0.35595 0.096,-0.42594 -1.61924,-0.39864 -2.6695,-1.90095 -2.95831,-3.40281 a 8.3891732,7.9960455 0 0 1 0.0271,-2.71781 c 0.0792,-0.46247 0.18506,-0.92015 0.30651,-1.37406 a 8.1286513,7.7477309 0 0 0 0.29061,-1.34446 c 0.0573,-0.74874 -0.26626,-1.61501 -1.07993,-1.87077 -0.75889,-0.23851 -1.66099,0.41204 -1.5848,1.18492 a 1.0729659,1.0226853 0 0 0 1.60511,0.75818 c 0.33493,-0.184 0.5978,-0.55269 0.82284,-0.84456 a 7.6491727,7.2907224 0 0 0 1.23831,-6.1898 c -0.0782,-0.27044 -0.51199,-0.13388 -0.43447,0.13574 z"
       fill="#cccccc"
       id="path5018-74-89"
       style="stroke-width:0.17215" />
  </g>
</svg>
