<?xml version="1.0" encoding="UTF-8" standalone="no"?>
<svg
   data-name="Layer 1"
   width="977.4528"
   height="657.62715"
   viewBox="0 0 977.4528 657.62715"
   version="1.1"
   id="svg481"
   sodipodi:docname="new_year.svg"
   inkscape:version="1.1.1 (3bf5ae0d25, 2021-09-20)"
   xmlns:inkscape="http://www.inkscape.org/namespaces/inkscape"
   xmlns:sodipodi="http://sodipodi.sourceforge.net/DTD/sodipodi-0.dtd"
   xmlns="http://www.w3.org/2000/svg"
   xmlns:svg="http://www.w3.org/2000/svg">
  <sodipodi:namedview
     id="namedview752"
     pagecolor="#ffffff"
     bordercolor="#666666"
     borderopacity="1.0"
     inkscape:pageshadow="2"
     inkscape:pageopacity="0.0"
     inkscape:pagecheckerboard="0"
     showgrid="false"
     inkscape:snap-bbox="true"
     inkscape:bbox-paths="true"
     inkscape:zoom="0.55912463"
     inkscape:cx="489.15749"
     inkscape:cy="324.61457"
     inkscape:window-width="1366"
     inkscape:window-height="705"
     inkscape:window-x="-8"
     inkscape:window-y="-8"
     inkscape:window-maximized="1"
     inkscape:current-layer="svg481">
    <inkscape:grid
       type="xygrid"
       id="grid4048" />
  </sodipodi:namedview>
  <defs
     id="defs485">
    <inkscape:perspective
       sodipodi:type="inkscape:persp3d"
       inkscape:vp_x="0 : 328.81358 : 1"
       inkscape:vp_y="0 : 1000 : 0"
       inkscape:vp_z="977.4528 : 328.81358 : 1"
       inkscape:persp3d-origin="488.7264 : 219.20905 : 1"
       id="perspective3586" />
  </defs>
  <path
     d="m 39.629188,71.070818 c -1.26775,5.59419 -1.87028,11.93642 1.51109,16.94258 a 11.580476,11.631397 0 0 0 5.99406,4.56079 17.008902,17.083696 0 0 0 7.63819,0.47123 c 5.76735,-0.80255 10.89307,-3.81988 16.5651,-4.99133 2.50308,-0.51698 5.15951,-0.68785 7.56911,0.30708 1.80545,0.74548 3.70708,2.24425 3.71575,4.38219 0.009,2.19544 -1.88954,3.65258 -3.77759,4.32758 -2.51932,0.90071 -5.13752,0.5521 -7.75067,0.43856 -2.81437,-0.12226 -5.68414,0.13334 -8.02217,1.86449 a 13.952552,14.013906 0 0 0 -4.45866,6.071592 c -1.17515,2.86463 -1.65215,5.94448 -2.40358,8.93332 a 39.492446,39.666108 0 0 1 -2.83477,7.78455 40.148162,40.324709 0 0 1 -9.80939,12.77111 c -2.0185,1.74476 -4.4711,3.52228 -7.22782,3.68221 -2.12627,0.12336 -4.71091,-0.77407 -5.53049,-2.93716 a 4.1990416,4.2175066 0 0 1 1.96589,-5.00722 c 1.82223,-0.92357 3.80675,0.39393 4.3952,2.20222 a 2.8065825,2.8189241 0 0 1 -0.29241,2.54195 c -0.55253,0.82751 0.77851,1.60127 1.32734,0.77927 1.27428,-1.90846 0.60823,-4.47518 -0.95239,-6.00394 a 4.476894,4.4965804 0 0 0 -5.89216,-0.44105 5.8215465,5.8471451 0 0 0 -2.12807,6.04184 c 0.65551,2.37599 2.97996,3.88728 5.30117,4.26169 2.86645,0.46238 5.6251,-0.66915 7.93894,-2.30387 a 35.588053,35.744548 0 0 0 6.2868,-5.83262 41.730195,41.913699 0 0 0 8.32475,-14.95034 c 1.69199,-5.44571 1.81507,-12.63968 6.84266,-16.31743 2.58707,-1.892492 5.75699,-1.682592 8.79027,-1.508882 2.67759,0.15339 5.28963,0.12547 7.74604,-1.09204 2.0283,-1.00532 3.66477,-2.86093 3.6986,-5.22503 0.0342,-2.38658 -1.65285,-4.3056 -3.64056,-5.39291 -5.25108,-2.87241 -11.55695,-0.55584 -16.71571,1.36319 -5.18779,1.92983 -11.1109,4.19486 -16.62416,2.16403 a 10.311972,10.357318 0 0 1 -5.69674,-5.46718 c -1.33504,-2.84366 -1.52499,-6.07021 -1.21658,-9.1563 a 39.674269,39.848731 0 0 1 0.84525,-4.85372 c 0.21923,-0.96741 -1.26249,-1.38045 -1.4823,-0.41045 z"
     fill="#3f3d56"
     id="path381"
     style="stroke-width:0.513532" />
  <path
     d="m 121.24738,136.39126 c -7.44738,-0.59092 1.34039,-5.54107 1.92869,-13.02121 a 13.526697,13.586178 0 0 1 26.96937,2.13988 c -0.58829,7.48013 -21.45068,11.47222 -28.89806,10.88133 z"
     fill="#f0f0f0"
     id="path383"
     style="stroke-width:0.513532" />
  <path
     d="m 192.75424,89.822328 a 13.526696,13.586178 0 0 1 -12.41943,-14.61391 c 0.58832,-7.48014 -14.20099,-12.48386 -6.75361,-11.89295 7.44738,0.59091 34.3113,6.55268 33.72301,14.03281 a 13.526696,13.586178 0 0 1 -14.54997,12.47405 z"
     fill="#f0f0f0"
     id="path385"
     style="stroke-width:0.513532" />
  <path
     d="m 209.05477,72.771388 c 0.98147,2.04497 0.40284,4.40757 -0.89332,6.17313 -1.47433,2.0082 -3.81934,2.99816 -6.22491,3.32534 a 19.159144,19.243392 0 0 1 -7.69696,-0.63659 c -2.4078,-0.69796 -4.90668,-2.19399 -5.40334,-4.86667 -0.33102,-1.78134 0.42565,-3.68235 2.2674,-4.17613 a 4.4347895,4.454291 0 0 1 4.1984,1.14404 c 1.5293,1.59868 1.41288,4.16462 0.44096,6.02147 -1.14313,2.18389 -3.43035,3.38904 -5.78201,3.78672 -2.79589,0.47282 -5.60529,-0.18766 -8.23552,-1.12738 -2.85874,-1.02136 -5.6319,-2.29321 -8.4329,-3.4615 -5.46241,-2.27837 -11.04241,-4.41868 -16.9165,-5.32608 -8.97332,-1.38616 -19.62288,0.7723 -25.11601,8.67394 -2.96533,4.26551 -3.80534,9.61497 -3.16712,14.704 0.67308,5.366832 3.01767,10.298562 6.12221,14.665822 a 62.000058,62.272701 0 0 0 5.37259,6.4575 4.4278003,4.447271 0 0 1 1.02213,4.84523 c -1.70177,4.19972 -8.50578,2.86126 -9.01275,-1.46779 -0.23034,-1.96703 0.86229,-3.99289 2.22756,-5.32708 a 10.498422,10.544586 0 0 1 5.59914,-2.72441 c 4.41497,-0.74052 9.08189,0.90363 12.45667,3.75947 3.81259,3.22636 5.95898,8.12934 7.08954,12.90228 1.28715,5.43412 1.35281,11.02327 1.4751,16.57801 0.12518,5.68439 0.34032,11.43602 1.96397,16.92253 a 41.636339,41.819429 0 0 0 6.03263,12.33009 43.4902,43.681442 0 0 0 21.67849,16.1357 39.836567,40.011744 0 0 0 6.48577,1.52606 c 0.86151,0.12834 0.96436,-1.22667 0.10653,-1.3544 -9.5923,-1.42838 -18.41344,-6.64487 -24.72817,-13.97717 a 41.245664,41.427038 0 0 1 -7.38951,-12.37183 c -2.05925,-5.45165 -2.58146,-11.24245 -2.74957,-17.02848 -0.17168,-5.90935 -0.0782,-11.87212 -1.25611,-17.69329 -1.04132,-5.14617 -3.08391,-10.3573 -6.86667,-14.10681 a 17.546243,17.6234 0 0 0 -12.82305,-5.13205 c -4.38804,0.20417 -9.08001,2.63153 -10.38399,7.12838 a 5.8228713,5.848478 0 0 0 1.38118,5.94243 6.8218958,6.8518941 0 0 0 6.98561,1.48282 5.6592559,5.684142 0 0 0 3.14204,-6.95366 6.8875405,6.9178274 0 0 0 -1.69621,-2.60604 c -3.95856,-4.24611 -7.59126,-8.99773 -9.5625,-14.52668 -1.8386,-5.156952 -2.21574,-11.089202 -0.0953,-16.220542 4.01434,-9.71444 15.6647,-12.63338 25.15464,-11.27567 6.21063,0.88855 12.09118,3.25027 17.84417,5.66602 2.93774,1.23358 5.8565,2.60453 8.90328,3.54882 2.72786,0.84544 5.65504,1.26999 8.46546,0.57661 2.45295,-0.60518 4.70739,-2.03766 5.89563,-4.3292 1.07934,-2.08153 1.26559,-4.72282 -0.018,-6.76207 -1.85582,-2.94837 -6.98004,-3.61157 -8.84734,-0.30005 -1.23899,2.19729 -0.63033,5.01097 0.99693,6.8333 1.82435,2.04309 4.55637,2.87759 7.17089,3.29878 4.94039,0.79588 11.0241,0.17041 13.66715,-4.73075 a 7.1285153,7.1598613 0 0 0 0.36984,-6.53733 0.6768376,0.67981381 0 0 0 -1.21812,0.5912 z"
     fill="#3f3d56"
     id="path387"
     style="stroke-width:0.513532" />
  <path
     d="m 501.56701,112.20224 c 7.44739,-0.5909 -1.3404,-5.54105 -1.92869,-13.021182 a 13.526696,13.586179 0 1 0 -26.96937,2.139882 c 0.58831,7.48013 21.45068,11.47222 28.89806,10.8813 z"
     fill="#f0f0f0"
     id="path389"
     style="stroke-width:0.513532" />
  <path
     d="m 430.06015,65.633328 a 13.526696,13.586178 0 0 0 12.41942,-14.61391 c -0.58831,-7.48014 14.20101,-12.48385 6.75361,-11.89295 -7.44738,0.59091 -34.31129,6.55268 -33.72298,14.03282 a 13.526696,13.586178 0 0 0 14.54995,12.47404 z"
     fill="#f0f0f0"
     id="path391"
     style="stroke-width:0.513532" />
  <path
     d="m 413.75964,48.582388 c -0.98149,2.04497 -0.40284,4.40757 0.89333,6.17313 1.4743,2.00821 3.81933,2.99816 6.22489,3.32534 a 19.159175,19.243424 0 0 0 7.69697,-0.63659 c 2.4078,-0.69796 4.90667,-2.194 5.40333,-4.86666 0.331,-1.78134 -0.42565,-3.68236 -2.26738,-4.17614 a 4.4347844,4.4542859 0 0 0 -4.19839,1.14403 c -1.5293,1.59869 -1.4129,4.16463 -0.44095,6.02148 1.14311,2.1839 3.43033,3.38903 5.78198,3.78673 2.79591,0.47281 5.6053,-0.18766 8.23552,-1.12739 2.85875,-1.02136 5.63191,-2.2932 8.43292,-3.4615 5.4624,-2.27837 11.04239,-4.41868 16.91651,-5.32608 8.97331,-1.38616 19.62284,0.7723 25.11598,8.67395 2.96533,4.2655 3.80534,9.61496 3.16712,14.70399 -0.67305,5.36682 -3.01767,10.29856 -6.12221,14.66582 a 62.000058,62.272701 0 0 1 -5.37256,6.4575 4.4278003,4.447271 0 0 0 -1.02217,4.84523 c 1.70178,4.199732 8.50578,2.861272 9.01275,-1.46778 0.23036,-1.96703 -0.86228,-3.99289 -2.22754,-5.32709 a 10.498422,10.544586 0 0 0 -5.59914,-2.7244 c -4.41497,-0.74053 -9.08188,0.90361 -12.45669,3.75947 -3.8126,3.22633 -5.95897,8.129332 -7.08951,12.902282 -1.28718,5.43411 -1.35281,11.02326 -1.47513,16.57801 -0.12516,5.68438 -0.3403,11.43601 -1.96396,16.92253 a 41.636447,41.819538 0 0 1 -6.03258,12.33005 43.490236,43.681478 0 0 1 -21.67851,16.13575 39.836567,40.011744 0 0 1 -6.48578,1.52606 c -0.8615,0.12821 -0.96436,-1.22668 -0.10653,-1.35441 9.59232,-1.42837 18.41346,-6.64488 24.72819,-13.97717 a 41.245664,41.427038 0 0 0 7.38949,-12.37183 c 2.05928,-5.45167 2.58146,-11.24249 2.74957,-17.02851 0.1717,-5.90931 0.0782,-11.8721 1.25611,-17.69326 1.04132,-5.14616 3.08391,-10.357302 6.8667,-14.106812 a 17.546243,17.6234 0 0 1 12.82304,-5.13206 c 4.38803,0.20417 9.08,2.63153 10.38398,7.12839 a 5.8228611,5.8484678 0 0 1 -1.38118,5.942402 6.8218907,6.851889 0 0 1 -6.98561,1.48284 5.6592559,5.684142 0 0 1 -3.14205,-6.953662 6.8875405,6.9178274 0 0 1 1.69622,-2.60603 c 3.95855,-4.24613 7.59127,-8.99775 9.5625,-14.52668 1.83862,-5.15696 2.21572,-11.08921 0.0953,-16.22055 -4.01434,-9.71444 -15.66471,-12.63339 -25.15463,-11.27567 -6.21063,0.88856 -12.09122,3.25026 -17.8442,5.66602 -2.93771,1.23358 -5.85651,2.60453 -8.90327,3.54882 -2.72786,0.84544 -5.65502,1.27 -8.46546,0.57661 -2.45295,-0.60518 -4.70739,-2.03765 -5.89563,-4.3292 -1.07934,-2.08153 -1.26558,-4.72283 0.018,-6.76207 1.85582,-2.94836 6.98005,-3.61157 8.84737,-0.30005 1.23899,2.19729 0.6303,5.01097 -0.99695,6.8333 -1.82436,2.04309 -4.55638,2.87759 -7.17089,3.29878 -4.9404,0.79588 -11.02408,0.17041 -13.66714,-4.73075 a 7.1285153,7.1598613 0 0 1 -0.36986,-6.53734 0.6768376,0.67981381 0 0 1 1.21814,0.59121 z"
     fill="#3f3d56"
     id="path393"
     style="stroke-width:0.513532" />
  <path
     d="m 210.2717,224.63981 c -12.98917,-17.22194 -7.83804,-36.87786 -15.44792,-50.59029 -29.16575,-52.55501 6.74784,-47.71305 47.35177,-37.49281 l 0.0968,1.13379 c -25.84289,4.00569 -42.83867,17.36457 -46.62954,36.65091 -2.94622,14.98875 2.46016,32.56309 15.2233,49.48556 z"
     fill="#f0f0f0"
     id="path395"
     style="stroke-width:0.513532" />
  <path
     d="m 372.78604,211.31184 -0.27137,-1.08081 c 14.49881,-6.60242 13.25308,-26.26759 26.22492,-30.75818 98.81516,-34.20842 1.27374,-38.06612 -20.66633,-56.16074 -19.61999,-16.18122 -41.00245,-34.994102 -68.17708,-44.683262 l 0.21676,-1.10309 c 27.29332,9.73175 51.62329,25.682912 68.50718,44.915242 16.9691,19.3287 24.40525,39.68666 20.93846,57.32366 -2.73377,13.90795 -11.99165,24.81664 -26.77254,31.54718 z"
     fill="#f0f0f0"
     id="path397"
     style="stroke-width:0.513532" />
  <path
     d="m 239.61731,218.31343 v 0 a 4.9821677,5.0040761 0 0 1 -4.98218,5.00408 h -54.69104 a 6.4672703,6.4957089 0 0 1 -6.46728,-6.4957 v 0 a 6.4672703,6.4957089 0 0 1 1.66539,-4.35118 l 34.29316,-38.17894 q 7.21942,-8.12139 10.54198,-14.64967 a 28.344335,28.468976 0 0 0 3.32157,-13.05418 q 0,-8.55667 -4.9101,-13.12675 -4.91096,-4.56901 -14.00787,-4.56891 -12.30753,0 -24.41385,8.30398 a 5.1134819,5.1359678 0 0 1 -7.47773,-1.96326 v 0 a 5.0813131,5.1036576 0 0 1 1.44301,-6.31589 47.3817,47.590055 0 0 1 12.10839,-6.552 52.691614,52.923318 0 0 1 18.62908,-3.48116 q 14.15119,0 22.38372,7.32491 8.23158,7.32612 8.23148,19.79893 a 38.323497,38.492021 0 0 1 -3.97129,17.04292 q -3.9737,8.19636 -13.21363,18.34842 l -29.31559,31.91033 h 45.85063 a 4.9821677,5.0040761 0 0 1 4.98215,5.00407 z"
     fill="#2f2e41"
     id="path399"
     style="stroke-width:0.513532" />
  <path
     d="m 257.63604,171.22168 q -9.17263,-13.41457 -9.17028,-39.38027 0,-25.96214 9.17028,-39.380062 9.16882,-13.41458 26.78827,-13.41694 17.6172,0 26.78827,13.41694 9.16911,13.417822 9.17028,39.235062 0,25.9657 -9.17028,39.45269 -9.17235,13.4895 -26.78827,13.4893 -17.62043,0 -26.78827,-13.41672 z m 44.91199,-7.03476 q 5.84851,-10.44352 5.84851,-32.4905 0,-21.89984 -5.77641,-32.200322 -5.77739,-10.29715 -18.19582,-10.29834 -12.2761,0 -18.12372,10.29834 -5.8485,10.300382 -5.84851,32.200322 0,21.90308 5.84851,32.41789 5.84879,10.5182 18.12372,10.51594 12.27287,2e-5 18.12372,-10.44333 z"
     fill="#2f2e41"
     id="path401"
     style="stroke-width:0.513532" />
  <path
     d="m 396.86551,218.31343 v 0 a 4.9821677,5.0040761 0 0 1 -4.98217,5.00408 H 337.1923 a 6.4672703,6.4957089 0 0 1 -6.46727,-6.4957 v 0 a 6.4672857,6.4957242 0 0 1 1.66537,-4.35118 l 34.29319,-38.17894 q 7.21939,-8.12139 10.54195,-14.64967 a 28.344269,28.468908 0 0 0 3.32159,-13.05417 q 0,-8.55666 -4.91009,-13.12674 -4.91097,-4.56901 -14.0079,-4.56891 -12.3075,0 -24.41385,8.30398 a 5.1134819,5.1359678 0 0 1 -7.47775,-1.96325 v 0 a 5.0813235,5.1036679 0 0 1 1.44303,-6.3159 47.381634,47.589987 0 0 1 12.10841,-6.55199 52.691594,52.923297 0 0 1 18.62907,-3.48116 q 14.15117,0 22.38373,7.3249 8.23156,7.32613 8.23147,19.79893 a 38.323497,38.492021 0 0 1 -3.97127,17.04292 q -3.97373,8.19636 -13.21365,18.34843 l -29.31559,31.91033 h 45.85062 a 4.9821625,5.0040709 0 0 1 4.98215,5.00404 z"
     fill="#2f2e41"
     id="path403"
     style="stroke-width:0.513532" />
  <path
     d="m 473.4839,165.93549 v 0 a 4.9821625,5.0040709 0 0 1 -4.98215,5.00407 h -54.69104 a 6.4672703,6.4957089 0 0 1 -6.46727,-6.49571 v 0 a 6.4672601,6.4956985 0 0 1 1.66535,-4.35119 l 34.29319,-38.17895 q 7.21941,-8.12139 10.54195,-14.64965 a 28.344355,28.468996 0 0 0 3.32159,-13.054152 q 0,-8.55667 -4.9101,-13.12675 -4.91097,-4.56901 -14.00789,-4.56891 -12.30749,0 -24.41385,8.30397 a 5.1134819,5.1359678 0 0 1 -7.47774,-1.96326 v 0 a 5.0813182,5.1036628 0 0 1 1.44303,-6.31588 47.381623,47.589977 0 0 1 12.10839,-6.55202 52.691599,52.923301 0 0 1 18.62908,-3.48115 q 14.15117,0 22.38372,7.32492 8.23158,7.32611 8.23148,19.79892 a 38.323467,38.491991 0 0 1 -3.97129,17.042902 q -3.97372,8.19635 -13.21363,18.34842 l -29.31562,31.91032 h 45.85065 a 4.9821625,5.0040709 0 0 1 4.98215,5.0041 z"
     fill="#2f2e41"
     id="path405"
     style="stroke-width:0.513532" />
  <ellipse
     cx="248.23404"
     cy="92.448929"
     rx="4.6131473"
     ry="3.2232618"
     fill="#e6e6e6"
     id="ellipse407"
     style="stroke-width:0.513532" />
  <ellipse
     cx="277.51749"
     cy="99.701309"
     rx="4.6131473"
     ry="3.2232618"
     fill="#3f3d56"
     id="ellipse409"
     style="stroke-width:0.513532" />
  <ellipse
     cx="236.60086"
     cy="115.41466"
     rx="4.6131473"
     ry="3.2232618"
     fill="#ff6584"
     id="ellipse411"
     style="stroke-width:0.513532" />
  <ellipse
     cx="369.78043"
     cy="139.5891"
     rx="4.6131473"
     ry="3.2232618"
     fill="#e6e6e6"
     id="ellipse413"
     style="stroke-width:0.513532" />
  <ellipse
     cx="399.064"
     cy="146.84145"
     rx="4.6131473"
     ry="3.2232618"
     fill="#3f3d56"
     id="ellipse415"
     style="stroke-width:0.513532" />
  <ellipse
     cx="358.14737"
     cy="162.55486"
     rx="4.6131473"
     ry="3.2232618"
     fill="#ff6584"
     id="ellipse417"
     style="stroke-width:0.513532" />
  <ellipse
     cx="360.95529"
     cy="66.259964"
     rx="4.6131473"
     ry="3.2232618"
     fill="#e6e6e6"
     id="ellipse419"
     style="stroke-width:0.513532" />
  <ellipse
     cx="390.23886"
     cy="73.512314"
     rx="4.6131473"
     ry="3.2232618"
     fill="#3f3d56"
     id="ellipse421"
     style="stroke-width:0.513532" />
  <ellipse
     cx="349.32211"
     cy="89.225723"
     rx="4.6131473"
     ry="3.2232618"
     fill="#ff6584"
     id="ellipse423"
     style="stroke-width:0.513532" />
  <ellipse
     cx="283.07291"
     cy="203.94771"
     rx="2.9155097"
     ry="2.0371001"
     fill="#e6e6e6"
     id="ellipse425"
     style="stroke-width:0.513532" />
  <ellipse
     cx="301.58017"
     cy="208.53123"
     rx="2.9155097"
     ry="2.0371001"
     fill="#3f3d56"
     id="ellipse427"
     style="stroke-width:0.513532" />
  <ellipse
     cx="275.72073"
     cy="218.46205"
     rx="2.9155097"
     ry="2.0371001"
     fill="#ff6584"
     id="ellipse429"
     style="stroke-width:0.513532" />
  <ellipse
     cx="276.65463"
     cy="135.45348"
     rx="2.9155097"
     ry="2.0371001"
     fill="#e6e6e6"
     id="ellipse431"
     style="stroke-width:0.513532" />
  <ellipse
     cx="295.16183"
     cy="140.03694"
     rx="2.9155097"
     ry="2.0371001"
     fill="#3f3d56"
     id="ellipse433"
     style="stroke-width:0.513532" />
  <ellipse
     cx="269.30252"
     cy="149.96779"
     rx="2.9155097"
     ry="2.0371001"
     fill="#ff6584"
     id="ellipse435"
     style="stroke-width:0.513532" />
  <ellipse
     cx="184.39166"
     cy="147.5407"
     rx="2.9155097"
     ry="2.0371001"
     fill="#e6e6e6"
     id="ellipse437"
     style="stroke-width:0.513532" />
  <ellipse
     cx="202.89883"
     cy="152.12416"
     rx="2.9155097"
     ry="2.0371001"
     fill="#3f3d56"
     id="ellipse439"
     style="stroke-width:0.513532" />
  <ellipse
     cx="177.03952"
     cy="162.05501"
     rx="2.9155097"
     ry="2.0371001"
     fill="#ff6584"
     id="ellipse441"
     style="stroke-width:0.513532" />
  <ellipse
     cx="411.84"
     cy="95.565659"
     rx="2.9155097"
     ry="2.0371001"
     fill="#e6e6e6"
     id="ellipse443"
     style="stroke-width:0.513532" />
  <ellipse
     cx="430.34708"
     cy="100.14915"
     rx="2.9155097"
     ry="2.0371001"
     fill="#3f3d56"
     id="ellipse445"
     style="stroke-width:0.513532" />
  <ellipse
     cx="404.48782"
     cy="110.07997"
     rx="2.9155097"
     ry="2.0371001"
     fill="#ff6584"
     id="ellipse447"
     style="stroke-width:0.513532" />
  <path
     d="m 49.750338,88.101688 a 4.69233,4.7129641 0 0 1 3.8097,6.13062 l 19.28664,38.469732 -8.21586,2.45955 -17.32308,-37.974302 a 4.7177711,4.738517 0 0 1 2.44264,-9.08559 z"
     fill="#ffb6b6"
     id="path449"
     style="stroke-width:0.513532" />
  <path
     d="m 81.116558,153.46796 c 0,0 2.39063,-0.65831 0.0262,-5.36853 -1.89294,-3.77091 -11.28619,-28.01442 -15.20009,-32.36464 a 3.686251,3.7024611 0 0 0 -0.24365,-4.53251 l -9.85459,7.10915 c -0.31283,2.74314 0.92842,4.87228 2.00739,4.83118 l 2.99295,7.01018 7.64146,24.08579 10.91069,-0.26397 z"
     fill="#73ff63"
     id="path451"
     style="stroke-width:0.513532" />
  <polygon
     points="146.958,338.549 145.855,361.341 196.34,355.343 201.084,321.167 195.04,321.227 145.084,321.167 "
     fill="#ffb6b6"
     id="polygon453"
     transform="matrix(0.51240631,0,0,0.51465956,3.6936584,1.2646682)" />
  <path
     d="m 100.03957,137.66236 -9.735712,-7.7199 v 0 l -5.11057,-0.29845 -7.58325,4.87936 -6.35729,3.25149 0.10891,16.97752 7.30923,30.40173 26.132722,-1.02934 3.4398,-21.67922 c 0,0 7.99104,-10.78018 -0.6147,-16.95415 z"
     fill="#73ff63"
     id="path455"
     style="stroke-width:0.513532" />
  <polygon
     points="129.936,636.741 135.188,594.167 118.898,594.167 118.898,636.741 "
     fill="#ffb6b6"
     id="polygon457"
     transform="matrix(0.51240631,0,0,0.51465956,3.6936584,1.2646682)" />
  <path
     d="m 62.771928,325.07877 9.03579,-0.54169 v 3.88834 l 8.59055,5.95902 a 2.4181684,2.428802 0 0 1 -1.37409,4.42748 h -10.75742 l -1.8542,-3.84617 -0.72398,3.84617 h -4.05597 z"
     fill="#2f2e41"
     id="path459"
     style="stroke-width:0.513532" />
  <polygon
     points="191.936,636.741 197.188,594.167 180.898,594.167 180.898,636.741 "
     fill="#ffb6b6"
     id="polygon461"
     transform="matrix(0.51240631,0,0,0.51465956,3.6936584,1.2646682)" />
  <path
     d="m 94.541138,325.07877 9.035752,-0.54169 v 3.88834 l 8.59054,5.95902 a 2.4181684,2.428802 0 0 1 -1.37407,4.42748 h -10.75742 l -1.854202,-3.84617 -0.72396,3.84617 h -4.05597 z"
     fill="#2f2e41"
     id="path463"
     style="stroke-width:0.513532" />
  <path
     d="m 62.177488,310.07451 h 0.0615 l 1.08771,-35.62647 a 9.2751173,9.315904 0 0 1 0.12171,-8.80333 l 0.15573,-0.28315 -0.40378,-1.87991 a 11.921907,11.974331 0 0 1 0.68128,-7.20662 l 1.01474,-33.23288 c -3.62523,-23.59772 13.65146,-38.9873 13.65146,-38.9873 H 104.4286 l 5.55628,19.17408 c 3.67318,35.94408 3.00671,70.97049 -2.82215,104.90519 l 0.15891,0.0809 c 0.57219,0.19836 0.8176,0.99447 0.54828,1.77822 -0.26933,0.78376 -0.95151,1.25829 -1.52371,1.05994 l -13.667992,-0.47749 c -0.57217,-0.19833 -0.81766,-0.99452 -0.54828,-1.77824 0.26933,-0.78375 0.95151,-1.25826 1.52371,-1.05993 l 0.92932,0.47212 -1.98194,-34.37817 0.21995,-6.27939 -0.45312,-7.12385 -2.09507,-32.04301 -7.93007,39.40389 -8.1002,42.68211 a 1.4900776,1.4966299 0 0 1 -1.00478,2.60598 h -11.06025 a 1.4946893,1.5012618 0 0 1 0,-3.00251 z"
     fill="#2f2e41"
     id="path465"
     style="stroke-width:0.513532" />
  <path
     d="m 100.48571,211.46581 a 4.6923607,4.7129949 0 0 0 0.11632,-7.2258 l -2.459672,-42.76024 -9.07011,1.95901 4.65579,41.50803 a 4.7177711,4.738517 0 0 0 6.757692,6.51903 z"
     fill="#ffb6b6"
     id="path467"
     style="stroke-width:0.513532" />
  <path
     d="m 93.797408,139.21534 c 0,0 2.38622,-0.67426 2.7789,4.58604 0.31432,4.21124 4.714152,29.84775 3.594462,35.60218 a 3.686251,3.7024611 0 0 1 2.11841,4.00948 l -12.093232,-0.98652 c -1.67649,-2.1882 -1.7062,-4.65529 -0.76069,-5.17896 l -1.03505,-7.55635 -5.81975,-24.59401 9.48347,-5.42521 z"
     fill="#73ff63"
     id="path469"
     style="stroke-width:0.513532" />
  <ellipse
     cx="85.946228"
     cy="116.47893"
     fill="#ffb8b8"
     id="circle471"
     rx="12.234088"
     ry="12.287888"
     style="stroke-width:0.513532" />
  <path
     d="m 59.582528,142.30323 q -3.88336,-1.38231 -7.76673,-2.76967 a 7.8179778,7.8523563 0 0 1 1.68132,-1.9876 c 2.46491,-2.06731 5.86721,-2.44089 8.99674,-3.1383 3.13448,-0.6974 6.53676,-2.12708 7.68252,-5.13585 1.19029,-3.12837 -0.53566,-6.50576 -1.53751,-9.69389 -1.40359,-4.44841 -1.37381,-9.41493 0.50589,-13.67904 1.8797,-4.26411 5.6986,-7.721202 10.23174,-8.737402 4.53306,-1.01127 9.65637,0.63759 12.44367,4.363742 a 7.6728695,7.70661 0 0 1 9.234822,4.29399 c 0.64973,1.63391 0.66958,3.60157 -0.29755,5.07109 -0.967142,1.46952 -3.035292,2.22172 -4.592622,1.40475 l 0.90266,-2.30142 c -2.79229,0.95145 -4.60748,6.02258 -4.23059,8.96162 0.37198,2.93407 2.0781,5.50447 3.80901,7.90052 1.73096,2.39606 3.575902,4.81705 4.319832,7.68136 1.07129,4.11968 -0.37694,8.6229 -3.055112,11.92558 -2.67823,3.30268 -6.45247,5.54434 -10.36066,7.19317 a 48.02848,48.239679 0 0 1 -9.07612,2.80954 c 0.55545,-1.08594 1.10599,-2.17187 1.66146,-3.25783 l -6.59134,4.00507 c -1.27462,0.12455 -2.55919,0.19925 -3.84371,0.22418 -3.73953,0.0648 -7.55346,-0.32882 -10.97569,-1.82818 -3.42704,-1.50442 -6.43757,-4.22927 -7.67747,-7.77108 a 10.027223,10.071316 0 0 1 -0.55542,-3.56667 q 4.54534,-0.98633 9.09086,-1.96768 z"
     fill="#2f2e41"
     id="path473"
     style="stroke-width:0.513532" />
  <path
     d="m 67.757978,34.730438 c 0,-17.05432 -12.47072,-33.4657698 -27.7524,-33.4657698 -15.28169,0 -27.58748,16.4114498 -27.58748,33.4657698 0,14.97495 9.55251,27.45696 22.22749,30.27891 a 22.415803,22.514376 0 0 0 -1.21884,6.51925 c 0,4.68992 2.6169,0.24443 6.57883,0.24443 3.96192,0 7.76855,4.44549 7.76855,-0.24443 a 22.691017,22.790797 0 0 0 -1.29881,-6.75482 c 12.20084,-3.21897 21.28266,-15.44362 21.28266,-30.04334 z"
     fill="#73ff63"
     id="path475"
     style="stroke-width:0.513532" />
  <path
     d="m 34.247598,65.720638 12.00555,0.27086 c 0.98958,0.0223 0.9893,-1.52166 0,-1.54398 l -12.00555,-0.27087 c -0.98959,-0.0223 -0.98931,1.52166 0,1.54399 z"
     fill="#3f3d56"
     id="path477"
     style="stroke-width:0.513532" />
  <path
     d="m 156.91668,338.89423 c -0.39318,1.16969 -152.7988316,1.05973 -153.2230316,-0.10705 0.39269,-1.17255 152.7982916,-1.06261 153.2230316,0.10705 z"
     fill="#cccccc"
     id="path479"
     style="stroke-width:0.513532" />
  <rect
     style="fill:none;stroke-width:0.973233"
     id="rect3632"
     width="503.33768"
     height="338.99771"
     x="2.4289999"
     y="2.4625416" />
  <circle
     id="path4120"
     style="fill:#000000;stroke:#000000"
     cx="291.52713"
     cy="114.46464"
     r="0.90038854" />
  <circle
     id="path4122"
     style="fill:#000000;stroke:#000000"
     cx="291.52713"
     cy="114.46464"
     r="0.90038854" />
  <circle
     id="path4124"
     style="fill:#000000;stroke:#000000"
     cx="282.58459"
     cy="123.40719"
     r="0.90038854" />
  <circle
     id="path4126"
     style="fill:#000000;stroke:#000000"
     cx="282.58459"
     cy="123.40719"
     r="0.90038854" />
  <circle
     id="path4128"
     style="fill:#000000;stroke:#000000"
     cx="291.52713"
     cy="150.23483"
     r="0.90038854" />
  <circle
     id="path4130"
     style="fill:#000000;stroke:#000000"
     cx="291.52713"
     cy="150.23483"
     r="0.90038854" />
  <circle
     id="path4132"
     style="fill:#000000;stroke:#000000"
     cx="330.87436"
     cy="168.11993"
     r="0.90038854" />
  <circle
     id="path4134"
     style="fill:#000000;stroke:#000000"
     cx="330.87436"
     cy="168.11993"
     r="0.90038854" />
  <circle
     id="path4136"
     style="fill:#000000;stroke:#000000"
     cx="330.87436"
     cy="191.37057"
     r="0.90038854" />
  <circle
     id="path4138"
     style="fill:#000000;stroke:#000000"
     cx="330.87436"
     cy="191.37057"
     r="0.90038854" />
  <circle
     id="path4140"
     style="fill:#000000;stroke:#000000"
     cx="343.39392"
     cy="180.63951"
     r="0.90038854" />
  <circle
     id="path4142"
     style="fill:#000000;stroke:#000000"
     cx="343.39392"
     cy="180.63951"
     r="0.90038854" />
  <circle
     id="path4144"
     style="fill:#000000;stroke:#000000"
     cx="343.39392"
     cy="180.63951"
     r="0.90038854" />
  <circle
     id="path4146"
     style="fill:#000000;stroke:#000000"
     cx="343.39392"
     cy="180.63951"
     r="0.90038854" />
  <circle
     id="path4148"
     style="fill:#000000;stroke:#000000"
     cx="388.10669"
     cy="202.10162"
     r="0.90038854" />
  <circle
     id="path4150"
     style="fill:#000000;stroke:#000000"
     cx="388.10669"
     cy="202.10162"
     r="0.90038854" />
  <circle
     id="path4152"
     style="fill:#000000;stroke:#000000"
     cx="262.91098"
     cy="193.15907"
     r="0.90038854" />
  <circle
     id="path4154"
     style="fill:#000000;stroke:#000000"
     cx="262.91098"
     cy="193.15907"
     r="0.90038854" />
  <circle
     id="path4156"
     style="fill:#000000;stroke:#000000"
     cx="239.66034"
     cy="200.31313"
     r="0.90038854" />
  <circle
     id="path4158"
     style="fill:#000000;stroke:#000000"
     cx="239.66034"
     cy="200.31313"
     r="0.90038854" />
  <circle
     id="path4160"
     style="fill:#000000;stroke:#000000"
     cx="250.3914"
     cy="180.63951"
     r="0.90038854" />
  <circle
     id="path4162"
     style="fill:#000000;stroke:#000000"
     cx="250.3914"
     cy="180.63951"
     r="0.90038854" />
  <circle
     id="path4164"
     style="fill:#000000;stroke:#000000"
     cx="237.87183"
     cy="182.42802"
     r="0.90038854" />
  <circle
     id="path4166"
     style="fill:#000000;stroke:#000000"
     cx="237.87183"
     cy="182.42802"
     r="0.90038854" />
  <circle
     id="path4168"
     style="fill:#000000;stroke:#000000"
     cx="221.77524"
     cy="109.09911"
     r="0.90038854" />
  <circle
     id="path4170"
     style="fill:#000000;stroke:#000000"
     cx="221.77524"
     cy="109.09911"
     r="0.90038854" />
  <circle
     id="path4172"
     style="fill:#000000;stroke:#000000"
     cx="307.62372"
     cy="80.482948"
     r="0.90038854" />
  <circle
     id="path4174"
     style="fill:#000000;stroke:#000000"
     cx="307.62372"
     cy="80.482948"
     r="0.90038854" />
  <circle
     id="path4176"
     style="fill:#000000;stroke:#000000"
     cx="327.29733"
     cy="85.84848"
     r="0.90038854" />
  <circle
     id="path4178"
     style="fill:#000000;stroke:#000000"
     cx="327.29733"
     cy="85.84848"
     r="0.90038854" />
  <circle
     id="path4180"
     style="fill:#000000;stroke:#000000"
     cx="325.50882"
     cy="119.83017"
     r="0.90038854" />
  <circle
     id="path4182"
     style="fill:#000000;stroke:#000000"
     cx="325.50882"
     cy="119.83017"
     r="0.90038854" />
  <circle
     id="path4184"
     style="fill:#000000;stroke:#000000"
     cx="341.60541"
     cy="109.09911"
     r="0.90038854" />
  <circle
     id="path4186"
     style="fill:#000000;stroke:#000000"
     cx="341.60541"
     cy="109.09911"
     r="0.90038854" />
  <circle
     id="path4188"
     style="fill:#000000;stroke:#000000"
     cx="329.08585"
     cy="107.3106"
     r="0.90038854" />
  <circle
     id="path4190"
     style="fill:#000000;stroke:#000000"
     cx="329.08585"
     cy="107.3106"
     r="0.90038854" />
  <circle
     id="path4192"
     style="fill:#000000;stroke:#000000"
     cx="370.22159"
     cy="98.36805"
     r="0.90038854" />
  <circle
     id="path4194"
     style="fill:#000000;stroke:#000000"
     cx="370.22159"
     cy="98.36805"
     r="0.90038854" />
  <circle
     id="path4196"
     style="fill:#000000;stroke:#000000"
     cx="373.79861"
     cy="110.88762"
     r="0.90038854" />
  <circle
     id="path4198"
     style="fill:#000000;stroke:#000000"
     cx="373.79861"
     cy="110.88762"
     r="0.90038854" />
  <circle
     id="path4200"
     style="fill:#000000;stroke:#000000"
     cx="364.85605"
     cy="107.3106"
     r="0.90038854" />
  <circle
     id="path4220"
     style="fill:#000000;stroke:#000000"
     cx="380.95264"
     cy="87.636993"
     r="0.90038854" />
  <circle
     id="path4222"
     style="fill:#000000;stroke:#000000"
     cx="380.95264"
     cy="87.636993"
     r="0.90038854" />
  <circle
     id="path4224"
     style="fill:#000000;stroke:#000000"
     cx="427.45389"
     cy="125.1957"
     r="0.90038854" />
  <circle
     id="path4226"
     style="fill:#000000;stroke:#000000"
     cx="427.45389"
     cy="125.1957"
     r="0.90038854" />
  <circle
     id="path4228"
     style="fill:#000000;stroke:#000000"
     cx="452.49304"
     cy="100.15656"
     r="0.90038854" />
  <circle
     id="path4230"
     style="fill:#000000;stroke:#000000"
     cx="452.49304"
     cy="100.15656"
     r="0.90038854" />
  <circle
     id="path4232"
     style="fill:#000000;stroke:#000000"
     cx="438.18497"
     cy="109.09911"
     r="0.90038854" />
  <circle
     id="path4234"
     style="fill:#000000;stroke:#000000"
     cx="438.18497"
     cy="109.09911"
     r="0.90038854" />
  <circle
     id="path4236"
     style="fill:#000000;stroke:#000000"
     cx="411.3573"
     cy="191.37057"
     r="0.90038854" />
  <circle
     id="path4238"
     style="fill:#000000;stroke:#000000"
     cx="411.3573"
     cy="191.37057"
     r="0.90038854" />
  <circle
     id="path4240"
     style="fill:#000000;stroke:#000000"
     cx="434.60794"
     cy="186.00504"
     r="0.90038854" />
  <circle
     id="path4242"
     style="fill:#000000;stroke:#000000"
     cx="434.60794"
     cy="186.00504"
     r="0.90038854" />
</svg>
