<?xml version="1.0" encoding="UTF-8" standalone="no"?>
<svg
   data-name="Layer 1"
   width="405.94938"
   height="611.97003"
   viewBox="0 0 405.94938 611.97003"
   version="1.1"
   id="svg3823"
   sodipodi:docname="non_contract.svg"
   inkscape:version="1.1.1 (3bf5ae0d25, 2021-09-20)"
   xmlns:inkscape="http://www.inkscape.org/namespaces/inkscape"
   xmlns:sodipodi="http://sodipodi.sourceforge.net/DTD/sodipodi-0.dtd"
   xmlns="http://www.w3.org/2000/svg"
   xmlns:svg="http://www.w3.org/2000/svg">
  <defs
     id="defs3827" />
  <sodipodi:namedview
     id="namedview3825"
     pagecolor="#ffffff"
     bordercolor="#666666"
     borderopacity="1.0"
     inkscape:pageshadow="2"
     inkscape:pageopacity="0.0"
     inkscape:pagecheckerboard="0"
     showgrid="false"
     inkscape:zoom="0.84971481"
     inkscape:cx="203.00929"
     inkscape:cy="306.57345"
     inkscape:window-width="1366"
     inkscape:window-height="705"
     inkscape:window-x="-8"
     inkscape:window-y="-8"
     inkscape:window-maximized="1"
     inkscape:current-layer="svg3823" />
  <path
     d="m 320.85937,483.43143 c -0.31,0.34371 -0.62,0.69723 -0.92,1.05076 a 117.72337,115.60732 0 0 0 -11.32,15.26068 c -0.27,0.41245 -0.53,0.83472 -0.77,1.24717 a 124.6175,122.37753 0 0 0 -15.89,42.26637 q -0.87,5.06725 -1.31,10.19342 -0.315,3.94774 -0.38,7.9053 c -0.16,11.07725 0.84,23.40166 -6.43,31.86672 a 22.68877,22.280945 0 0 1 -6.98,5.3815 29.17928,28.65479 0 0 1 -6.32,2.34704 h -22.67 c -1.14,-0.16694 -2.28,-0.34371 -3.42,-0.52047 -0.03,0 -0.06,-0.01 -0.09,-0.01 l -0.23,0.0786 -1.37,0.45173 -0.06,0.0196 v -0.0196 a 0.48639,0.47764727 0 0 0 -0.01,-0.11784 1.61779,1.5887106 0 0 0 -0.01,-0.21605 v -0.01 c -0.01,-0.1964 -0.02,-0.38299 -0.02,-0.57939 l -0.03,-0.52048 c 0,0 -0.01,-0.01 0,-0.01 -0.01,-0.29461 -0.03,-0.58921 -0.04,-0.89364 -1.05,-25.63086 1.51,-52.11608 13.83,-74.68302 a 84.97082,83.443492 0 0 1 16.12,-20.82876 1.1995,1.1779393 0 0 1 0.12006,-0.10802 c 12.81,-12.00035 29.37,-19.84673 46.85,-19.58158 q 0.67494,0 1.34994,0.0295 z"
     fill="#f0f0f0"
     id="path3754"
     style="fill:#b3b3b3;stroke-width:0.990972" />
  <path
     d="m 320.91013,483.98603 a 105.86966,103.96668 0 0 0 -45.99276,45.29623 45.591,44.771514 0 0 0 -4.6518,13.26316 26.14861,25.678596 0 0 0 1.70473,13.41043 c 1.57635,3.98653 3.65888,7.88504 4.221,12.17846 a 16.01084,15.723049 0 0 1 -3.9725,12.2526 c -3.63848,4.21219 -8.60119,6.88932 -13.547,9.3417 -5.49132,2.7229 -11.239,5.46571 -15.05166,10.38848 -0.462,0.59646 -1.37739,-0.14232 -0.91613,-0.73788 6.63334,-8.56479 18.316,-10.43283 26.2719,-17.39679 3.71239,-3.24952 6.45007,-7.61735 6.14123,-12.64833 -0.27006,-4.39938 -2.41409,-8.42137 -4.0457,-12.44423 a 27.9025,27.40096 0 0 1 -2.16435,-13.05152 42.14762,41.390028 0 0 1 4.11538,-13.38984 102.71225,100.86602 0 0 1 18.22871,-25.94979 107.74722,105.81049 0 0 1 29.24719,-21.60391 c 0.67678,-0.34076 1.08417,0.75264 0.41181,1.09123 z"
     fill="#ffffff"
     id="path3756"
     style="stroke-width:0.990972" />
  <path
     d="m 277.79459,522.82493 a 15.88383,15.598322 0 0 1 -5.29512,-19.51738 c 0.32973,-0.675 1.41333,-0.20354 1.08316,0.47235 a 14.70809,14.443716 0 0 0 4.96335,18.14536 c 0.62864,0.42364 -0.12635,1.32088 -0.75139,0.89966 z"
     fill="#ffffff"
     id="path3758"
     style="stroke-width:0.990972" />
  <path
     d="m 270.89994,554.03788 a 30.61479,30.064497 0 0 0 19.09926,-11.32552 c 0.46409,-0.59484 1.37967,0.14377 0.91614,0.73789 a 31.844,31.271612 0 0 1 -19.89891,11.7456 c -0.75324,0.12498 -0.86564,-1.03362 -0.11649,-1.15793 z"
     fill="#ffffff"
     id="path3760"
     style="stroke-width:0.990972" />
  <path
     d="m 300.29627,497.12907 a 8.991,8.8293891 0 0 0 8.10555,2.61393 c 0.75126,-0.13429 0.86286,1.02451 0.11649,1.15793 a 10.07517,9.8940715 0 0 1 -8.97344,-2.8722 0.61233,0.60132353 0 0 1 -0.0824,-0.81877 0.59543,0.5847273 0 0 1 0.83377,-0.0809 z"
     fill="#ffffff"
     id="path3762"
     style="stroke-width:0.990972" />
  <path
     d="m 376.06937,554.49077 c -0.46,0.0982 -0.92,0.19641 -1.39,0.30443 h -0.01 a 119.08031,116.93987 0 0 0 -18.38,5.4797 c -0.46,0.17677 -0.92,0.35353 -1.37994,0.54012 h -0.01 a 124.76367,122.52108 0 0 0 -38.44,24.23638 c -0.04,0.0393 -0.08,0.0687 -0.12,0.10802 a 0.60671,0.59580455 0 0 1 -0.08,0.0786 l -0.05,0.0491 a 121.67548,119.4884 0 0 0 -12.31,13.31626 c 0,0.01 -0.01,0.0196 -0.02,0.0295 -0.6,0.76598 -1.21,1.53196 -1.81,2.31758 h -59.31006 l -0.06,0.0196 v -0.0196 h -0.25 c 0,-0.01 0.01,-0.0196 0.02,-0.0295 0,-0.01 0.01,-0.01 0.01,-0.0196 0.07,-0.0982 0.14,-0.19641 0.2,-0.28479 v -0.01 a 0.27681,0.27183441 0 0 1 0.06,-0.0786 c 0.06,-0.0982 0.13,-0.17677 0.18,-0.26515 0.4,-0.54993 0.79,-1.10969 1.19,-1.65962 0.65,-0.91328 1.31,-1.82657 1.98,-2.73003 a 0.00979,0.00961403 0 0 1 0.01,-0.01 v -0.01 c 0.01,-0.01 0.01,-0.0196 0.02,-0.0295 l 0.02,-0.0196 c 8.25,-11.21473 17.53,-21.85989 28.16,-30.77667 0.32,-0.27497 0.64,-0.54994 0.98,-0.80527 a 114.81692,112.75312 0 0 1 15.37,-10.77281 q 4.43994,-2.57782 9.15,-4.73336 a 85.12642,83.596295 0 0 1 25.59,-7.09023 h 0.02 c 0.02,0 0.04,-0.01 0.0699,-0.01 0.03,0 0.05,-0.01 0.07,-0.01 17.61005,-2.00333 35.66,1.52214 49.47,12.06909 0.36005,0.27497 0.70005,0.54012 1.05005,0.81508 z"
     fill="#f0f0f0"
     id="path3764"
     style="stroke-width:0.990972" />
  <path
     d="m 242.44937,600.95039 h 0.25 v 0.0196 l 0.06,-0.0196 h 15.87 c -4.73,-0.79544 -9.45,-1.41412 -14.18,-0.52047 -0.11,0.0196 -0.21,0.0393 -0.32,0.0687 -0.48,0.0884 -0.96,0.20622 -1.44,0.33389 -0.03,0.01 -0.07,0.0196 -0.1,0.0295 a 0.33794,0.33186562 0 0 0 -0.12,0.0589 0.14932,0.14663601 0 0 0 -0.07,0.0295 z"
     fill="#ffffff"
     id="path3766"
     style="stroke-width:0.990972" />
  <path
     d="m 375.77937,554.97197 c -0.37,-0.0589 -0.73,-0.12767 -1.1,-0.17677 h -0.01 a 105.41223,103.51747 0 0 0 -23.35,-1.15879 c -0.39,0.0196 -0.79,0.0491 -1.19,0.0687 a 105.32715,103.43392 0 0 0 -31.57,7.06077 c -0.01,0 -0.01,0 -0.01,0.01 -0.11,0.0393 -0.22,0.0786 -0.32,0.11784 -2.35,0.93292 -4.67,1.95423 -6.94,3.0541 a 45.70616,44.884604 0 0 0 -11.85,7.83656 25.47878,25.020806 0 0 0 -6.21,9.71223 c -0.13,0.37317 -0.26,0.73652 -0.38,1.10969 -0.09,0.29461 -0.18,0.59903 -0.27,0.89364 -1.18,4.11469 -1.91,8.45524 -4.09,12.21639 a 14.64929,14.385973 0 0 1 -2.2,2.88716 15.12454,14.85268 0 0 1 -2.96,2.34704 h -2.52 a 14.53172,14.270516 0 0 0 3.79,-2.34704 12.545,12.319507 0 0 0 2.29,-2.56309 c 2.48,-3.67277 3.24,-8.15081 4.4,-12.32441 0.19,-0.6776 0.39,-1.33556 0.61005,-1.99352 a 26.6481,26.169107 0 0 1 5.67,-9.71218 42.17887,41.420716 0 0 1 11.49,-8.25883 q 4.05,-2.09171 8.32,-3.79062 c 0.37,-0.15712 0.74,-0.2946 1.11,-0.43209 a 108.07871,106.13602 0 0 1 56.53,-5.85287 c 0.37,0.0491 0.73,0.11785 1.1,0.17677 0.74995,0.12761 0.40995,1.24712 -0.34005,1.11946 z"
     fill="#ffffff"
     id="path3768"
     style="stroke-width:0.990972" />
  <path
     d="m 317.5448,560.48839 a 15.88384,15.598332 0 0 1 7.738,-18.71426 c 0.67711,-0.344 1.25325,0.67312 0.57524,1.01757 a 14.70809,14.443716 0 0 0 -7.16167,17.42261 c 0.2422,0.70994 -0.91071,0.97995 -1.15152,0.27408 z"
     fill="#ffffff"
     id="path3770"
     style="stroke-width:0.990972" />
  <path
     d="m 292.90349,581.33374 a 30.6148,30.064507 0 0 0 22.19327,2.24955 c 0.73524,-0.20055 1.01344,0.93052 0.27909,1.13082 a 31.844,31.271612 0 0 1 -23.08926,-2.38696 c -0.67805,-0.34556 -0.0575,-1.3371 0.6169,-0.99341 z"
     fill="#ffffff"
     id="path3772"
     style="stroke-width:0.990972" />
  <path
     d="m 351.26499,553.27572 a 8.991,8.8293891 0 0 0 4.86925,6.87947 c 0.68217,0.33696 0.0608,1.32817 -0.6169,0.99341 a 10.07517,9.8940715 0 0 1 -5.40388,-7.5988 0.61235,0.60134317 0 0 1 0.43622,-0.70245 0.59544,0.58473712 0 0 1 0.71531,0.42837 z"
     fill="#ffffff"
     id="path3774"
     style="stroke-width:0.990972" />
  <path
     d="m 317.06937,163.30101 q 0.405,-48.77234 4.04,-98.487313 c 0.04,-0.657957 0.09,-1.306093 0.14,-1.96405 q 1.92,-25.881276 4.7,-51.949137 v -0.0982 a 11.00657,10.80873 0 0 0 -11,-10.802278 h -295 a 11.02189,10.823774 0 0 0 -11,10.753177 q -3.84,35.897933 -6.02,71.442337 c -0.06,0.7758 -0.1,1.54178 -0.14,2.31758 q -1.08,17.573344 -1.72,35.058304 c -0.03,0.68741 -0.06,1.37483 -0.07,2.06225 a 1478.8856,1452.303 0 0 0 7.95,214.27791 11.01977,10.821693 0 0 0 11,10.74336 h 295 a 11.00658,10.80874 0 0 0 11,-10.80228 v -0.10802 q -2.175,-18.958 -3.82,-38.1615 -0.24,-2.81357 -0.47,-5.62701 -1.14,-13.83183 -1.99,-27.77167 -0.18,-2.81351 -0.33,-5.62701 -1.605,-27.89934 -2.1,-56.23077 c -0.04,-1.87566 -0.07,-3.74151 -0.1,-5.627 q -0.18,-13.83183 -0.11,-27.77167 c 0,-1.87567 0.01,-3.75134 0.04,-5.62701 z"
     fill="#f0f0f0"
     id="path3776"
     style="fill:#e6e6e6;stroke-width:0.990972" />
  <path
     d="m 405.94937,73.651925 a 11.00657,10.80873 0 0 0 -11,-10.802278 h -295 a 11.02189,10.823774 0 0 0 -11,10.753176 c -9.96,93.262937 -11.61,184.876077 -4.94,273.052127 q 1.215,16.36551 2.84,32.56396 0.87,8.67619 1.85,17.30328 c 0.08,0.74634 0.16,1.49268 0.25,2.23902 a 11.01977,10.821693 0 0 0 11,10.74335 h 295 a 11.00658,10.80874 0 0 0 11,-10.80227 v -0.10803 c -11.93,-103.86881 -11.93,-213.1584 0,-324.844133 z"
     fill="#fff"
     id="path3778"
     style="fill:#ffffff;stroke-width:0.990972" />
  <path
     d="m 405.94937,73.651925 a 11.00657,10.80873 0 0 0 -11,-10.802278 h -295 a 11.02189,10.823774 0 0 0 -11,10.753176 c -9.96,93.262937 -11.61,184.876077 -4.94,273.052127 q 1.215,16.36551 2.84,32.56396 0.87,8.67619 1.85,17.30328 c 0.08,0.74634 0.16,1.49268 0.25,2.23902 a 11.01977,10.821693 0 0 0 11,10.74335 h 295 a 11.00658,10.80874 0 0 0 11,-10.80227 v -0.10803 c -11.93,-103.86881 -11.93,-213.1584 0,-324.844133 z m -2,325.109285 a 9.0075,8.8455926 0 0 1 -9,8.7793 h -295 a 9.01353,8.8515142 0 0 1 -9,-8.83822 v -0.10803 c -0.07,-0.62849 -0.14,-1.26681 -0.21,-1.8953 q -1.035,-9.015 -1.93,-18.07909 -1.575,-15.89408 -2.79,-31.96492 c -6.67,-88.12695 -5.03,-179.68116 4.93,-272.904823 v -0.0982 a 9.01357,8.8515534 0 0 1 9,-8.838228 h 295 a 9.00308,8.841252 0 0 1 9,8.789126 c -11.93,111.774115 -11.93,221.181545 0,325.158385 z"
     fill="#e4e4e4"
     id="path3780"
     style="stroke-width:0.990972" />
  <path
     id="a974c3de-8d03-408b-a459-3ce6ba461bdb-174"
     data-name="Path 142"
     d="m 120.28347,163.30129 a 2.86635,2.8148281 0 0 0 0,5.62963 h 239.73116 a 2.86635,2.8148281 0 0 0 0,-5.62963 z"
     fill="#e6e6e6"
     style="stroke-width:0.990972" />
  <path
     id="e9133026-9528-4ac3-aa69-83f109aff1e3-175"
     data-name="Path 143"
     d="m 120.28347,180.19185 a 2.86635,2.8148281 0 0 0 0,5.62964 h 162.7447 a 2.86635,2.8148281 0 0 0 0,-5.62964 z"
     fill="#e6e6e6"
     style="stroke-width:0.990972" />
  <path
     id="a406ca83-8296-4426-a4ed-8cd27cbcb96b-176"
     data-name="Path 142"
     d="m 120.28347,196.70017 a 2.86635,2.8148281 0 0 0 0,5.62965 h 239.73116 a 2.86635,2.8148281 0 0 0 0,-5.62965 z"
     fill="#e6e6e6"
     style="stroke-width:0.990972" />
  <path
     id="be321b5a-3e39-41eb-b9b2-711d73db0143-177"
     data-name="Path 143"
     d="m 120.28347,213.59069 a 2.86635,2.8148281 0 0 0 0,5.62964 h 162.7447 a 2.86635,2.8148281 0 0 0 0,-5.62964 z"
     fill="#e6e6e6"
     style="stroke-width:0.990972" />
  <path
     id="a5a7e885-834f-470d-9162-1a1fa51c1163-178"
     data-name="Path 142"
     d="m 120.28347,258.55774 a 2.86635,2.8148281 0 0 0 0,5.62963 h 239.73116 a 2.86635,2.8148281 0 0 0 0,-5.62963 z"
     fill="#e6e6e6"
     style="stroke-width:0.990972" />
  <path
     id="a5fcdb43-4805-483f-9462-6a7e4850dca6-179"
     data-name="Path 143"
     d="m 120.28347,275.4483 a 2.86635,2.8148281 0 0 0 0,5.62964 h 162.7447 a 2.86635,2.8148281 0 0 0 0,-5.62964 z"
     fill="#e6e6e6"
     style="stroke-width:0.990972" />
  <path
     id="b765b6a8-7afa-43c2-95d1-39dcbde99f83-180"
     data-name="Path 142"
     d="m 120.28347,291.95662 a 2.86635,2.8148281 0 0 0 0,5.62965 h 239.73116 a 2.86635,2.8148281 0 0 0 0,-5.62965 z"
     fill="#e6e6e6"
     style="stroke-width:0.990972" />
  <path
     id="e421dd9d-74a5-4920-9c7d-c121b8cd01e8-181"
     data-name="Path 143"
     d="m 120.28347,308.84714 a 2.86635,2.8148281 0 0 0 0,5.62964 h 162.7447 a 2.86635,2.8148281 0 0 0 0,-5.62964 z"
     fill="#e6e6e6"
     style="stroke-width:0.990972" />
  <path
     id="ea3081fc-4e36-4189-92a3-e6d1b5b4a040-182"
     data-name="Path 154"
     d="m 167.71724,128.35066 h -45.788 a 2.23937,2.1991179 0 0 1 -2.23686,-2.19665 v -7.20431 a 2.23938,2.1991277 0 0 1 2.23686,-2.19666 h 45.788 a 2.23937,2.1991179 0 0 1 2.23686,2.19666 v 7.20431 a 2.23937,2.1991179 0 0 1 -2.23686,2.19665 z"
     fill="#73ff63"
     style="stroke-width:0.990972" />
  <path
     d="m 326.78511,360.08548 -14.02509,4.55169 q -3.50626,1.13791 -7.01254,2.27582 c -2.165,0.70001 -4.50763,1.53262 -6.82505,1.23154 -1.60173,-0.2081 -3.42762,-1.11338 -3.92664,-2.73166 -0.47217,-1.53124 0.52889,-3.13319 1.74121,-4.0389 3.34693,-2.50039 7.57888,0.0447 9.95021,2.63386 2.90077,3.16729 4.54236,7.25586 7.26273,10.5711 a 25.91183,25.446072 0 0 0 8.9848,7.02663 c 6.94111,3.21861 15.40765,2.87658 21.59881,-1.81344 7.39283,-5.60031 8.1469,-15.30647 8.18623,-23.77483 a 1.5009,1.4739217 0 0 0 -3,0 c -0.0356,7.67484 -0.48018,17.08291 -7.606,21.88517 -6.82609,4.60023 -15.79715,3.38013 -22.08155,-1.52137 -3.502,-2.73135 -5.65633,-6.293 -7.95574,-9.98114 -2.24445,-3.59999 -5.03132,-7.09022 -9.25516,-8.49019 a 8.36411,8.2137673 0 0 0 -9.986,3.42393 6.34658,6.2325019 0 0 0 2.93421,8.90294 c 4.89777,2.29189 10.50083,-0.39364 15.21683,-1.92416 l 16.59636,-5.3861 c 1.82454,-0.59216 1.043,-3.43814 -0.79752,-2.84084 z"
     fill="#73ff63"
     id="path3791"
     style="stroke-width:0.990972" />
  <polygon
     points="275.389,590.416 258.211,554.026 272.726,549.244 285.224,587.176 "
     fill="#9f616a"
     id="polygon3793"
     transform="scale(1,0.98202526)" />
  <path
     d="m 292.23937,584.73715 -0.67,-1.99351 -1.76,-5.25383 -1.2,-3.57453 -3.28,1.06059 -0.68,-0.0491 -9.01,-0.59904 -1.2,-0.0786 -1.78,-0.11784 -1.84,-0.12766 -5.14,7.33572 h -0.01 a 15.25721,14.982966 0 0 0 -8.92,7.54196 c -0.11,0.21604 -0.21,0.43209 -0.31,0.64813 a 12.84856,12.617611 0 0 0 -0.63,1.63017 15.21387,14.940405 0 0 0 -0.42,7.4437 17.39516,17.082487 0 0 0 0.49,1.81675 l 0.03,0.0982 0.12,0.36335 0.72,-0.23569 6.32,-2.04261 22.14,-7.15897 4.38995,-1.42393 1.35,-0.44191 h 0.01 l 2.62,-0.84454 z"
     fill="#2f2e41"
     id="path3795"
     style="stroke-width:0.990972" />
  <polygon
     points="181.65,595.73 176.724,555.792 192.006,555.793 192.004,595.731 "
     fill="#9f616a"
     id="polygon3797"
     transform="scale(1,0.98202526)" />
  <path
     d="m 175.43381,413.0914 -4.59012,7.79736 c 0,0 -5.04361,1.35285 -3.39526,17.49835 1.16394,11.40067 1.54142,62.44666 4.4719,95.60899 1.21963,13.80179 2.88147,24.5059 5.22627,27.96514 l 1.44353,1.26966 15.06687,1.41393 0.37991,-0.13049 5.53277,-38.37399 a 65.654,64.473887 0 0 0 -0.44031,-20.7312 v 0 l -1,-10.80228 13.8729,-54.69611 c 0,0 14.1271,35.05561 23.1271,68.44447 2.1665,8.03744 10.39581,13.14904 13.51577,20.046 1.04534,2.31081 2.07242,4.54987 3.07449,6.69818 6.59899,14.14735 9.90674,24.44725 12.40974,25.30316 h 2 l 12,-3.9281 2.3606,-5.82843 -18.3606,-53.09309 -13.74915,-85.72534 c -26.19732,-13.83292 -50.7716,-15.37201 -72.94641,1.26379 z"
     fill="#2f2e41"
     id="path3799"
     style="stroke-width:0.990972" />
  <path
     d="m 250.47937,297.58315 a 40.79027,40.057076 0 0 0 -3.18,-5.62701 29.45877,28.929256 0 0 0 -11.17,-10.02648 l -3.94,-0.85436 -7.06,-1.53196 -3.72,-4.09504 -6.1,-6.70724 h -21 l -2.81,6.70724 -2.36,5.627 -1.01,2.39614 -17.98,8.82841 c -0.01,0 -0.01,0 -0.02,0.01 q 0.36,2.65147 0.71,5.27348 0.76492,5.70065 1.44,11.26383 0.345,2.82829 0.66,5.627 1.005,8.77925 1.73,17.25418 0.645,7.57136 1.03,14.92679 a 334.12564,328.11982 0 0 1 0.14,33.43796 c -0.14,2.62201 2.51,5.60736 2.3,8.17045 -0.35,4.18343 -3.64,7.89548 -4.22,11.89237 -0.36,2.45507 -0.2,5.06725 -0.83,7.38483 a 8.41131,8.2601189 0 0 1 -0.78,1.94441 c 0,0.01 -0.01,0.01 -0.01,0.0196 -7.2,12.62885 -1.55,6.59921 -2.22,9.43727 l 0.32,0.0786 c 0.15,0.0393 0.61,0.15712 1.35,0.32407 4.23,0.99179 21.67,-15.08396 33.38,-15.08396 7.03,0 25.64,11.35221 31.87,12.17711 4.93,0.64814 9.33,1.23735 11.95,-1.03112 a 6.12509,6.0149931 0 0 0 1.69,-2.43543 l 0.03,-0.0884 -0.01,-0.0884 -0.25,-3.28979 -0.15,-1.96405 -2.14,-28.18412 a 10.17472,9.9918321 0 0 1 -1.3,-10.49785 l 0.44,-0.91333 -1.62,-21.29031 -0.3,-3.9772 -0.11,-1.34538 v -0.01 l -0.78,-10.2818 1.88,-5.61719 v -0.01 l 3.66,-10.93971 1.88,-5.627 1.18,-3.5353 0.08,-0.23568 a 40.93176,40.196022 0 0 0 -2.65,-7.49285 z"
     fill="#73ff63"
     id="path3801"
     style="stroke-width:0.990972" />
  <path
     d="m 268.72296,399.13386 -20.15971,-51.16536 -9.36331,-18.68303 18.005,-9.76789 14.50089,25.09003 9.72047,52.42171 a 9.29014,9.1231522 0 1 1 -12.7033,2.10454 z"
     fill="#9f616a"
     id="path3803"
     style="stroke-width:0.990972" />
  <path
     d="m 269.12937,328.6446 -5.16,-3.27996 -5.93,-10.89066 -3.06,-5.627 -1.93,-3.5353 -0.82,-1.51231 -9.27,-6.21622 -6.26,-4.20307 -5.1,4.20307 -2.43,2.00333 2.38,9.2605 1.44,5.627 3.14,12.20657 9.21,15.9972 2.29,3.9772 1.31,2.28812 0.01,0.0196 0.18,0.30442 23.27,-0.95256 0.73,-0.0295 0.04,-1.63016 0.02,-0.58922 c 0.01,-0.29461 0.01,-0.58921 0.01,-0.88382 a 36.95469,36.290439 0 0 0 -4.07,-16.53731 z"
     fill="#73ff63"
     id="path3805"
     style="stroke-width:0.990972" />
  <path
     d="m 93.00416,378.78604 41.241,-37.00816 14.333,-15.34565 15.80017,12.93405 -18.54935,22.37127 -46.21986,27.91046 a 9.29014,9.1231522 0 1 1 -6.605,-10.86198 z"
     fill="#9f616a"
     id="path3807"
     style="stroke-width:0.990972" />
  <path
     d="m 178.13937,314.47398 -0.08,-5.627 -0.15,-11.26383 -0.0601,-4.37002 -0.17,-0.11784 a 7.51537,7.3802832 0 0 0 -3.09,-1.13915 8.95876,8.7977286 0 0 0 -2.93,0 10.47433,10.286057 0 0 0 -1.51,0.34371 c -0.01,0 -0.01,0 -0.02,0.01 a 17.29848,16.987544 0 0 0 -7.57,5.26366 l -0.01,0.01 a 74.68164,73.339257 0 0 0 -7.94,11.26383 c -1.13,1.88548 -2.21,3.79061 -3.22,5.627 -3.82,6.9822 -6.57,13.03148 -6.62,13.1395 l -11.42,14.56343 0.16,0.26515 2.51,4.21289 9.2,15.44726 1.46,2.45506 3.73,-1.95423 a 21.68709,21.29727 0 0 0 9.72006,-10.38983 l 1.33,-4.98869 0.49,-0.56957 12.72,-14.92679 3.64,-4.28163 z"
     fill="#73ff63"
     id="path3809"
     style="stroke-width:0.990972" />
  <circle
     cx="-211.52318"
     cy="240.2016"
     transform="matrix(0.1630372,-0.98661992,0.98753888,0.15737522,0,0)"
     fill="#9f616a"
     id="circle3811"
     rx="18.913662"
     ry="19.24193"
     style="stroke-width:0.99098" />
  <path
     d="m 184.11312,234.1016 c -0.85566,-2.94074 -2.56676,-5.46136 -1.71118,-5.46136 0.85558,0 1.28338,-2.10055 1.28338,-2.10055 0,0 0.85557,-0.4201 1.28338,0 0.42781,0.4201 0.85557,-2.94073 0.85557,-2.94073 0,0 0.42781,-1.26031 0.85557,-0.4201 0.42776,0.84021 0.42781,0.4201 0.85558,-0.84021 0.42777,-1.26031 2.56689,-2.10055 2.56689,-2.10055 0,0 8.12809,0.4201 9.41147,-1.26031 1.28338,-1.68041 15.82838,-0.42011 18.82295,1.68041 2.99457,2.10052 14.79264,5.85578 7.79264,17.64008 4,6.87418 -1.97173,19.13476 -3.51473,20.58951 -2.43993,2.3003 -4.12908,3.12971 -15.67422,5.38567 -2.25944,0.4415 -7.81105,-18.11898 -7.81105,-18.11898 0,0 -14.16059,-9.11215 -15.01625,-12.05288 z"
     fill="#2f2e41"
     id="path3813"
     style="stroke-width:0.990972" />
  <path
     d="m 192.62937,583.48998 -0.62,-0.24551 -11.14,-4.45839 -1.71,-0.6776 -7.22,5.3815 h -0.01 a 15.39806,15.121284 0 0 0 -15.38,15.11337 v 0.49101 h 39.53 v -15.60438 z"
     fill="#2f2e41"
     id="path3815"
     style="stroke-width:0.990972" />
  <path
     d="m 308.81937,599.77196 a 1.195,1.1735202 0 0 1 -1.19,1.17843 h -203.3 a 1.195,1.1735202 0 0 1 0,-2.34704 h 203.3 a 1.19289,1.1714481 0 0 1 1.19,1.16861 z"
     fill="#cccccc"
     id="path3817"
     style="stroke-width:0.990972" />
  <path
     d="m 98.92937,3e-5 a 134.27434,131.86079 0 0 1 -97.86,119.5714 c -0.03,0.68741 -0.06,1.37483 -0.07,2.06225 A 136.28889,133.83913 0 0 0 100.92937,3e-5 Z"
     fill="#ffffff"
     id="path3819"
     style="stroke-width:0.990972" />
  <path
     d="m 68.29937,3e-5 a 134.55148,132.13295 0 0 1 -65.37,82.195514 c -0.06,0.7758 -0.1,1.54178 -0.14,2.31758 A 136.62309,134.16733 0 0 0 70.36937,3e-5 Z"
     fill="#ffffff"
     id="path3821"
     style="stroke-width:0.990972" />
</svg>
