<?xml version="1.0" encoding="UTF-8" standalone="no"?>
<svg
   data-name="Layer 1"
   width="888"
   height="769.42842"
   viewBox="0 0 888 769.42842"
   version="1.1"
   id="svg1071"
   sodipodi:docname="profile.svg"
   inkscape:version="1.1.1 (3bf5ae0d25, 2021-09-20)"
   xmlns:inkscape="http://www.inkscape.org/namespaces/inkscape"
   xmlns:sodipodi="http://sodipodi.sourceforge.net/DTD/sodipodi-0.dtd"
   xmlns="http://www.w3.org/2000/svg"
   xmlns:svg="http://www.w3.org/2000/svg"
   xmlns:rdf="http://www.w3.org/1999/02/22-rdf-syntax-ns#"
   xmlns:cc="http://creativecommons.org/ns#"
   xmlns:dc="http://purl.org/dc/elements/1.1/">
  <defs
     id="defs1075" />
  <sodipodi:namedview
     id="namedview1073"
     pagecolor="#ffffff"
     bordercolor="#666666"
     borderopacity="1.0"
     inkscape:pageshadow="2"
     inkscape:pageopacity="0.0"
     inkscape:pagecheckerboard="0"
     showgrid="false"
     inkscape:zoom="0.67582636"
     inkscape:cx="533.42104"
     inkscape:cy="370.65734"
     inkscape:window-width="1366"
     inkscape:window-height="705"
     inkscape:window-x="-8"
     inkscape:window-y="-8"
     inkscape:window-maximized="1"
     inkscape:current-layer="svg1071" />
  <title
     id="title989">proud_self</title>
  <path
     d="m 49.23105,739.05871 c 0,0 -14.40196,-25.8818 -49.23105,-14.69037 z"
     fill="#e6e6e6"
     id="path991"
     style="stroke-width:0.98672" />
  <path
     d="m 50.09945,738.42625 c 0,0 -17.81085,-22.04205 7.8964,-49.5398 z"
     fill="#e6e6e6"
     id="path993"
     style="stroke-width:0.98672" />
  <rect
     y="737.42847"
     width="888"
     height="1.9472324"
     fill="#3f3d56"
     id="rect995"
     x="0"
     style="stroke-width:0.98672" />
  <path
     d="m 673.87192,499.50648 19.22716,72.79951 c 0,0 0.71212,51.30633 4.98482,71.41287 4.2727,20.10654 18.515,68.63955 18.515,68.63955 l 17.09081,2.77332 -3.56058,-67.94622 c 0,0 0,-40.90639 -3.56059,-49.91968 -3.56059,-9.01327 -10.68175,-101.226 -10.68175,-101.226 z"
     fill="#fbbebe"
     id="path997"
     style="stroke-width:0.98672" />
  <path
     d="m 672.87192,494.6384 19.22716,72.79951 c 0,0 0.71212,51.30633 4.98482,71.41288 4.2727,20.10653 18.515,68.63954 18.515,68.63954 l 17.09081,2.77332 -3.56058,-67.94622 c 0,0 0,-40.9064 -3.56059,-49.91967 -3.56059,-9.01329 -10.68175,-101.22601 -10.68175,-101.22601 z"
     opacity="0.1"
     id="path999"
     style="stroke-width:0.98672" />
  <path
     d="m 727.17876,194.37531 h -6e-5 c -23.737,0 -42.97956,20.79165 -42.97956,46.43941 v 32.58577 h 10.29347 l 5.95933,-12.07327 -1.48985,12.07327 h 66.16248 l 5.41758,-10.97571 -1.35438,10.97571 h 7.44923 v -25.58565 c 0,-29.51381 -22.14324,-53.43953 -49.45824,-53.43953 z"
     fill="#2f2e41"
     id="path1001"
     style="stroke-width:0.98672" />
  <path
     d="m 655.71293,488.06657 c 0,0 -8.5454,35.35979 2.84847,38.8264 11.39387,3.46661 8.5454,-38.8264 8.5454,-38.8264 z"
     fill="#fbbebe"
     id="path1003"
     style="stroke-width:0.98672" />
  <polygon
     points="681.349,507.702 695.591,390.202 691.319,330.384 669.955,316.854 664.258,323.263 665.683,446.46 652.864,504.853 "
     fill="#d0cde1"
     id="polygon1005"
     transform="scale(1,0.97361619)" />
  <polygon
     points="681.091,507.702 695.333,390.202 691.06,330.384 669.697,316.854 664,323.263 665.424,446.46 652.606,504.853 "
     opacity="0.1"
     id="polygon1007"
     transform="scale(1,0.97361619)" />
  <circle
     cx="723.37604"
     cy="239.05734"
     fill="#fbbebe"
     id="circle1009"
     rx="30.597099"
     ry="29.789831"
     style="stroke-width:0.98672" />
  <path
     d="m 705.83371,256.93123 c 0,0 8.97515,45.28055 4.89554,50.04691 -4.07961,4.76637 43.2439,-8.73835 43.2439,-8.73835 0,0 -15.50253,-30.98145 -7.34331,-48.45812 z"
     fill="#fbbebe"
     id="path1011"
     style="stroke-width:0.98672" />
  <path
     d="m 783.18189,455.48012 c 0,0 8.54541,35.35978 -2.84847,38.8264 -11.39388,3.46661 -8.5454,-38.8264 -8.5454,-38.8264 z"
     fill="#fbbebe"
     id="path1013"
     style="stroke-width:0.98672" />
  <path
     d="m 717.31106,491.18654 c 0,0 -12.106,70.71953 -11.39387,81.11945 0.71213,10.39993 0,11.78661 0,11.78661 0,0 -12.106,30.50647 -15.66658,47.83968 -3.56058,17.33321 -11.39387,39.51975 -11.39387,39.51975 0,0 -9.25753,20.10652 -1.42424,20.10652 7.83329,0 18.515,-2.77332 18.515,-2.77332 a 36.36659,35.407101 0 0 1 7.83329,-22.07313 c 8.5454,-10.51332 34.18162,-59.73965 34.18162,-65.9796 0,-6.23996 4.2727,-24.26651 4.2727,-24.26651 l 16.37869,-76.9595 z"
     fill="#fbbebe"
     id="path1015"
     style="stroke-width:0.98672" />
  <path
     d="m 667.46286,444.04019 c 0,0 -12.106,59.62626 -1.42423,61.01293 10.68177,1.38666 25.63621,-9.01329 44.86338,2.77331 19.22717,11.78659 51.27243,9.01329 51.27243,9.01329 0,0 22.07563,-54.77298 2.13635,-67.94623 -19.93928,-13.17324 -96.84793,-4.8533 -96.84793,-4.8533 z"
     fill="#2f2e41"
     id="path1017"
     style="stroke-width:0.98672;fill:#e3dbdb" />
  <path
     d="m 680.99309,683.2386 a 18.96893,18.468459 0 0 1 9.96964,-1.38665 13.00477,12.661655 0 0 0 9.25752,-2.07999 c 0,0 -5.69694,20.10652 -4.98482,27.73315 0.71212,7.62662 -2.13635,40.21307 -17.09081,36.74642 -14.95446,-3.46664 -19.22716,-13.86658 -13.53023,-31.89312 5.69693,-18.02655 4.27271,-38.82641 4.27271,-38.82641 0,0 10.39292,-10.45177 12.31763,-9.0392 1.92471,1.41255 -0.21164,18.7458 -0.21164,18.7458 z"
     fill="#2f2e41"
     id="path1019"
     style="stroke-width:0.98672" />
  <path
     d="m 728.70493,708.89177 c 0,0 -7.12117,-15.25323 -15.66657,-1.38666 -8.5454,13.86656 -9.25752,17.33322 -9.25752,17.33322 0,0 -24.212,21.49319 -7.12118,23.57319 17.09082,2.08002 30.621,-0.69332 30.621,-4.15997 0,-3.46664 8.5454,-2.77331 9.25752,-5.54663 0.71212,-2.77332 -1.42423,-28.42648 -1.42423,-28.42648 z"
     fill="#2f2e41"
     id="path1021"
     style="stroke-width:0.98672" />
  <path
     d="m 744.72758,280.06793 v 0 c 0,0 -29.90892,5.54662 -33.4695,4.85332 a 17.67468,17.208355 0 0 0 -2.42731,-0.25063 35.98843,35.038919 0 0 0 -19.87738,4.79932 c -9.91657,5.60838 -24.69505,15.58948 -24.69505,25.26443 0,14.5599 19.22716,39.51974 19.22716,39.51974 0,0 -17.80293,59.62626 -16.3787,65.17289 1.42423,5.54663 -10.68175,24.26651 -2.84846,30.50648 7.83329,6.23996 82.60558,0 96.1358,6.2399 13.53022,6.23991 7.12118,-83.1994 7.12118,-83.1994 0,0 36.318,-81.11946 17.80292,-88.74608 -5.99113,-2.46784 -11.16208,-4.35492 -15.41633,-5.77869 a 32.58858,31.72877 0 0 0 -25.17433,1.61872 z"
     fill="#d0cde1"
     id="path1023"
     style="stroke-width:0.98672;fill:#4d4d4d" />
  <path
     d="m 772.50014,278.59672 16.33992,2.72435 c 0,0 7.15994,7.3341 7.15994,10.92642 0,3.59228 -1.42423,158.78011 -3.56059,163.80936 -2.13636,5.02923 -25.63621,2.87384 -25.63621,2.87384 l 4.2727,-88.37084 z"
     fill="#d0cde1"
     id="path1025"
     style="stroke-width:1.00445" />
  <path
     d="m 739.39707,207.16783 a 22.54075,21.946038 0 0 0 -17.78531,-8.83654 H 720.768 c -16.26936,0 -29.45821,14.33347 -29.45821,32.01473 v 7e-5 h 5.45143 l 0.8804,-6.52443 1.29083,6.52443 h 32.33213 l 2.70882,-5.51979 -0.67722,5.51979 h 6.36065 q 4.45215,21.5272 -12.794,43.05438 H 737.698 l 5.41758,-11.03957 -1.35438,11.03957 h 20.65458 l 4.0632,-25.39111 c 2e-5,-19.01561 -11.34805,-35.14041 -27.08191,-40.84153 z"
     fill="#2f2e41"
     id="path1027"
     style="stroke-width:0.98672" />
  <circle
     cx="745.33557"
     cy="194.16838"
     fill="#2f2e41"
     id="circle1029"
     rx="16.097839"
     ry="15.673117"
     style="stroke-width:0.98672" />
  <path
     d="m 563.68725,175.48791 h -4.16748 V 64.333326 A 66.0766,64.333248 0 0 0 493.443,0 H 251.56544 A 66.07661,64.333258 0 0 0 185.48863,64.333326 V 674.13604 a 66.07661,64.333258 0 0 0 66.07681,64.33332 H 493.443 a 66.0766,64.333248 0 0 0 66.0768,-64.33332 V 254.6096 h 4.16748 z"
     fill="#3f3d56"
     id="path1031"
     style="stroke-width:0.98672" />
  <path
     d="m 496.10921,16.7373 h -31.573 A 23.44384,22.825302 0 0 1 442.83042,48.183155 H 304.26173 A 23.44384,22.825302 0 0 1 282.55595,16.7373 H 253.06667 A 49.34527,48.043355 0 0 0 203.72133,64.780604 V 673.68871 a 49.34529,48.043374 0 0 0 49.34534,48.04335 h 243.04254 a 49.3453,48.043384 0 0 0 49.34535,-48.04335 V 64.780604 A 49.34528,48.043364 0 0 0 496.10921,16.7373 Z"
     opacity="0.2"
     id="path1033"
     style="fill:#000000;stroke-width:0.98672" />
  <rect
     x="-485.54834"
     y="-424.62836"
     width="46.824322"
     height="10.975109"
     transform="scale(-1)"
     fill="#73ff63"
     id="rect1035"
     style="stroke-width:0.98672" />
  <rect
     x="-293.0484"
     y="-424.62836"
     width="16.47522"
     height="10.975109"
     transform="scale(-1)"
     fill="#73ff63"
     id="rect1037"
     style="stroke-width:0.98672" />
  <rect
     x="-260.09796"
     y="-424.62836"
     width="16.47522"
     height="10.975109"
     transform="scale(-1)"
     fill="#73ff63"
     id="rect1039"
     style="stroke-width:0.98672" />
  <rect
     x="-422.24884"
     y="-424.62836"
     width="111.85809"
     height="10.975109"
     transform="scale(-1)"
     fill="#73ff63"
     id="rect1041"
     style="stroke-width:0.98672" />
  <rect
     x="-352.01236"
     y="-495.54443"
     width="16.47522"
     height="10.975109"
     transform="scale(-1)"
     fill="#73ff63"
     id="rect1043"
     style="stroke-width:0.98672" />
  <rect
     x="-319.06189"
     y="-495.54443"
     width="16.47522"
     height="10.975109"
     transform="scale(-1)"
     fill="#73ff63"
     id="rect1045"
     style="stroke-width:0.98672" />
  <rect
     x="-481.2128"
     y="-495.54443"
     width="111.85809"
     height="10.975109"
     transform="scale(-1)"
     fill="#73ff63"
     id="rect1047"
     style="stroke-width:0.98672" />
  <rect
     x="-351.1452"
     y="-449.11127"
     width="46.824322"
     height="10.975109"
     transform="scale(-1)"
     fill="#73ff63"
     id="rect1049"
     style="stroke-width:0.98672" />
  <rect
     x="-287.84567"
     y="-449.11127"
     width="46.824322"
     height="10.975109"
     transform="scale(-1)"
     fill="#73ff63"
     id="rect1051"
     style="stroke-width:0.98672" />
  <rect
     x="-511.56186"
     y="-449.11127"
     width="16.47522"
     height="10.975109"
     transform="scale(-1)"
     fill="#73ff63"
     id="rect1053"
     style="stroke-width:0.98672" />
  <rect
     x="-478.61139"
     y="-449.11127"
     width="111.85809"
     height="10.975109"
     transform="scale(-1)"
     fill="#73ff63"
     id="rect1055"
     style="stroke-width:0.98672" />
  <rect
     x="401.43802"
     y="461.77484"
     width="46.824322"
     height="10.975109"
     fill="#73ff63"
     id="rect1057"
     style="stroke-width:0.98672" />
  <rect
     x="464.73755"
     y="461.77484"
     width="46.824322"
     height="10.975109"
     fill="#73ff63"
     id="rect1059"
     style="stroke-width:0.98672" />
  <rect
     x="241.02138"
     y="461.77484"
     width="16.47522"
     height="10.975109"
     fill="#73ff63"
     id="rect1061"
     style="stroke-width:0.98672" />
  <rect
     x="273.9718"
     y="461.77484"
     width="111.85809"
     height="10.975109"
     fill="#73ff63"
     id="rect1063"
     style="stroke-width:0.98672" />
  <circle
     cx="374.77344"
     cy="234.21503"
     fill="#73ff63"
     id="circle1065"
     rx="89.470093"
     ry="87.109535"
     style="stroke-width:0.98672" />
  <circle
     cx="368.38272"
     cy="237.32608"
     fill="#ffffff"
     id="circle1067"
     rx="28.75824"
     ry="27.999487"
     style="stroke-width:0.98672" />
  <path
     d="m 369.25679,239.00223 c -1.78934,-2.68147 -0.88507,-6.32746 -2.13992,-9.28256 -1.97051,-4.64042 -8.0947,-5.72749 -13.23379,-6.15087 a 39.44537,38.40465 0 0 0 -10.25356,0.0267 9.84114,9.5814933 0 0 0 -7.11128,5.01991 c -0.76034,1.48464 -0.56847,-3.167 -0.0814,-9.13825 A 29.64587,28.863699 0 0 1 359.1727,193.6548 q 0.10891,-0.0249 0.21586,-0.049 c 6.257,-1.40535 12.7086,-2.43955 19.08605,-1.71009 6.37745,0.72947 12.73421,3.4098 16.71428,8.31593 1.81907,2.24231 3.10534,4.88653 5.136,6.94954 3.56778,3.62468 8.85693,4.94363 13.71544,6.62545 5.49473,1.90208 10.83631,4.51134 15.039,8.44766 4.20269,3.93635 7.18163,9.33039 7.26964,15.00758 0.10265,6.62235 -4.22413,13.45664 -11.19609,14.76229 a 7.82742,7.6209029 0 0 0 -3.34329,1.40471 c -6.65713,5.02551 0.93691,10.28634 0.88428,15.94394 -0.0439,4.72085 -5.44177,7.7977 -10.28547,8.01773 A 19.51578,19.00088 0 0 1 392.971,262.33636 c -0.7302,-3.87424 -0.16634,-7.85338 0.30871,-11.76508 0.54378,-4.47766 -9.36031,-15.02112 -2.81794,-7.29306 a 11.38347,11.083131 0 0 1 2.50128,5.1277 c 1.08888,6.17377 -4.68154,8.25043 -8.32041,11.6713 a 15.07793,14.680117 0 0 0 -3.64985,15.11063 17.38325,16.924615 0 0 1 -3.15935,-21.37254 c 1.17219,-1.75029 2.68244,-3.27298 3.794,-5.06036 1.73452,-2.78899 2.21286,-8.85532 -2.642,-8.68875 -3.46532,0.11892 -7.06497,2.92773 -9.72865,-1.06397 z"
     fill="#2f2e41"
     id="path1069"
     style="stroke-width:0.98672" />
  <metadata
     id="metadata1799">
    <rdf:RDF>
      <cc:Work
         rdf:about="">
        <dc:title>proud_self</dc:title>
      </cc:Work>
    </rdf:RDF>
  </metadata>
</svg>
