<?xml version="1.0" encoding="UTF-8" standalone="no"?>
<svg
   data-name="Layer 1"
   width="1049.58"
   height="678.59"
   viewBox="0 0 1049.58 678.59"
   version="1.1"
   id="svg487"
   sodipodi:docname="wallet.svg"
   inkscape:version="1.1.1 (3bf5ae0d25, 2021-09-20)"
   xmlns:inkscape="http://www.inkscape.org/namespaces/inkscape"
   xmlns:sodipodi="http://sodipodi.sourceforge.net/DTD/sodipodi-0.dtd"
   xmlns="http://www.w3.org/2000/svg"
   xmlns:svg="http://www.w3.org/2000/svg"
   xmlns:rdf="http://www.w3.org/1999/02/22-rdf-syntax-ns#"
   xmlns:cc="http://creativecommons.org/ns#"
   xmlns:dc="http://purl.org/dc/elements/1.1/">
  <sodipodi:namedview
     id="namedview489"
     pagecolor="#ffffff"
     bordercolor="#666666"
     borderopacity="1.0"
     inkscape:pageshadow="2"
     inkscape:pageopacity="0.0"
     inkscape:pagecheckerboard="0"
     showgrid="false"
     inkscape:zoom="0.73240098"
     inkscape:cx="524.98564"
     inkscape:cy="339.29501"
     inkscape:window-width="1366"
     inkscape:window-height="705"
     inkscape:window-x="-8"
     inkscape:window-y="-8"
     inkscape:window-maximized="1"
     inkscape:current-layer="svg487" />
  <defs
     id="defs257">
    <linearGradient
       id="b6a338e9-6675-4055-aeec-b883651a73ae-92"
       x1="790.68"
       y1="664.41"
       x2="790.68"
       y2="175.75"
       gradientUnits="userSpaceOnUse"
       gradientTransform="matrix(0.85089505,0,0,0.88327218,-50.804482,-137.19777)">
      <stop
         offset="0"
         stop-color="gray"
         stop-opacity="0.25"
         id="stop250" />
      <stop
         offset="0.54"
         stop-color="gray"
         stop-opacity="0.12"
         id="stop252" />
      <stop
         offset="1"
         stop-color="gray"
         stop-opacity="0.1"
         id="stop254" />
    </linearGradient>
  </defs>
  <title
     id="title259">wallet</title>
  <rect
     y="559.55426"
     width="725.151"
     height="5.5687037"
     fill="#85848b"
     id="rect261"
     x="84.903458"
     style="stroke-width:0.708247"
     transform="matrix(0.99999447,0.00332619,0,1,0,0)" />
  <path
     d="m 728.61539,440.21499 c 0,5.21133 -29.26224,20.40361 -64.02131,20.40361 -34.75905,0 -61.84308,-15.19228 -61.84308,-20.40361 0,-5.21127 28.17314,-3.53307 62.96623,-3.53307 34.7931,0 62.89816,-1.68706 62.89816,3.53307 z"
     fill="#504f60"
     id="path263"
     style="stroke-width:0.866931" />
  <path
     d="m 728.61539,440.21499 c 0,5.21133 -29.26224,20.40361 -64.02131,20.40361 -34.75905,0 -61.84308,-15.19228 -61.84308,-20.40361"
     opacity="0.2"
     id="path265"
     style="stroke-width:0.866931" />
  <path
     d="m 378.56567,344.59194 c 5.64145,0.75079 11.4956,1.22776 16.89879,-0.59179 0.85088,-0.27382 1.78687,-0.88326 1.70176,-1.76652 a 2.059166,2.1375191 0 0 0 -0.38287,-0.8833 52.568297,54.56857 0 0 1 -5.10539,-10.0958 0.85089506,0.88327239 0 0 0 -0.31482,-0.4593 0.79984134,0.83027604 0 0 0 -0.54459,0 c -2.4931,0.68011 -4.64586,2.34951 -7.12199,3.06496 a 10.12565,10.510942 0 0 1 -3.88006,0.30031 c -1.12317,-0.1325 -2.65482,-1.09525 -3.67588,-0.9716 0.57859,3.8599 1.9911,7.46367 2.42505,11.40304 z"
     fill="#73ff63"
     id="path267"
     style="stroke-width:0.866931" />
  <path
     d="m 485.2594,334.81413 c 3.71843,-2.64983 7.57294,-5.43212 9.76825,-9.52168 a 1.5911739,1.6517194 0 0 0 0.26382,-0.82144 1.6337186,1.695883 0 0 0 -0.31483,-0.79495 31.61926,32.8224 0 0 0 -7.93889,-8.89457 23.152856,24.03384 0 0 0 -4.42465,4.23972 c -0.93598,1.02462 -3.52266,2.64982 -3.54819,4.21322 0,0.88326 0.98704,1.90787 1.44649,2.64981 0.62114,0.95394 1.20825,1.92556 1.76989,2.9148 0.32331,0.4858 3.2759,5.82077 2.97811,6.01509 z"
     fill="#73ff63"
     id="path269"
     style="stroke-width:0.866931" />
  <path
     d="m 400.68045,356.41898 a 3.7864832,3.9305618 0 0 1 -0.68072,2.56148 3.3440176,3.4712605 0 0 1 -1.42951,0.88327 c -7.88781,2.93246 -17.01792,-0.72428 -24.88868,2.16402 -1.61671,0.5918 -3.14829,1.44856 -4.77353,2.01387 a 25.969319,26.957473 0 0 1 -5.95626,1.09524 c -2.78239,0.27381 -5.58188,0.45047 -8.3728,0.52997 a 20.132178,20.898224 0 0 1 -6.31364,-0.57413 7.5814749,7.869957 0 0 1 -4.84157,-3.98357 3.6843758,3.8245692 0 0 1 -0.23826,-2.8353 2.9440968,3.0561223 0 0 1 0.519,-0.88327 7.4623497,7.7462989 0 0 1 1.85496,-1.56339 l 2.90157,-1.9432 a 19.476989,20.218106 0 0 1 4.39916,-2.42015 c 1.14867,-0.38863 2.36548,-0.55647 3.53121,-0.88328 4.07576,-1.23658 7.19003,-4.59304 10.08308,-7.81697 l 3.94816,-4.37218 a 3.9736798,4.1248813 0 0 1 1.36993,-1.1394 3.7949918,3.9393945 0 0 1 1.70177,-0.16786 22.752932,23.618703 0 0 1 10.76386,3.74507 13.946173,14.476835 0 0 0 2.65476,1.62525 c 2.31446,0.93624 5.28406,0.22962 7.41983,-0.95395 1.01255,-0.56529 0.79132,-0.88328 1.21677,-1.89022 0.42545,-1.00693 1.46354,-1.65169 2.36551,-0.73311 a 2.5016314,2.5968206 0 0 1 0.56156,1.11292 c 0.85088,2.9148 0.52757,6.05042 0.52757,9.10656 a 3.8630635,4.0100562 0 0 0 0.17018,1.41323 7.7006002,7.993615 0 0 0 0.77428,1.30726 2.8675163,2.9766279 0 0 1 0.16173,0.33562 8.6536029,8.9828802 0 0 1 0.57008,4.26622 z"
     fill="#514e7f"
     id="path271"
     style="stroke-width:0.866931" />
  <path
     d="m 400.68045,356.41898 a 3.7864832,3.9305618 0 0 1 -0.68072,2.56148 3.3440176,3.4712605 0 0 1 -1.42951,0.88327 c -7.88781,2.93246 -17.01792,-0.72428 -24.88868,2.16402 -1.61671,0.5918 -3.14829,1.44856 -4.77353,2.01387 a 25.969319,26.957473 0 0 1 -5.95626,1.09524 c -2.78239,0.27381 -5.58188,0.45047 -8.3728,0.52997 a 20.132178,20.898224 0 0 1 -6.31364,-0.57413 7.5814749,7.869957 0 0 1 -4.84157,-3.98357 3.6843758,3.8245692 0 0 1 -0.23826,-2.8353 2.9440968,3.0561223 0 0 1 0.519,-0.88327 c 0.45949,0.99809 0.79134,2.323 1.08065,2.79997 a 5.5223088,5.732438 0 0 0 3.69287,2.76465 9.172651,9.5216758 0 0 0 3.4036,-0.45046 c 7.14754,-1.83722 14.746,-1.86371 21.61272,-4.64602 2.35703,-0.96277 4.60336,-2.24352 7.07946,-2.82647 2.47613,-0.58297 5.10537,-0.42398 7.65807,-0.6448 4.03321,-0.33563 7.93882,-1.59872 11.91256,-2.26117 a 8.6536029,8.9828802 0 0 1 0.53604,4.29272 z"
     fill="#464353"
     id="path273"
     style="stroke-width:0.866931" />
  <path
     d="m 503.32393,334.27532 c -0.37441,3.10913 -2.27189,5.78545 -4.3566,8.05544 -2.08473,2.27002 -4.44168,4.31037 -6.10096,6.92488 -2.04209,3.24162 -2.96106,7.2605 -5.61588,9.99862 a 15.401204,15.987231 0 0 1 -3.4036,2.51734 23.74848,24.65213 0 0 1 -4.38207,2.09336 c -3.96518,1.31607 -8.23667,1.01576 -12.38052,0.69778 a 11.138216,11.562036 0 0 1 -3.93117,-0.78612 11.844457,12.295152 0 0 1 -1.63368,-1.04227 7.8027077,8.0996077 0 0 1 -2.55271,-2.64981 2.5526854,2.6498168 0 0 1 -0.24674,-1.92553 4.3565828,4.5223544 0 0 1 1.18274,-1.87253 28.079539,29.147988 0 0 1 2.99515,-2.79998 17.928356,18.610552 0 0 0 3.89707,-3.5331 10.993562,11.411878 0 0 0 1.50609,-3.53308 30.189758,31.338504 0 0 0 1.09766,-6.75704 20.634208,21.41936 0 0 1 0.45097,-4.52235 c 0.62968,-2.33182 2.29741,-4.41635 2.11026,-6.82769 a 1.6422273,1.7047158 0 0 1 0.0854,-1.03344 1.3869589,1.4397342 0 0 1 0.78281,-0.50345 13.869589,14.397342 0 0 1 4.06731,-0.98043 4.7394857,4.919827 0 0 1 3.77798,1.53689 c 0.57861,0.72428 0.96151,1.76654 1.8124,2.0492 a 2.8760251,2.9854606 0 0 0 1.29334,0.0537 c 2.0932,-0.22081 4.30556,-0.49465 5.95628,-1.89905 a 7.428314,7.7109682 0 0 0 2.46761,-5.62644 c 0,-0.80377 -0.34887,-1.64287 0.85089,-1.76655 0.90194,-0.12365 1.6167,0.8833 2.07615,1.50157 1.65927,2.30534 3.36104,4.71667 3.98219,7.52549 a 2.1357468,2.2170139 0 0 1 0.7573,-0.15017 3.2929636,3.4182641 0 0 1 2.71436,1.43974 5.4031836,5.60878 0 0 1 0.74029,3.81575 z"
     fill="#514e7f"
     id="path275"
     style="stroke-width:0.866931" />
  <path
     d="m 503.32393,334.27532 c -0.37441,3.10913 -2.27189,5.78545 -4.3566,8.05544 -2.08473,2.27002 -4.44168,4.31037 -6.10096,6.92488 -2.04209,3.24162 -2.96106,7.2605 -5.61588,9.99862 a 15.401204,15.987231 0 0 1 -3.4036,2.51734 23.74848,24.65213 0 0 1 -4.38207,2.09336 c -3.96518,1.31607 -8.23667,1.01576 -12.38052,0.69778 a 11.138216,11.562036 0 0 1 -3.93117,-0.78612 11.844457,12.295152 0 0 1 -1.63368,-1.04227 7.8027077,8.0996077 0 0 1 -2.55271,-2.64981 6.220043,6.4567212 0 0 1 2.55271,-0.63596 c 1.83789,0.10599 3.18231,1.90787 4.94371,2.46433 2.51013,0.78614 5.01175,-1.05109 7.55594,-1.67822 1.65921,-0.4063 3.40355,-0.30031 5.04581,-0.88327 a 12.474126,12.948772 0 0 0 3.73542,-2.3495 19.017507,19.74114 0 0 0 3.99067,-3.99239 24.7185,25.659063 0 0 0 2.33995,-4.84916 66.795264,69.336881 0 0 1 4.73098,-9.39802 6.3987306,6.6422082 0 0 1 0.96152,-1.30723 c 0.39995,-0.37981 0.85092,-0.64479 1.30186,-0.98044 1.70184,-1.33375 2.40803,-3.53311 3.0037,-5.68828 a 9.5895831,9.9544802 0 0 1 0.67217,-1.89904 3.2929636,3.4182641 0 0 1 2.71436,1.43973 5.4031836,5.60878 0 0 1 0.80839,3.94823 z"
     fill="#464353"
     id="path277"
     style="stroke-width:0.866931" />
  <path
     d="m 324.89972,58.888671 a 18.047482,18.734208 0 0 1 5.1054,6.182911 c 1.19122,2.420163 8.05796,21.198542 7.65803,23.927864 2.23783,-2.340672 11.06163,-2.720479 13.32501,-5.061172 0.94453,-0.980433 6.04136,-5.873761 6.80718,-7.013177 0.76579,-1.139425 6.44978,-3.533088 7.07095,-4.734345 2.32292,-4.3192 -16.47334,-20.686235 -14.06529,-24.952443 a 1.0721278,1.1129232 0 0 0 0.19568,-0.671289 1.0551097,1.0952579 0 0 0 -0.31484,-0.521128 c -1.54013,-1.634054 -3.58226,-2.649819 -5.43719,-3.859902 -1.85494,-1.210084 -3.64183,-2.897134 -4.14391,-5.122977 a 17.868796,18.548722 0 0 0 -4.80756,3.374098 q -5.17343,4.601847 -10.16815,9.389185 c -1.30186,1.254248 -3.82054,2.923633 -4.42464,4.716676 -0.71477,1.925531 1.95706,3.294606 3.19933,4.345699 z"
     fill="#a1616a"
     id="path279"
     style="stroke-width:0.866931" />
  <path
     d="m 355.32776,51.937319 a 55.376253,57.483369 0 0 0 -8.04952,6.836526 c -2.33145,2.393668 -4.54373,5.167146 -5.10534,8.514749 -0.23827,1.316079 -0.20424,2.649816 -0.39991,3.983556 -0.8509,5.785438 -5.66697,10.02514 -7.79421,15.439615 a 25.79063,26.771984 0 0 0 -1.35295,5.167154 58.839391,61.078286 0 0 0 -0.9785,10.139941 c -0.0511,3.2946 3.06323,5.56465 4.20338,8.63842 1.14023,3.07377 1.44655,6.23587 2.02514,9.3892 1.0892,5.95322 3.08875,11.6945 5.1054,17.40046 4.19489,12.03018 17.79219,45.28537 21.98714,57.32439 12.85701,-3.34763 47.08004,-11.04092 58.46498,-18.09828 3.79497,-2.34947 -26.33521,-28.85648 -22.27643,-30.68486 a 1.5145931,1.5722247 0 0 0 1.1402,-2.21701 c -4.05877,-18.42507 -16.75413,-33.56437 -22.51467,-51.503649 -1.99964,-6.227057 -5.5904,-11.544368 -8.31328,-17.462291 -2.46758,-5.361463 -3.78643,-11.288219 -6.73905,-16.384704 a 9.955476,10.334288 0 0 0 -2.15281,-2.782309 12.695352,13.178424 0 0 0 -2.37393,-1.492728 c -1.68479,-0.847943 -3.25048,-1.351403 -4.87564,-2.20818 z"
     fill="#514e7f"
     id="path281"
     style="stroke-width:0.866931" />
  <ellipse
     cx="325.58038"
     cy="35.90593"
     fill="#a1616a"
     id="circle283"
     rx="20.123678"
     ry="20.889393"
     style="stroke-width:0.866931" />
  <path
     d="m 346.05296,45.719079 a 6.7475978,7.0043499 0 0 1 7.56449,-1.130587 c 1.36141,0.733117 2.55266,2.217012 2.24635,3.771571 l 9.98099,0.158991 a 20.038576,20.801066 0 0 1 4.73095,0.450468 6.8752322,7.1368411 0 0 1 3.94816,2.570327 c 0.11916,0.16782 0.2553,0.370971 0.45951,0.39747 a 0.73176975,0.75961428 0 0 0 0.45948,-0.158988 8.6621138,8.9917135 0 0 1 4.96926,-0.883272 c 5.39463,0.362142 10.38088,3.162116 14.60984,6.659869 a 4.7224675,4.9021615 0 0 1 1.70176,2.199351 c 0.34889,1.174751 -0.0686,2.649814 0.85092,3.488925 0,9.715993 3.2164,18.796037 5.36062,28.264725 0.38292,1.687046 1.94008,3.179768 3.02068,4.504681 a 17.502909,18.168915 0 0 1 3.22489,4.99932 c 1.82092,4.91102 -0.68921,10.68761 1.08067,15.61627 0.74877,2.08451 2.19531,3.79807 3.40358,5.60878 a 13.971693,14.503335 0 0 1 2.91006,7.24282 c 0.0764,1.18358 -0.0686,2.37601 0,3.53313 a 20.600169,21.384026 0 0 0 0.8509,4.69016 q 1.08911,4.27503 2.28038,8.54123 c 1.29337,4.59304 2.97815,9.54818 6.9433,11.99487 -9.57257,1.68702 -19.6642,3.33875 -28.78577,-0.11485 a 14.924699,15.492597 0 0 1 -3.59076,-1.86369 c -3.29296,-2.43785 -4.88416,-6.60688 -6.30515,-10.54625 -1.58264,-4.4164 -3.19087,-8.91225 -3.5142,-13.61126 a 15.052332,15.62509 0 0 0 -0.60414,-4.41636 c -0.92747,-2.56149 -3.40355,-4.10723 -5.64995,-5.5293 a 27.126534,28.15872 0 0 1 -6.80714,-5.49395 10.57663,10.979077 0 0 1 -2.75691,-8.24976 c 0.17017,-1.4574 0.72328,-2.86183 0.77429,-4.32805 0.051,-1.46623 -0.57859,-3.14443 -1.93148,-3.5331 -6.96883,-2.190486 -10.29583,-10.758238 -11.84448,-18.142409 A 56.108018,58.242983 0 0 1 354.74062,70.83935 l -0.0936,-7.534315 a 9.5810814,9.9456458 0 0 1 -3.13129,-7.145675 8.1771015,8.488248 0 0 0 -0.0427,-2.367169 6.2881147,6.5273829 0 0 0 -1.59967,-2.517329 21.646768,22.470451 0 0 1 -3.82055,-5.555783 z"
     fill="#464353"
     id="path285"
     style="stroke-width:0.866931" />
  <path
     d="m 324.61895,69.60277 c -0.22979,2.331833 0.28077,4.725507 -0.22125,7.013178 -0.1957,0.883276 -0.53605,1.766544 -0.78283,2.587991 a 14.635397,15.192284 0 0 0 0.92748,9.830827 52.755491,54.762888 0 0 0 4.8416,8.70022 13.614318,14.132358 0 0 1 1.54865,3.011954 15.018294,15.589759 0 0 1 0.59558,3.43595 102.81369,106.72581 0 0 0 2.36549,13.88506 c 0.95305,3.95705 11.7764,37.78639 14.29507,40.92199 a 3.2078742,3.329937 0 0 0 1.94001,1.36911 3.5312147,3.6655804 0 0 0 1.65075,-0.35334 l 5.10534,-2.03152 a 3.3355084,3.4624276 0 0 0 1.18278,-0.67128 3.0462041,3.162115 0 0 0 0.73177,-2.08451 c 0.36588,-4.31041 -10.48305,-38.37822 -11.86149,-42.4501 -4.16936,-12.29516 -9.71723,-24.148659 -12.43157,-36.876635 -0.75726,-3.53309 -1.15723,-8.974048 -3.65034,-11.791685 -1.02958,-1.165922 -0.6807,-0.671289 -1.91449,-0.06181 a 13.971693,14.503335 0 0 0 -1.80394,0.980432 5.9052115,6.129911 0 0 0 -2.51861,4.584186 z"
     fill="#464353"
     id="path287"
     style="stroke-width:0.866931" />
  <path
     d="M 422.82074,146.14715"
     fill="#464353"
     id="path289"
     style="stroke-width:0.866931" />
  <path
     d="m 340.11373,92.929986 c 1.36994,7.516644 2.78241,15.015654 4.18641,22.532284 l 19.97902,-5.43213 c 0.16166,-2.17284 -0.95298,-4.18669 -1.70183,-6.18292 -1.82089,-4.743143 -1.86342,-10.025126 -3.33545,-14.900784 -1.1147,-3.709743 -3.05471,-7.119181 -4.10135,-10.855426 -0.60412,-2.17285 -0.91043,-4.416358 -1.50608,-6.615703 a 46.288691,48.050017 0 0 0 -2.34847,-6.315399 38.086064,39.53527 0 0 0 -4.35659,-8.382255 c -2.55267,0.989259 -5.27555,2.137514 -6.73054,4.531186 a 9.4279143,9.7866588 0 0 0 -1.24233,4.416361 c -0.34889,4.654845 1.27637,9.336189 0.74025,13.964536 a 39.56662,41.072162 0 0 0 0.41696,13.24025 z"
     fill="#73ff63"
     id="path291"
     style="stroke-width:0.866931" />
  <path
     d="m 364.61099,192.91644 c 1.12316,4.41638 -0.50201,9.06237 -1.82942,13.43456 a 100.30353,104.12013 0 0 0 -4.06729,20.22696 16.864738,17.506461 0 0 1 -1.00406,5.11411 c -0.62961,1.47509 -1.70177,2.72048 -2.43356,4.12488 -2.00807,3.69209 -1.95706,8.19678 -1.52305,12.41881 0.28926,2.7823 0.72322,5.5558 1.2593,8.29395 0.65519,3.3476 1.46351,6.84534 0.51906,10.11344 1.58267,-0.36213 2.65475,1.76655 2.55265,3.43595 -0.10212,1.66936 -0.62115,3.53311 0.15317,4.97283 1.95706,0.74195 1.97406,3.53308 1.91451,5.6971 a 46.161055,47.917526 0 0 0 1.36141,11.12925 q 4.44169,22.17011 9.42797,44.21659 c 7.19004,2.31417 15.58835,4.72551 22.44658,1.51924 1.27632,-0.59181 2.5527,-1.53691 2.84202,-2.96781 a 4.986245,5.1759762 0 0 0 -0.27227,-2.27885 l -3.25047,-12.27747 c -0.79134,-2.96782 -1.58265,-6.03275 -1.16574,-9.08005 0.31485,-2.27001 1.26784,-4.71667 0.19577,-6.7217 -0.36595,-0.68896 -0.94454,-1.22771 -1.36997,-1.88136 -1.7018,-2.58799 -0.80836,-6.05043 -0.67222,-9.18603 a 7.0113754,7.2781645 0 0 0 -0.13614,-2.10218 10.108633,10.493276 0 0 0 -0.97004,-2.30537 33.967733,35.260233 0 0 1 -3.74392,-17.54176 4.1778946,4.3368672 0 0 0 -0.29782,-2.28771 7.1305006,7.4018226 0 0 1 -0.5531,-0.93626 2.467596,2.5614899 0 0 1 0.17872,-1.68704 14.89066,15.457268 0 0 1 -2.62078,-2.64982 3.6673576,3.8069038 0 0 0 0.62968,-5.95325 1.9145139,1.9873629 0 0 0 0.91047,-3.41828 c -0.41693,-0.30031 -0.97003,-0.43278 -1.26785,-0.88325 -0.45948,-0.65363 -0.0854,-1.5634 0.28931,-2.2612 l 1.98256,-3.71857 c 1.48057,-2.76463 1.81243,-6.1829 3.4036,-8.8327 2.28043,-3.85991 3.76945,-8.16144 5.24151,-12.41882 l 5.72653,-16.40237 3.85455,3.47126 a 12.184818,12.648459 0 0 1 3.16534,3.74511 15.571378,16.163886 0 0 1 1.02958,4.48698 c 1.41251,8.90338 6.80716,16.6232 8.80675,25.39406 0.44246,1.95206 0.74033,4.00122 1.82092,5.67064 a 11.912529,12.365814 0 0 1 1.0381,1.62521 8.3047358,8.6207388 0 0 1 0.43394,2.694 12.108233,12.568967 0 0 0 5.10538,9.00938 c 1.89749,1.35141 4.25447,2.27882 5.28406,4.41635 a 7.9303419,8.2320985 0 0 0 0.85092,1.88137 c 0.91894,1.14824 2.90153,1.28075 3.29297,2.72049 0.22119,0.80376 -0.18723,1.76655 0.24673,2.47313 a 2.2548723,2.3406718 0 0 0 0.94451,0.73315 l 5.53933,2.87065 c 6.19451,3.21508 9.35984,10.59923 13.92916,15.97837 a 33.184907,34.447622 0 0 1 4.16936,5.7236 c 1.97409,3.66561 2.88454,8.26745 6.22004,10.59926 a 9.4108974,9.7689925 0 0 1 2.41652,1.86371 c 1.04665,1.43089 0.66372,3.43592 0.7573,5.2378 0.0936,1.80187 1.42103,3.94822 3.07175,3.4006 a 12.108233,12.568967 0 0 0 0,6.6687 32.334012,33.564352 0 0 0 19.62165,-8.24976 c 1.61672,-1.46622 3.17382,-3.33877 3.19086,-5.56461 a 1.9230231,1.9961955 0 0 0 -0.23825,-1.10409 3.0376952,3.1532825 0 0 0 -1.25086,-0.98043 c -5.18194,-2.91481 -6.73905,-9.67182 -9.35983,-15.15695 -2.28887,-4.84034 -5.67545,-9.00936 -8.50894,-13.50522 -6.16045,-9.67183 -10.36391,-21.37519 -19.68118,-27.76128 -2.05067,-1.4044 -4.43316,-2.6498 -5.46274,-4.97281 -0.57011,-1.29841 -0.63819,-2.7823 -1.08914,-4.12486 -0.45099,-1.34262 -1.53165,-2.64985 -2.91009,-2.64985 0.7658,-1.9432 0.61267,-4.31034 0.6637,-6.41254 a 7.8027077,8.0996077 0 0 0 -0.30632,-2.76466 12.959129,13.452238 0 0 0 -1.36993,-2.73811 25.305618,26.268517 0 0 1 -3.50571,-14.13239 c 0.0686,-2.55262 0.50203,-5.1848 -0.23824,-7.62263 -0.37438,-1.22772 -1.02959,-2.34947 -1.48057,-3.53306 a 21.272379,22.081813 0 0 1 -1.06363,-6.64223 l -0.51051,-8.48825 a 40.230321,41.761114 0 0 0 -1.05512,-8.39106 c -1.70179,-6.58924 -3.40357,-34.19149 -9.2322,-37.30062 -5.82862,-3.10911 -15.84364,18.1336 -22.40406,18.54873 a 29.177192,30.287408 0 0 0 -8.50896,1.70473 c -4.36508,1.69587 -8.02391,4.858 -11.58918,7.94942 l -12.06572,10.51981 c -2.55264,2.18166 -4.66289,4.26618 -7.47936,5.80308 z"
     fill="#464353"
     id="path293"
     style="stroke-width:0.866931" />
  <path
     d="m 306.69908,12.711191 c 2.6548,-3.7627407 7.21562,-5.758934 11.70834,-5.9267557 4.49272,-0.167822 8.91737,1.2984088 12.94209,3.3740987 a 15.988319,16.596688 0 0 0 3.77796,1.607557 c 2.12723,0.450468 4.49274,-0.150157 6.41574,0.88327 2.55269,1.404403 3.04625,4.981656 2.82499,7.949454 -0.22122,2.967794 -0.7573,6.2624 0.76582,8.832723 a 19.672696,20.421261 0 0 1 1.47204,2.305339 c 0.6552,1.528066 0.27228,3.294608 -0.11914,4.910997 -0.99555,-0.883273 -1.55711,-2.217014 -2.44205,-3.241607 -0.88496,-1.024595 -2.42507,-1.713552 -3.52272,-0.945105 -1.09765,0.768446 -1.0806,2.16402 -1.14021,3.418264 -0.0596,1.254248 -0.36586,2.755808 -1.50609,3.162115 a 2.4420686,2.5349915 0 0 1 -2.55264,-1.033428 c -1.94858,-2.473163 -1.16572,-6.421391 -3.09729,-8.912219 -1.09765,-1.413234 -2.92709,-2.102188 -3.93962,-3.586083 -0.79986,-1.165922 -1.00409,-2.649819 -1.70182,-3.904063 -0.69769,-1.254249 -2.32295,-2.172852 -3.40354,-1.307244 a 4.6033421,4.7785033 0 0 0 -0.91049,1.263079 5.2330043,5.4321256 0 0 1 -6.21152,1.943195 10.389426,10.784756 0 0 0 -2.68884,-1.21008 3.3269997,3.453595 0 0 0 -3.07174,1.766546 6.6454903,6.8983572 0 0 0 -0.85086,3.692078 c 0,1.766544 0.3063,3.647914 -0.66372,5.06115 a 5.0458078,5.2378051 0 0 1 -1.36142,1.342575 c -1.42102,0.945097 -3.40361,1.581054 -4.71398,0.503465 a 3.5397234,3.6744131 0 0 1 -1.0551,-3.427094 26.692577,27.708253 0 0 1 1.00408,-3.621421 c 0.74877,-2.738141 -0.22978,-5.820763 0.58713,-8.399918 a 25.833172,26.816147 0 0 1 3.4546,-6.500888 z"
     fill="#464353"
     id="path295"
     style="stroke-width:0.866931" />
  <path
     d="m 317.47995,75.026054 a 3.0972583,3.2151116 0 0 0 0.18715,1.916704 2.9355881,3.0472898 0 0 0 1.00406,0.998094 20.642712,21.428188 0 0 0 9.479,3.188615 2.8845345,2.9942932 0 0 1 1.31038,0.353314 c 0.7998,0.547627 0.8509,1.766544 0.55304,2.738144 a 6.8667229,7.1280084 0 0 0 -0.60413,2.914811 c 0.24678,1.84604 2.35698,2.649811 4.13538,2.92364 2.49311,0.326795 5.22446,0.158992 7.19858,-1.457408 a 11.121199,11.54437 0 0 0 2.96959,-4.619532 c 4.88416,-11.650356 6.59444,-24.528471 11.53815,-36.143501 a 7.3857692,7.6668044 0 0 0 0.74027,-2.420168 2.297417,2.3848357 0 0 0 -0.91896,-2.225844 c -0.91896,-0.591794 -2.34844,-0.25615 -2.9696,-1.183586 -0.3063,-0.468135 -0.27227,-1.104091 -0.54457,-1.598724 -0.57013,-1.051097 -2.06769,-0.883272 -3.08874,-1.492729 -0.79987,-0.441636 -1.35297,-1.351408 -2.24642,-1.528061 a 2.8249715,2.9324642 0 0 0 -2.3229,1.042261 c -2.90159,2.808805 -4.42465,6.792362 -6.04136,10.555104 a 119.20187,123.73762 0 0 1 -8.64509,16.640854 c 0.38292,-0.61829 -1.83797,-5.299637 -2.70583,-5.502789 -1.52315,-0.31798 -3.47167,2.455499 -4.29705,3.488926 a 21.40852,22.223133 0 0 0 -4.73095,11.411875 z"
     fill="#73ff63"
     id="path297"
     style="stroke-width:0.866931" />
  <path
     d="m 348.39295,39.739327 a 4.0757875,4.2308746 0 0 0 -3.15682,1.642886 c -0.9105,1.227748 -1.08915,2.852971 -1.31892,4.416361 a 36.971389,38.378181 0 0 1 -5.01177,13.973369"
     opacity="0.1"
     id="path299"
     style="stroke-width:0.866931" />
  <path
     d="m 352.73248,43.263583 a 4.8586107,5.0434855 0 0 0 -4.12678,2.570323 13.912138,14.441505 0 0 0 -1.03813,4.363366 23.067762,23.945513 0 0 1 -4.12684,9.1772"
     opacity="0.1"
     id="path301"
     style="stroke-width:0.866931" />
  <path
     d="m 554.95623,215.94335 v -10.97023 a 29.338864,30.455229 0 0 0 -29.33886,-30.4464 H 108.26185 a 29.338864,30.455229 0 0 0 -29.338872,30.4464 v 20.22691 z"
     fill="#33323d"
     id="path303"
     style="fill:#483737;stroke-width:0.866931" />
  <path
     d="m 224.36645,161.66626 c 0,0 -1.19124,76.72103 11.91252,101.96496 13.1038,25.24392 18.71976,135.06116 18.71976,135.06116 0,0 137.36844,14.75064 233.09415,-17.66546 95.72573,-32.41609 299.41298,-45.67399 299.41298,-45.67399 L 753.18072,95.200014 c 0,0 -169.57486,-11.288235 -266.04085,36.470346 -96.46592,47.75852 -262.77342,29.9959 -262.77342,29.9959 z"
     fill="#8dd070"
     id="path305"
     style="stroke-width:0.866931" />
  <path
     d="m 224.36645,161.66626 c 0,0 -1.19124,76.72103 11.91252,101.96496 13.1038,25.24392 18.71976,135.06116 18.71976,135.06116 0,0 137.36844,14.75064 233.09415,-17.66546 95.72573,-32.41609 299.41298,-45.67399 299.41298,-45.67399 L 753.18072,95.200014 c 0,0 -169.57486,-11.288235 -266.04085,36.470346 -96.46592,47.75852 -262.77342,29.9959 -262.77342,29.9959 z"
     opacity="0.1"
     id="path307"
     style="stroke-width:0.866931" />
  <path
     d="m 254.76893,189.69251 c 0,0 -4.29697,63.3041 6.48381,83.53103 10.78084,20.22693 11.28292,110.52387 11.28292,110.52387 0,0 123.62655,5.95326 211.56654,-25.12027 87.94,-31.07352 272.73738,-51.22979 272.73738,-51.22979 l -21.0001,-196.39559 c 0,0 -152.90582,-1.63406 -242.14773,42.10559 -89.24185,43.73964 -238.92282,36.58516 -238.92282,36.58516 z"
     fill="#8dd070"
     id="path309"
     style="stroke-width:0.866931" />
  <ellipse
     cx="450.40497"
     cy="311.73499"
     rx="32.114769"
     ry="71.417435"
     transform="matrix(0.99174462,-0.12822871,0.11913625,0.99287791,0,0)"
     opacity="0.1"
     id="ellipse311"
     style="stroke-width:0.866947" />
  <path
     d="m 660.21194,-21.789428 c 0,0 -164.7418,43.280351 -242.42849,119.462591 -77.68671,76.182257 -241.22873,112.255087 -241.22873,112.255087 0,0 21.54464,73.39112 41.47256,93.24707 19.92796,19.85595 57.72476,122.59817 57.72476,122.59817 0,0 135.09663,-29.73093 216.61234,-91.10068 81.51572,-61.36977 271.4951,-138.8769 271.4951,-138.8769 z"
     opacity="0.2"
     id="path313"
     style="stroke-width:0.866931" />
  <path
     d="m 174.07859,198.94034 c 0,0 21.53611,73.39993 41.44707,93.2559 19.91098,19.85594 57.72476,122.58936 57.72476,122.58936 0,0 135.11361,-29.72211 216.63783,-91.09187 81.52426,-61.36979 271.48658,-138.8504 271.48658,-138.8504 L 657.72735,-32.768504 c 0,0 -164.73329,43.28035 -242.42001,119.462599 C 337.62063,162.87634 174.07859,198.94034 174.07859,198.94034 Z"
     fill="#8dd070"
     id="path315"
     style="stroke-width:0.866931" />
  <path
     d="m 174.07859,198.94034 c 0,0 21.53611,73.39993 41.44707,93.2559 19.91098,19.85594 57.72476,122.58936 57.72476,122.58936 0,0 135.11361,-29.72211 216.63783,-91.09187 81.52426,-61.36979 271.48658,-138.8504 271.48658,-138.8504 L 657.72735,-32.768504 c 0,0 -164.73329,43.28035 -242.42001,119.462599 C 337.62063,162.87634 174.07859,198.94034 174.07859,198.94034 Z"
     opacity="0.1"
     id="path317"
     style="stroke-width:0.866931" />
  <path
     d="m 211.27119,215.93453 c 0,0 14.62692,61.62588 30.87046,77.43645 16.24361,15.81057 43.3957,101.57635 43.3957,101.57635 0,0 119.41458,-33.72336 193.92747,-91.31271 74.51285,-57.58934 244.45365,-135.5558 244.45365,-135.5558 l -78.0356,-180.293574 c 0,0 -146.00509,47.140247 -218.01631,117.201404 -72.01131,70.06119 -216.59537,110.94788 -216.59537,110.94788 z"
     fill="#8dd070"
     id="path319"
     style="stroke-width:0.866931" />
  <ellipse
     cx="325.87314"
     cy="376.87918"
     rx="32.31678"
     ry="70.997025"
     transform="matrix(0.90032912,-0.43520968,0.40930269,0.91239865,0,0)"
     opacity="0.1"
     id="ellipse321"
     style="stroke-width:0.867109" />
  <path
     d="m 566.22207,226.71041 v 304.72902 a 25.382201,26.348013 0 0 1 -25.3907,26.348 H 104.32222 a 25.382201,26.348013 0 0 1 -25.37371,-26.348 V 195.99025 c 12.508151,4.82266 12.508151,4.82266 25.37371,4.41632 h 436.50915 a 25.390707,26.356849 0 0 1 25.3907,26.30384 z"
     opacity="0.1"
     id="path323"
     style="stroke-width:0.866931" />
  <path
     d="M 566.22207,230.58799 V 535.31698 A 25.390707,26.356849 0 0 1 540.83137,561.665 H 104.32222 A 25.382201,26.348013 0 0 1 78.94851,535.31698 V 199.85895 c 12.508151,4.81386 12.508151,4.81386 25.37371,4.41639 h 436.50915 a 25.390707,26.356849 0 0 1 25.3907,26.31265 z"
     fill="#504f60"
     id="path325"
     style="fill:#008080;stroke-width:0.866931" />
  <path
     d="m 564.97979,343.24937 v 97.45144 h -91.04581 a 46.943879,48.730136 0 0 1 0,-97.45144 z"
     opacity="0.1"
     id="path327"
     style="stroke-width:0.866931" />
  <path
     d="m 566.22207,340.65257 v 97.46909 h -91.04576 a 46.943879,48.730136 0 0 1 0,-97.45145 z"
     fill="#33323d"
     id="path329"
     style="fill:#1a1a1a;stroke-width:0.866931" />
  <ellipse
     cx="479.54132"
     cy="391.97949"
     opacity="0.1"
     id="circle331"
     rx="18.302759"
     ry="18.999184"
     style="stroke-width:0.866931" />
  <ellipse
     cx="480.78381"
     cy="389.4003"
     fill="#73ff63"
     id="circle333"
     rx="18.302759"
     ry="18.999184"
     style="stroke-width:0.866931" />
  <path
     d="m 724.25882,339.81347 c 0.72326,8.1349 -5.20747,16.03137 -3.4802,23.99849 0.37442,1.70471 1.08068,3.31227 1.33591,5.03465 0.71479,4.73436 -1.99955,9.2125 -4.59484,13.16961 l -22.29342,33.95295 a 20.310867,21.083713 0 0 1 -3.18231,4.08072 c -4.25447,3.9394 -10.65325,3.53312 -16.25216,4.70785 a 27.773213,28.83001 0 0 0 -10.8914,4.99932 0.69773396,0.72428338 0 0 0 -0.10211,0.98927 9.359842,9.7159984 0 0 0 8.10054,3.94822 c 0.5871,0.80377 0,1.97853 -0.85095,2.55268 -1.19977,0.88325 -2.84201,1.09524 -3.08025,3.19745 a 3.3440176,3.4712605 0 0 0 0.40842,2.11984 6.3391686,6.5803792 0 0 0 3.89716,2.81763 c 7.71761,2.44668 16.05637,-1.85486 21.83394,-7.71097 5.77756,-5.85611 9.92141,-13.24907 15.58839,-19.21116 3.13984,-3.29461 6.70508,-6.12106 9.93847,-9.31855 6.44979,-6.3772 11.46155,-14.13232 16.30314,-21.89626 1.45501,-2.34068 2.91853,-4.74322 3.53121,-7.45485 0.61266,-2.71168 0.32332,-5.4498 1.01256,-8.07315 0.90198,-3.44473 3.32699,-6.18289 5.3436,-9.07117 3.95668,-5.65295 6.59444,-12.56895 6.0754,-19.52915 -0.51907,-6.9602 -4.67989,-13.84087 -11.01059,-16.20803 a 9.7852893,10.157631 0 0 0 -6.16896,-0.38867 c -2.59523,0.8303 -4.50978,3.05614 -6.27961,5.18482 l -4.25447,5.0788 a 11.470061,11.906514 0 0 0 -2.46758,3.8864 3.9226259,4.0718852 0 0 0 0.85087,4.31921"
     fill="#fbbebe"
     id="path335"
     style="stroke-width:0.866931" />
  <path
     d="m 724.25882,339.81347 c 0.72326,8.1349 -5.20747,16.03137 -3.4802,23.99849 0.37442,1.70471 1.08068,3.31227 1.33591,5.03465 0.71479,4.73436 -1.99955,9.2125 -4.59484,13.16961 l -22.29342,33.95295 a 20.310867,21.083713 0 0 1 -3.18231,4.08072 c -4.25447,3.9394 -10.65325,3.53312 -16.25216,4.70785 a 27.773213,28.83001 0 0 0 -10.8914,4.99932 0.69773396,0.72428338 0 0 0 -0.10211,0.98927 9.359842,9.7159984 0 0 0 8.10054,3.94822 c 0.5871,0.80377 0,1.97853 -0.85095,2.55268 -1.19977,0.88325 -2.84201,1.09524 -3.08025,3.19745 a 3.3440176,3.4712605 0 0 0 0.40842,2.11984 6.3391686,6.5803792 0 0 0 3.89716,2.81763 c 7.71761,2.44668 16.05637,-1.85486 21.83394,-7.71097 5.77756,-5.85611 9.92141,-13.24907 15.58839,-19.21116 3.13984,-3.29461 6.70508,-6.12106 9.93847,-9.31855 6.44979,-6.3772 11.46155,-14.13232 16.30314,-21.89626 1.45501,-2.34068 2.91853,-4.74322 3.53121,-7.45485 0.61266,-2.71168 0.32332,-5.4498 1.01256,-8.07315 0.90198,-3.44473 3.32699,-6.18289 5.3436,-9.07117 3.95668,-5.65295 6.59444,-12.56895 6.0754,-19.52915 -0.51907,-6.9602 -4.67989,-13.84087 -11.01059,-16.20803 a 9.7852893,10.157631 0 0 0 -6.16896,-0.38867 c -2.59523,0.8303 -4.50978,3.05614 -6.27961,5.18482 l -4.25447,5.0788 a 11.470061,11.906514 0 0 0 -2.46758,3.8864 3.9226259,4.0718852 0 0 0 0.85087,4.31921"
     opacity="0.05"
     id="path337"
     style="stroke-width:0.866931" />
  <path
     d="m 741.13204,549.23738 c -4.86711,3.08261 -10.93397,3.26808 -16.5924,2.55264 -0.91052,-0.1148 -1.99111,-0.18549 -2.55275,0.54764 -0.85086,1.05992 0.15321,2.64978 1.19126,3.47125 a 24.548323,25.482406 0 0 0 11.39348,4.86685 75.023419,77.878128 0 0 0 11.14675,0.76842 c 10.21074,0.18547 20.42147,0.36215 30.47055,-1.15709 a 4.314038,4.4781906 0 0 0 1.7018,-0.51229 3.114276,3.2327769 0 0 0 1.2593,-1.98737 c 0.68924,-2.72049 -0.63813,-5.63528 -2.64629,-7.52547 -2.00807,-1.8902 -4.5863,-2.9413 -7.10495,-3.95707 l -8.84933,-3.57725 c -2.07614,-0.83911 -5.40314,-3.06496 -7.65803,-2.88831 -4.23746,0.31799 -8.24516,7.26052 -11.75939,9.39805 z"
     fill="#3f3d56"
     id="path339"
     style="stroke-width:0.866931" />
  <path
     d="m 741.13204,549.23738 c -4.86711,3.08261 -10.93397,3.26808 -16.5924,2.55264 -0.91052,-0.1148 -1.99111,-0.18549 -2.55275,0.54764 -0.85086,1.05992 0.15321,2.64978 1.19126,3.47125 a 24.548323,25.482406 0 0 0 11.39348,4.86685 75.023419,77.878128 0 0 0 11.14675,0.76842 c 10.21074,0.18547 20.42147,0.36215 30.47055,-1.15709 a 4.314038,4.4781906 0 0 0 1.7018,-0.51229 3.114276,3.2327769 0 0 0 1.2593,-1.98737 c 0.68924,-2.72049 -0.63813,-5.63528 -2.64629,-7.52547 -2.00807,-1.8902 -4.5863,-2.9413 -7.10495,-3.95707 l -8.84933,-3.57725 c -2.07614,-0.83911 -5.40314,-3.06496 -7.65803,-2.88831 -4.23746,0.31799 -8.24516,7.26052 -11.75939,9.39805 z"
     opacity="0.05"
     id="path341"
     style="stroke-width:0.866931" />
  <path
     d="m 747.33507,427.29272 c -3.68434,5.08766 -7.49636,10.96141 -6.58595,17.25915 0.49356,3.39179 2.32299,6.38605 3.6674,9.52169 1.82089,4.25736 2.77392,8.8327 3.70986,13.39041 1.37847,6.65989 2.76547,13.33743 3.60782,20.1033 0.96151,7.64033 -3.55672,29.74864 -3.97367,37.44196 -0.10211,1.85483 -0.31485,3.85989 -1.55716,5.19362 -0.48499,0.52997 -1.1317,0.95393 -1.35289,1.64288 a 2.705846,2.8088061 0 0 0 0.29779,1.94323 c 2.07621,4.85795 6.32217,8.47937 11.06167,10.54627 4.73948,2.06683 16.167,5.63524 21.3319,5.82075 a 4.2544752,4.4163615 0 0 0 2.00814,-0.27383 3.9056083,4.0542199 0 0 0 1.54863,-1.84601 c 3.70139,-7.34887 0.14462,-33.47607 0.19573,-41.76998 0.0506,-6.91602 1.62516,-13.78788 1.33589,-20.69511 -0.23824,-5.54692 -1.70181,-10.97021 -2.18682,-16.49948 -0.85091,-9.06241 0.74881,-18.16899 2.35699,-27.12534 1.22526,-6.87187 2.45906,-13.74372 4.0332,-20.52724 0.96152,-4.14256 2.07624,-8.32041 4.25449,-11.91536 1.70182,-2.85296 4.09281,-5.23781 6.07539,-7.94943 a 34.563357,35.878523 0 0 0 6.80719,-26.26853 c -0.11914,-0.88326 -12.76342,3.32994 -13.87813,3.83337 a 43.233977,44.879068 0 0 0 -12.37199,8.25865 c -2.92709,2.89711 -5.23302,6.76582 -7.79422,10.00742 q -5.43719,6.88071 -10.73828,13.85856 -6.04988,7.97596 -11.85298,16.04905 z"
     fill="#464353"
     id="path343"
     style="stroke-width:0.866931" />
  <path
     d="m 747.33507,426.98361 c -3.68434,5.08762 -7.49636,10.97021 -6.58595,17.25912 0.49356,3.40061 2.32299,6.39488 3.6674,9.53052 1.82089,4.2485 2.77392,8.8327 3.70986,13.38159 1.37847,6.66871 2.76547,13.34625 3.60782,20.1033 0.96151,7.64914 -3.55672,29.74863 -3.97367,37.44193 -0.10211,1.85485 -0.31485,3.86874 -1.55716,5.20247 -0.48499,0.52112 -1.1317,0.94512 -1.35289,1.63404 a 2.6973374,2.7999733 0 0 0 0.29779,1.9432 c 2.07621,4.86682 6.32217,8.47941 11.06167,10.59928 4.73948,2.11986 16.167,3.96588 21.3319,4.14254 a 4.2544752,4.4163615 0 0 0 2.00814,-0.27381 3.8460454,3.9923908 0 0 0 1.54863,-1.83722 c 3.70139,-7.34884 0.14462,-31.7978 0.19573,-40.10056 0.0506,-6.92486 1.62516,-13.7879 1.33589,-20.70391 -0.23824,-5.54696 -1.70181,-10.97025 -2.18682,-16.4907 -0.85091,-9.07125 0.74881,-18.17779 2.35699,-27.13415 1.22526,-6.86305 2.45906,-13.73489 4.0332,-20.52729 0.96152,-4.14254 2.07624,-8.32039 4.25449,-11.9153 1.70182,-2.85298 4.09281,-5.23782 6.07539,-7.94944 a 34.546339,35.860858 0 0 0 6.80719,-26.26854 c -0.11914,-0.88329 -12.76342,3.32994 -13.87813,3.8334 a 43.438194,45.091054 0 0 0 -12.37199,8.26742 c -2.92709,2.88831 -5.23302,6.75704 -7.79422,9.99867 q -5.43719,6.88067 -10.73828,13.86735 -6.04988,7.91414 -11.85298,15.99609 z"
     opacity="0.05"
     id="path345"
     style="stroke-width:0.866931" />
  <ellipse
     cx="706.33923"
     cy="293.80374"
     fill="#fbbebe"
     id="circle347"
     rx="20.65123"
     ry="21.437021"
     style="stroke-width:0.866931" />
  <path
     d="m 724.93951,292.90287 a 26.743633,27.761251 0 0 0 17.14554,12.41882 l -1.5571,5.87373 c -2.68887,10.08697 -5.70955,20.75691 -13.21442,27.75242 0.85087,-3.41827 -0.23824,-7.0662 -2.0932,-10.03398 -1.85496,-2.9678 -4.45868,-5.29962 -7.01141,-7.60496 l -11.88695,-10.68762 a 3.5822681,3.7185765 0 0 1 -0.85092,-1.04226 3.0206776,3.1356169 0 0 1 0,-2.34948 c 1.51457,-4.89334 5.83712,-7.94944 9.35987,-11.25291 a 32.419103,33.652677 0 0 0 4.70543,-5.68826 c 2.37395,-3.51545 3.84604,0.0179 5.40316,2.6145 z"
     fill="#fbbebe"
     id="path349"
     style="stroke-width:0.866931" />
  <path
     d="m 679.13586,272.25196 -0.46798,-4.02776 c 3.25893,0.88328 6.35614,-1.99618 8.44088,-4.97279 2.08469,-2.97664 4.01621,-6.48322 7.19003,-7.72866 3.8546,-1.50156 7.93889,0.88327 11.62321,2.89714 a 36.750158,38.148533 0 0 0 13.33357,4.50468 8.7727271,9.1065392 0 0 1 2.2038,0.37098 c 2.39953,0.88329 3.53969,4.01006 3.88857,6.84538 0.34888,2.83532 0.25531,5.84725 1.438,8.37344 0.85093,1.91666 2.43355,3.33874 3.40359,5.22895 2.55273,5.06997 0.0854,12.00368 2.7484,16.97653 l -6.61995,-6.29776 c -0.60414,-0.57412 -1.45507,-1.17475 -2.12724,-0.68896 -0.52758,0.38865 -0.5701,1.22775 -0.7828,1.89905 -0.63823,1.96086 -3.0037,2.54379 -4.714,1.76656 -1.71027,-0.77731 -2.96113,-2.46437 -4.25447,-4.00122 -2.9271,-3.58611 -6.41574,-6.7394 -10.50005,-8.26746 a 13.478177,13.991033 0 0 0 -11.06163,0.75962 c -3.08875,1.81072 -5.35212,6.03276 -9.13858,6.1829 -5.19049,0.20315 -7.35176,-9.83083 -9.75127,-13.79671 a 4.6799227,4.8579979 0 0 0 1.36141,-6.07694 c 0.34887,-0.15016 3.7099,-0.56528 3.78651,0.0537 z"
     fill="#464353"
     id="path351"
     style="stroke-width:0.866931" />
  <path
     d="m 423.70567,146.92443 a 40.170756,41.699288 0 0 0 -4.5863,4.99934 9.6406384,10.007473 0 0 0 -2.11026,6.42139 3.1653295,3.2857734 0 0 0 0.59564,1.88137 1.5316108,1.5898903 0 0 0 1.70177,0.53879 2.2889075,2.3760029 0 0 0 0.85089,-0.77729 41.072703,42.635558 0 0 1 2.85903,-3.2151 c 0.36586,-0.37981 0.85087,-0.77726 1.34441,-0.63593 a 1.4380123,1.4927302 0 0 1 0.57861,0.39746 3.9141173,4.0630524 0 0 1 1.19976,1.94321 c 0.2978,1.35138 -0.45951,2.70281 -1.3189,3.76274 -0.8594,1.05993 -1.87195,2.07567 -2.22083,3.4094 a 1.455031,1.5103957 0 0 0 0,1.09527 1.5826651,1.6428866 0 0 0 0.6637,0.58296 9.4959939,9.8573188 0 0 0 8.03246,0.54763 c 1.70177,-0.71544 3.21638,-1.94322 4.96924,-2.57916 a 11.487082,11.924177 0 0 0 2.19531,-0.88328 4.5607972,4.7343399 0 0 0 1.94851,-3.02961 12.031661,12.489471 0 0 0 0.12765,-3.71858 41.191827,42.759211 0 0 0 -2.92707,-13.98221 1.7017899,1.7665448 0 0 0 -0.49353,-0.74195 1.5741557,1.6340538 0 0 0 -0.85087,-0.23849 c -2.17833,-0.23848 -5.75206,-1.39555 -7.85377,-0.55646 a 5.547836,5.7589362 0 0 0 -1.85496,1.71357 c -0.39144,0.45047 -2.85049,2.47317 -2.85049,3.06493 z"
     fill="#a1616a"
     id="path353"
     style="stroke-width:0.866931" />
  <path
     d="m 423.01644,144.92826 c 0,-2.15518 -2.55271,-7.35765 1.50607,-7.70213 0,-2.30534 -3.13977,-3.73625 -2.55266,-6.18293 0.18718,-0.81259 0.85089,-1.47506 0.92746,-2.30536 0.25527,-2.35833 -3.84602,-3.63907 -3.16532,-5.90024 0.25524,-0.88328 1.15721,-1.39555 1.3529,-2.26998 0.45951,-2.04037 -3.05472,-2.95017 -3.12278,-5.04352 0,-0.70662 0.38289,-1.36908 0.34886,-2.07569 0,-0.88325 -0.74025,-1.55457 -1.14866,-2.32299 -1.06362,-1.96972 -0.5446,-5.01701 -2.48464,-6.03278 1.28488,0.11482 1.70178,-1.86372 1.17423,-3.07378 -0.52757,-1.21009 -1.60817,-2.261185 -1.61669,-3.603752 a 5.2415136,5.4409582 0 0 0 0,-1.466241 c -0.35741,-1.289557 -2.391,-1.395555 -2.73137,-2.649798 a 10.87444,11.28822 0 0 1 -0.0427,-1.448567 c -0.13614,-0.99809 -1.12318,-1.634041 -2.05063,-1.916694 a 8.3642985,8.6825679 0 0 1 -2.73993,-1.015755 c -0.59561,-0.468144 -1.28484,-1.245432 -1.923,-0.883287 -0.23827,0.150156 -0.35739,0.432805 -0.53607,0.644799 -0.76582,0.927424 -2.22935,0.521131 -3.19086,-0.158988 -2.84199,-2.00503 -4.25448,-5.599969 -4.85859,-9.106559 -0.60417,-3.506587 -0.58713,-7.128003 -1.34443,-10.599262 a 21.81695,22.647103 0 0 0 -0.91893,-3.179785 c -0.32337,-0.883269 -1.36148,-2.270009 -1.42956,-3.162115 -0.15312,-2.031527 3.89714,-0.64479 5.43724,-0.441637 a 24.216476,25.137931 0 0 1 4.41614,0.883273 47.21617,49.012781 0 0 1 4.51826,2.058024 c 6.14345,2.817639 13.56325,3.16212 18.49844,7.896455 1.62524,1.554559 2.99517,3.59492 5.10542,4.301536 a 23.101799,23.980846 0 0 1 2.85895,0.768444 c 2.33999,1.139426 2.70585,4.363364 3.9822,6.695215 a 12.6443,13.125427 0 0 1 1.04663,1.943217 7.2155901,7.49015 0 0 1 0.34035,2.473147 l 0.17871,6.121075 c 0.28927,10.254795 0.5786,20.536095 -0.47653,30.729055 -0.34038,3.36526 -0.85091,6.82771 0.1106,10.06047 0.2553,0.88328 0.61264,1.71358 0.8509,2.60567 a 15.316108,15.898903 0 0 1 0.32336,3.17976 l 0.13614,3.96592 a 1.1912529,1.2365814 0 0 1 -0.18719,0.88328 1.2252887,1.2719123 0 0 1 -1.02958,0.25614 c -5.3181,-0.49463 -10.69578,-3.60376 -15.71603,-1.7224"
     fill="#464353"
     id="path355"
     style="stroke-width:0.866931" />
  <ellipse
     cx="665.70874"
     cy="440.21497"
     rx="62.932217"
     ry="9.4421778"
     fill="#504f60"
     id="ellipse357"
     style="stroke-width:0.866931" />
  <path
     d="m 719.85114,440.6743 c -1.10611,-4.91982 -1.79533,-9.23904 -1.79533,-9.23904 0,0 0.25522,-5.3526 -2.05915,-9.37149 v -1.34256 0 -9.89269 a 32.487172,33.723341 0 0 1 2.40799,-5.18477 c 1.70179,-3.10912 0,-14.50334 0,-14.50334 0,0 -6.35615,-16.06673 -4.81604,-26.25969 1.5401,-10.19298 -13.05277,-45.25888 -13.05277,-45.25888 a 43.046784,44.684751 0 0 1 1.36993,-10.0163 7.3602422,7.640306 0 0 0 0.18724,-2.10218 c 0,-0.0881 0,-0.16783 0,-0.25615 0,-0.0881 0,0.0537 0,0.0795 -0.22127,-6.72169 -5.34362,-19.31718 -5.34362,-19.31718 l 0.68923,-24.00735 c 0,0 3.26739,-14.13234 -2.05917,-33.16686 -1.86346,-6.63335 -3.05471,-11.94186 -3.812,-16.04019 -0.0855,-0.45931 -0.17018,-0.88332 -0.23826,-1.33376 10.96803,-1.76653 19.34937,-3.17978 19.34937,-3.17978 0,0 -6.36473,-27.6376 -10.66177,-32.47789 -4.29698,-4.84034 -7.73459,-20.04147 -7.73459,-20.04147 0,0 -2.23788,-19.51148 1.37845,-25.21743 3.61627,-5.70596 4.12679,-15.54563 4.12679,-15.54563 0,0 8.24519,-6.1829 9.28332,-8.98285 1.03808,-2.8 2.74839,-8.982893 2.74839,-12.259846 0,-3.276923 -1.02957,-6.182891 -0.68923,-7.949442 0.34035,-1.766542 -2.40806,-8.293933 -1.02958,-11.40305 a 8.0579763,8.3645898 0 0 0 0.54455,-2.994294 0.37439383,0.38863981 0 0 0 0,-0.08826 c 0,0 0,0 0,0 a 40.426025,41.964267 0 0 0 -0.72327,-8.108439 22.165815,23.009244 0 0 0 -8.1686,-4.531189 l -0.17869,-0.741953 -0.46797,-1.943199 a 9.0790492,9.4245174 0 0 0 -0.80835,-0.494633 v -0.706629 l -0.0764,-2.808806 1.29332,-6.306567 C 702.06749,36.709725 687.9511,35.07567 687.9511,35.07567 a 7.4453317,7.7286336 0 0 0 -3.99917,-3.63908 c -2.83352,-1.033429 -0.46803,16.499526 0.8509,17.665445 0.99554,0.883274 4.07576,6.341897 5.56485,9.04471 v 0 l 0.23826,0.441635 a 5.9562657,6.182907 0 0 0 -0.64671,0.706619 l 0.53607,3.806904 0.0854,0.58296 a 15.222516,15.801745 0 0 0 -2.25486,3.983562 c 0,0 2.55271,2.93246 2.0677,6.182902 -0.48502,3.250446 0.79134,7.375325 0.85088,7.596141 -0.15318,-0.185489 -1.96559,-2.21701 -3.77799,-1.72238 -1.81239,0.49463 -6.87523,2.075688 -6.87523,2.075688 0,0 -3.77796,0.688953 -3.40356,1.55456 0.3744,0.865609 -2.5527,4.663701 -2.5527,4.663701 L 664.47523,78.02035 c -0.1021,-0.30031 -0.21272,-0.600621 -0.29777,-0.883268 a 23.42514,24.316491 0 0 1 -0.8509,-4.416366 23.237946,24.122171 0 0 0 3.25042,-1.068757 7.0113754,7.2781645 0 0 0 2.80793,-1.872536 c 1.02958,-1.263078 1.22528,-2.976631 1.64222,-4.548855 0.79987,-3.073789 2.55273,-5.803102 3.76947,-8.726731 a 27.330749,28.370705 0 0 0 1.91453,-15.704583 9.8703813,10.245957 0 0 0 -1.55713,-4.593019 c -1.65928,-2.367166 -4.67143,-3.329934 -6.8582,-5.220133 -2.18684,-1.890208 -3.59929,-4.778509 -6.15201,-6.182912 -2.30594,-1.280744 -5.10535,-1.130587 -7.70906,-0.688953 a 41.549204,43.130192 0 0 0 -14.40569,5.440959 c -1.48053,0.88327 -3.11431,1.969695 -4.81606,1.642889 -1.46354,-0.273814 -2.55272,-1.483901 -3.47168,-2.64982 a 0.85089506,0.88327239 0 0 1 0.0427,-0.141324 0.85089506,0.88327239 0 0 1 -0.11064,-0.141322 17.945373,18.628216 0 0 0 -1.58268,7.896453 c 0,0.423971 0,0.883275 0.0511,1.263082 v 0.441635 c 0,0.123657 0,0.247317 0,0.362142 v 0 a 1.9400405,2.0138612 0 0 1 -0.0764,0.556459 3.8715725,4.0188892 0 0 1 -0.95302,1.422071 9.1811536,9.5305094 0 0 0 -0.85092,1.174752 c 0,-0.141324 0.0855,-0.282648 0.13617,-0.432804 a 6.0498641,6.2800669 0 0 0 -1.05513,3.329939 3.275946,3.4005987 0 0 0 0.76584,2.384834 11.061632,11.482543 0 0 0 1.65922,1.377902 19.357864,20.094448 0 0 0 -0.30632,3.533094 19.664183,20.412425 0 0 0 9.58106,17.409301 c 0.11916,0.291476 0.22976,0.591788 0.34036,0.883269 1.30187,3.533089 2.28044,7.684469 1.84646,11.482539 0,0.273816 -0.0764,0.556461 -0.11912,0.830276 -0.0427,0.273815 -0.25529,0.291475 -0.36587,0.441633 v 0 c 0,0 -16.78816,0.176657 -20.73633,-3.53309 -3.94815,-3.709739 -9.97249,9.071233 -9.97249,9.071233 0,0 -6.01582,1.210076 -7.22411,0 -1.20829,-1.21009 -8.24518,-0.167833 -8.24518,-0.167833 a 15.171463,15.748745 0 0 0 -10.49154,-3.974735 30.793895,31.965627 0 0 0 -7.65805,-4.416364 v 0 l -0.18717,-0.07067 v 0 a 8.577022,8.9033854 0 0 0 -3.78671,-0.494631 c 0,0 -8.25364,-7.066178 -10.66168,-10.881911 -2.40816,-3.815741 -13.86972,-17.903938 -13.92076,-17.965767 v -0.68012 l -0.12765,-2.049192 a 7.0709377,7.3399936 0 0 1 -1.02959,0.08828 c -0.0596,-0.203152 -0.14463,-0.441636 -0.22972,-0.715448 a 38.060538,39.508772 0 0 0 -2.43355,-5.803095 c 0,0 0,-2.587988 0.72327,-3.241607 0.72326,-0.653622 -0.29784,-10.148799 -0.29784,-10.148799 0,0 -7.43683,-18.045256 -14.09935,-4.575352 0,0 -12.59325,8.717897 -2.02513,18.875532 0,0 4.25448,2.119849 4.81608,3.798067 0.39144,1.086424 1.82092,4.133717 2.78244,6.182911 l 0.43393,0.88327 -0.11908,0.105993 0.15312,1.695885 0.0686,0.653621 c -1.99109,1.174752 -3.344,2.340671 -3.01216,3.215109 a 18.609077,19.317168 0 0 1 1.19976,4.66368 c 0,0 14.61838,19.008019 16.50737,27.1253 0,0 39.20074,24.184007 52.09181,25.906367 l -2.28047,12.05668 a 92.696552,96.223699 0 0 0 -0.51053,9.84852 c 0.17017,2.58795 -1.54864,14.33549 -1.54864,14.33549 0,0 -2.23784,17.27681 -4.12682,19.69697 -1.88899,2.42017 -1.54862,12.78097 -1.54862,12.78097 a 84.119485,87.320307 0 0 1 -2.55272,14.67995 c -1.88897,6.56272 -0.51904,14.68883 -0.51904,14.68883 0,0 -6.52635,15.5456 9.11312,5.00814 0,0 7.65804,-0.49465 16.52435,-0.81262 0,0.30031 0,0.60948 0,0.88329 0,1.18358 0,2.46434 -0.0596,3.80691 -0.11915,8.90338 -0.17017,21.19851 0.2212,30.45521 0.68923,16.41119 5.50532,48.88914 5.50532,48.88914 v 16.34934 a 21.434044,22.249635 0 0 0 -0.45951,4.6637 29.236754,30.349237 0 0 0 4.25447,16.33172 l 1.20829,10.88189 c 0,0 2.825,7.17218 2.87601,11.48255 a 5.8031043,6.0239179 0 0 1 -0.11909,1.03343 6.696544,6.9513538 0 0 0 -0.13614,1.66941 c -0.16169,4.9463 2.70584,16.78211 2.70584,16.78211 0,0 0.17017,11.91538 1.88899,12.61319 1.47204,0.59176 -1.96559,6.86302 -2.98664,8.66488 a 2.373997,2.4643298 0 0 1 -0.0596,-0.33563 l -0.21273,0.35332 a 8.1515749,8.4617494 0 0 0 -0.53608,3.02079 4.1693857,4.3280348 0 0 0 1.90602,4.18669 c 3.26743,2.0757 5.02028,3.79806 2.24635,4.48699 a 28.879382,29.978264 0 0 0 -3.02917,0.66249 c 0,-0.13249 -0.10212,-0.2738 -0.14467,-0.39748 a 1.8209152,1.890203 0 0 0 -1.13168,2.08454 8.5089506,8.8327239 0 0 0 1.01256,4.01002 c 2.74838,6.39491 4.65441,8.83275 4.65441,8.83275 l 1.31885,-0.15018 a 6.4327667,6.6775393 0 0 1 -0.76577,1.47507 5.479764,5.6882742 0 0 1 -1.94006,1.76654 6.0073194,6.235903 0 0 1 -2.35696,0.83911 6.6369817,6.8895248 0 0 0 -4.86712,2.45551 c -1.70182,2.30533 -2.79096,5.44096 0.5956,8.19677 l 12.29544,4.41635 c 0,0 21.15328,2.85298 20.03006,-2.07567 -1.12317,-4.92869 -1.80387,-9.23903 -1.80387,-9.23903 a 18.762233,19.476157 0 0 0 -1.7018,-8.73558 10.934003,11.350049 0 0 0 -0.7488,-1.28956 l 0.7488,-0.0795 c 0,0 1.54862,-10.89079 3.60779,-12.95762 0.47651,-0.47698 0.58711,-0.88328 0.47651,-1.13058 0.21271,-0.59181 -0.33187,-0.93625 -1.02109,-1.13943 l -0.15314,0.43279 a 10.032051,10.41378 0 0 0 -2.05066,-0.23849 c 0,0 -0.68923,-5.69707 1.54861,-7.77275 a 2.1187284,2.1993486 0 0 0 0.43398,-1.69591 8.781238,9.1153701 0 0 0 -0.23825,-2.323 1.0976545,1.1394213 0 0 1 -0.0764,0.14131 c -1.1232,-5.17598 -4.9352,-13.39923 -4.9352,-13.39923 0,0 -0.17018,-5.17595 1.20827,-7.25165 1.37842,-2.07572 -0.17869,-28.15874 -0.17869,-28.15874 0,0 0.51904,-12.6043 -1.02958,-18.47804 -1.54863,-5.87378 1.88898,-12.78981 1.88898,-12.78981 0,0 0,-0.13248 0,-0.37097 v -0.0879 l -0.19572,-1.98737 a 0.49351911,0.51229796 0 0 0 0,0.12365 c -0.34885,-3.33876 -1.00404,-9.38917 -1.48905,-12.18032 -0.68922,-3.97471 0.17869,-22.96507 0.17869,-22.96507 l 3.08875,-8.12612 5.50528,13.99989 5.84567,18.65469 c 0,0 2.89301,3.93939 2.96109,7.94945 0,0.19432 0,0.38865 0,0.58296 a 9.8193268,10.192964 0 0 0 -0.0686,1.24542 10.687239,11.093901 0 0 0 1.77839,6.65105 c 0,0 1.54862,8.83271 3.95662,11.04972 2.40805,2.21703 2.40805,6.56272 2.40805,6.56272 0,0 2.91856,12.78978 4.25447,15.01563 1.15722,1.8902 1.21682,7.06618 1.20828,8.68257 v 0 c 0,0.29149 0,0.4593 0,0.4593 0,0 0.40842,4.57534 0.39143,8.40875 0,0.47698 0,0.93629 0,1.36908 a 0.36588489,0.37980711 0 0 0 0,-0.0972 12.814477,13.302081 0 0 1 -0.35739,3.10912 l -0.0509,0.17667 c 0,-0.22082 0,-0.43282 0.0596,-0.64481 a 31.270394,32.460259 0 0 0 -0.85091,7.94946 c -0.0764,4.59302 0.59562,10.03398 3.27595,13.24909 4.6459,5.52927 7.56447,4.84034 7.56447,4.84034 0,0 -2.22936,6.90718 -4.98624,8.29391 a 1.2933607,1.3425739 0 0 0 -0.28933,0.19432 c 0,-0.14131 -0.0508,-0.27381 -0.0686,-0.40629 a 3.2419103,3.3652677 0 0 0 -0.85088,2.57916 c -0.19569,3.03845 1.65073,7.94944 3.40358,10.2371 a 5.5563446,5.7677688 0 0 0 2.32294,1.41324 3.6843758,3.8245692 0 0 1 -0.43394,0.27383 9.2407207,9.5923388 0 0 1 -0.94451,0.46811 4.9607183,5.1494781 0 0 1 -1.40399,0.37981 6.5518922,6.8011973 0 0 0 -4.86711,2.4555 c -1.70175,2.29652 -2.7909,5.43212 0.59566,8.18793 l 12.29544,4.41638 c 0,0 21.01707,2.79996 19.9109,-2.11986 z"
     fill="url(#b6a338e9-6675-4055-aeec-b883651a73ae-92)"
     id="path359"
     style="fill:url(#b6a338e9-6675-4055-aeec-b883651a73ae-92);stroke-width:0.866931" />
  <path
     d="m 639.09273,448.83574 -11.91255,-4.41638 c -3.28441,-2.75579 -2.23786,-5.89139 -0.57859,-8.19673 a 6.3646948,6.6068777 0 0 1 4.71396,-2.45551 5.649943,5.8649289 0 0 0 2.27186,-0.83911 5.4457283,5.6529432 0 0 0 1.88899,-1.76652 8.7897448,9.1242035 0 0 0 1.35296,-4.77852 c 0,0 13.06974,-3.97473 16.64352,0 a 9.6746778,10.042806 0 0 1 1.58268,2.41131 19.442955,20.182775 0 0 1 1.70173,8.73558 c 0,0 0.66374,4.31035 1.74433,9.23904 1.08069,4.92864 -19.40889,2.06684 -19.40889,2.06684 z"
     fill="#2d293d"
     id="path361"
     style="stroke-width:0.866931" />
  <path
     d="m 697.32801,442.74117 -11.91255,-4.41635 c -3.28443,-2.75582 -2.23788,-5.89145 -0.57859,-8.18797 a 6.2881147,6.5273829 0 0 1 4.70545,-2.45546 4.4161454,4.5841834 0 0 0 1.36141,-0.37981 9.0279966,9.3715198 0 0 0 0.91896,-0.46816 c 3.32699,-1.89904 3.24195,-6.56272 3.24195,-6.56272 0,0 13.06119,-3.9747 16.6435,0 a 9.4279143,9.7866588 0 0 1 1.25077,1.76657 c 2.23787,4.01888 1.9911,9.38034 1.9911,9.38034 0,0 0.66372,4.31919 1.70182,9.23903 1.03803,4.91981 -19.32382,2.08453 -19.32382,2.08453 z"
     fill="#2d293d"
     id="path363"
     style="stroke-width:0.866931" />
  <path
     d="m 653.48138,426.37411 a 9.6746778,10.042806 0 0 1 1.58263,2.41136 v 0 l -19.57055,2.35834 a 8.7897448,9.1242035 0 0 0 1.35288,-4.77851 c 0,0 13.06129,-3.96587 16.63504,0.01 z"
     opacity="0.1"
     id="path365"
     style="stroke-width:0.866931" />
  <path
     d="m 712.97598,422.05493 v 3.80691 c -3.04623,5.20247 -17.7752,4.06306 -22.05524,1.4574 a 9.0279966,9.3715198 0 0 0 0.91901,-0.46815 c 3.32699,-1.89904 3.24186,-6.56271 3.24186,-6.56271 0,0 13.06127,-3.97471 16.64351,0 a 9.4279143,9.7866588 0 0 1 1.25086,1.76655 z"
     opacity="0.1"
     id="path367"
     style="stroke-width:0.866931" />
  <path
     d="m 715.29888,405.64375 a 33.355084,34.624276 0 0 0 -2.3229,5.18477 v 13.64656 c -3.33554,5.69711 -20.63425,3.79807 -22.97422,0.68898 -2.33996,-3.10913 -4.782,-11.19992 -2.15274,-12.60429 2.62923,-1.40442 4.82454,-8.29395 4.82454,-8.29395 0,0 -2.83345,0.68898 -7.32617,-4.84034 -4.49271,-5.52927 -3.15682,-17.78908 -2.32293,-20.72154 0.83383,-2.93249 0,-12.78096 0,-12.78096 0,0 0.17018,-6.91603 -1.15726,-9.15954 -1.32738,-2.24351 -4.16083,-15.01562 -4.16083,-15.01562 0,0 0,-4.31921 -2.33146,-6.56273 -2.33149,-2.24352 -3.82907,-11.05855 -3.82907,-11.05855 a 10.916982,11.332387 0 0 1 -1.65924,-7.42833 c 0.49353,-4.31922 -2.83347,-8.98288 -2.83347,-8.98288 l -5.65844,-18.66354 -5.32661,-13.99103 -2.99516,8.11727 c 0,0 -0.8509,18.99917 -0.16166,22.96509 0.68921,3.96588 1.70182,14.51215 1.70182,14.51215 0,0 -3.32701,6.90719 -1.82944,12.78095 1.49754,5.87375 0.95298,18.49572 0.95298,18.49572 0,0 1.49757,26.0742 0.16167,28.14988 -1.33593,2.07571 -1.16574,7.26049 -1.16574,7.26049 0,0 6.80718,15.19232 4.6629,17.26801 -2.14423,2.07567 -1.49757,7.77277 -1.49757,7.77277 0,0 4.6544,0 2.66333,2.07571 -1.99107,2.07568 -3.4972,12.95759 -3.4972,12.95759 l -20.12364,2.44667 c 0,0 -1.83796,-2.41134 -4.50126,-8.83274 -2.66325,-6.42139 0.49357,-5.69708 3.17388,-6.39487 2.68027,-0.69778 0.98703,-2.41135 -2.17833,-4.48705 -3.16534,-2.07566 -1.32736,-6.73936 -1.32736,-6.73936 0,0 4.82453,-8.46171 3.15682,-9.15071 -1.66781,-0.68892 -1.82946,-12.6131 -1.82946,-12.6131 0,0 -3.327,-14.13236 -2.49308,-17.96575 0.83384,-3.83343 -2.66336,-12.94878 -2.66336,-12.94878 l -1.16572,-10.88193 a 28.845345,29.942932 0 0 1 -3.65882,-20.56255 v -16.78219 c 0,0 -4.6629,-32.46909 -5.32662,-48.8803 -0.42543,-10.51094 -0.30633,-24.85529 -0.17019,-33.80281 0.0854,-5.01701 0.17019,-8.34691 0.17019,-8.34691 l 71.8836,-7.77282 c 0,0 -0.0685,3.44475 1.30186,11.08506 0.74034,4.09838 1.889,9.40684 3.69295,16.04024 5.15639,18.99917 1.99956,33.158 1.99956,33.158 l -0.6722,24.01622 c 0,0 6.32218,16.05787 4.99476,21.58716 a 44.357161,46.044989 0 0 0 -1.34439,10.03397 c 0,0 14.14186,35.0659 12.64427,45.25888 -1.49755,10.19296 4.65441,26.25969 4.65441,26.25969 0,0 1.68476,11.39422 0.0168,14.50334 z"
     fill="#464353"
     id="path369"
     style="stroke-width:0.866931" />
  <path
     d="m 674.20069,315.65594 21.88499,-3.02962 c 0,0 -12.39756,13.13428 -21.88499,3.02962 z"
     opacity="0.05"
     id="path371"
     style="stroke-width:0.866931" />
  <path
     d="m 692.92034,290.42968 c 0,0 0.74876,8.03779 -3.99068,11.05859 0,0 8.4834,-1.37791 3.99068,-11.05859 z"
     opacity="0.1"
     id="path373"
     style="stroke-width:0.866931" />
  <path
     d="m 691.5759,264.86778 c 0,0 -18.29419,15.63392 -24.94823,14.33554 -6.65401,-1.29843 24.94823,-14.33554 24.94823,-14.33554 z"
     opacity="0.1"
     id="path375"
     style="stroke-width:0.866931" />
  <path
     d="m 647.0741,322.98713 c 0,0 -13.89511,3.27692 -14.31206,9.07118 -0.41691,5.7943 14.31206,-9.07118 14.31206,-9.07118 z"
     opacity="0.1"
     id="path377"
     style="stroke-width:0.866931" />
  <path
     d="m 650.12882,395.0268 c 0,0 -19.63017,3.79806 -14.05677,6.38606 5.57335,2.58798 14.72903,4.66371 14.72903,4.66371 0,0 6.33913,0.34443 -0.67226,-11.04977 z"
     opacity="0.05"
     id="path379"
     style="stroke-width:0.866931" />
  <g
     opacity="0.05"
     id="g403"
     transform="matrix(0.85089506,0,0,0.88327239,21.062112,-32.768504)">
    <path
       d="m 802.58,614.45 a 4.55,4.55 0 0 1 -2.11,-3.34 l -0.24,0.41 c 0,0 -2.15,5.28 1.57,7.62 0.42,0.27 0.83,0.54 1.2,0.8 0.69,-0.13 1.43,-0.23 2.14,-0.41 3.15,-0.78 1.16,-2.73 -2.56,-5.08 z"
       transform="translate(-84.46,-118.23)"
       id="path381" />
    <path
       d="m 832.3,612.88 c 0.64,-0.58 0.62,-2.08 0.23,-4 -1,1.51 -1.29,3.87 -1.31,5.66 a 4.88,4.88 0 0 1 1.08,-1.66 z"
       transform="translate(-84.46,-118.23)"
       id="path383" />
    <path
       d="m 828.75,515.59 a 26.67,26.67 0 0 0 -1.56,7.19 29,29 0 0 1 1.79,-4.94 z"
       transform="translate(-84.46,-118.23)"
       id="path385" />
    <path
       d="m 881.59,505.33 a 9.18,9.18 0 0 0 0.21,-2.14 c -0.29,1.46 -0.49,2.81 -0.64,4 0.13,-0.61 0.27,-1.19 0.43,-1.86 z"
       transform="translate(-84.46,-118.23)"
       id="path387" />
    <path
       d="m 828.2,585.12 c 0.32,-0.48 0.5,-2.1 0.58,-4.35 a 14.77,14.77 0 0 0 -1.13,5.49 5.25,5.25 0 0 1 0.55,-1.14 z"
       transform="translate(-84.46,-118.23)"
       id="path389" />
    <path
       d="m 833,622 a 77.62,77.62 0 0 0 -2.69,12 l -23.65,2.73 c 0,0 -2.16,-2.73 -5.29,-10 a 18.1,18.1 0 0 1 -0.67,-1.72 c -1.42,0.65 -2,2.12 -0.12,6.41 3.13,7.24 5.3,10 5.3,10 l 23.65,-2.74 c 0,0 1.76,-12.32 4.1,-14.67 1.2,-1.13 0.46,-1.72 -0.63,-2.01 z"
       transform="translate(-84.46,-118.23)"
       id="path391" />
    <path
       d="m 801.8,586.88 c 0,0 0.19,13.49 2.15,14.27 v 0 c 1,-2.23 1.65,-4.35 0.77,-4.7 -2,-0.78 -2.15,-14.28 -2.15,-14.28 0,0 -3.91,-16 -2.93,-20.34 0.98,-4.34 -3.13,-14.66 -3.13,-14.66 l -1.37,-12.32 a 33.9,33.9 0 0 1 -4.3,-23.28 v -19 c 0,0 -5.48,-36.76 -6.26,-55.34 -0.5,-11.9 -0.36,-28.14 -0.2,-38.27 0,-1.83 0.06,-3.45 0.09,-4.82 l -0.67,0.07 c 0,0 -0.11,3.76 -0.2,9.45 -0.16,10.13 -0.31,26.37 0.2,38.26 0.78,18.58 6.25,55.35 6.25,55.35 v 19 a 33.92,33.92 0 0 0 4.31,23.27 l 1.36,12.32 c 0,0 4.11,10.36 3.13,14.67 -0.98,4.31 2.95,20.35 2.95,20.35 z"
       transform="translate(-84.46,-118.23)"
       id="path393" />
    <path
       d="m 871.42,631.46 a 22.87,22.87 0 0 1 -3.75,-9.29 c -2.41,2.18 0.36,10.64 3,14 2.73,3.52 23.07,5.67 27,-0.79 v -3.72 c -5.33,5.23 -23.67,3.13 -26.25,-0.2 z"
       transform="translate(-84.46,-118.23)"
       id="path395" />
    <path
       d="m 901.14,609.36 a 39.51,39.51 0 0 0 -2.74,5.87 V 618 c 0.45,-1 1.08,-2.34 2,-3.92 a 12,12 0 0 0 0.86,-4.85 c 0,0 -0.09,0.09 -0.12,0.13 z"
       transform="translate(-84.46,-118.23)"
       id="path397" />
    <path
       d="m 872.62,612.45 a 38.66,38.66 0 0 0 1.93,-4.65 c 0,0 -3.33,0.78 -8.61,-5.48 -3.84,-4.55 -4.06,-13.15 -3.51,-18.77 -1,3.33 -2.55,17.21 2.73,23.47 3.45,4.09 6.06,5.17 7.46,5.43 z"
       transform="translate(-84.46,-118.23)"
       id="path399" />
    <path
       d="m 862.42,569.08 a 104.22,104.22 0 0 1 0.39,11.59 15.82,15.82 0 0 1 0.4,-1.81 c 1,-3.33 0,-14.47 0,-14.47 0,0 0.2,-7.83 -1.37,-10.37 C 860.27,551.48 857,537 857,537 c 0,0 0,-4.89 -2.74,-7.43 -2.74,-2.54 -4.5,-12.52 -4.5,-12.52 a 12.87,12.87 0 0 1 -2,-8.41 c 0.59,-4.89 -3.32,-10.17 -3.32,-10.17 l -6.65,-21.12 -6.26,-15.84 -3.53,9.2 c 0,0 0,1.16 -0.12,3 l 2.86,-7.47 6.26,15.81 6.65,21.12 c 0,0 3.91,5.28 3.32,10.17 a 12.87,12.87 0 0 0 2,8.41 c 0,0 1.76,10 4.5,12.52 2.74,2.52 2.73,7.43 2.73,7.43 0,0 3.33,14.47 4.89,17 1.56,2.53 1.33,10.38 1.33,10.38 z"
       transform="translate(-84.46,-118.23)"
       id="path401" />
  </g>
  <path
     d="m 696.99613,47.653445 -1.2508,6.306569 0.0764,2.808804 0.0506,2.066857 -6.94326,0.74195 -0.77435,-1.492734 v 0 c -1.43801,-2.702813 -4.42465,-8.196765 -5.38617,-9.044708 -1.28481,-1.112922 -3.57377,-18.654711 -0.85088,-17.612448 a 7.2581349,7.5343136 0 0 1 3.86305,3.630246 c 0,0 13.67391,1.625223 11.21483,12.595464 z"
     fill="#ffcdd3"
     id="path405"
     style="stroke-width:0.866931" />
  <path
     d="m 695.87294,58.835675 -6.94328,0.74195 -0.77434,-1.492734 v 0 a 6.1179354,6.3507283 0 0 1 7.65808,-1.307238 z"
     opacity="0.1"
     id="path407"
     style="stroke-width:0.866931" />
  <path
     d="m 697.62578,62.253938 -9.15561,2.199353 -0.19569,-1.41324 -0.51904,-3.806905 c 0,0 3.62478,-5.016983 8.86628,-1.254248 l 0.45951,1.934368 z"
     fill="#73ff63"
     id="path409"
     style="stroke-width:0.866931" />
  <path
     d="m 549.31477,48.3424 -9.77679,5.440957 -0.85087,-1.907866 c -0.92749,-2.022694 -2.31446,-5.069987 -2.69732,-6.18291 -0.57863,-1.678216 -4.65444,-3.798067 -4.65444,-3.798067 -10.2107,-10.1488 1.95707,-18.875532 1.95707,-18.875532 6.44978,-13.4699018 13.61432,4.575354 13.61432,4.575354 0,0 1.00405,9.512841 0.29785,10.148794 -0.70629,0.635956 -0.70629,3.24161 -0.70629,3.24161 a 38.409401,39.870913 0 0 1 2.35703,5.803101 c 0.29779,0.962765 0.45944,1.554559 0.45944,1.554559 z"
     fill="#ffcdd3"
     id="path411"
     style="stroke-width:0.866931" />
  <path
     d="m 549.31477,48.3424 -9.77679,5.440957 -0.85087,-1.907866 c 1.37847,-1.201251 6.27108,-5.299635 7.87926,-5.131818 a 11.776387,12.224489 0 0 0 2.31446,0.06181 c 0.27229,0.945104 0.43394,1.536897 0.43394,1.536897 z"
     opacity="0.1"
     id="path413"
     style="stroke-width:0.866931" />
  <path
     d="m 550.31032,51.407356 -10.98505,5.617611 -0.22121,-2.446663 -0.1532,-1.695883 c 0,0 6.36474,-5.661777 8.24519,-5.440961 a 9.9980134,10.378451 0 0 0 2.86751,0 l 0.12768,2.049194 z"
     fill="#73ff63"
     id="path415"
     style="stroke-width:0.866931" />
  <path
     d="m 670.3716,89.547071 c 0,0 -47.88835,5.608764 -38.93694,2.587988 6.22857,-2.111032 8.70465,-6.182926 9.22369,-10.775939 0.42549,-3.824571 -0.5275,-7.94945 -1.77836,-11.482537 a 48.228734,50.063879 0 0 0 -4.25448,-8.982886 c 0,0 36.58853,-20.898222 29.27934,-1.899033 a 29.50904,30.631884 0 0 0 -2.07623,9.000546 24.497271,25.42941 0 0 0 0.94454,9.115367 26.148009,27.142959 0 0 0 7.59844,12.436494 z"
     fill="#ffcdd3"
     id="path417"
     style="stroke-width:0.866931" />
  <path
     d="m 663.87932,58.968167 a 29.50904,30.631884 0 0 0 -2.07621,9.000548 c -3.44614,3.011954 -7.22407,2.808805 -12.08272,2.808805 -3.72688,0 -7.86228,0.936269 -10.8404,-0.927438 a 48.228734,50.063879 0 0 0 -4.25448,-8.982881 c 0,0 36.57998,-20.898224 29.25381,-1.899034 z"
     opacity="0.1"
     id="path419"
     style="stroke-width:0.866931" />
  <ellipse
     cx="649.07404"
     cy="51.548691"
     fill="#ffcdd3"
     id="circle421"
     rx="19.800329"
     ry="20.553747"
     style="stroke-width:0.866931" />
  <path
     d="m 670.3716,89.547071 c 0,0 -47.88835,5.608764 -38.93694,2.587988 6.22857,-2.111032 8.70465,-6.182926 9.22369,-10.775939 2.38255,-2.649816 7.17305,-4.619512 10.2108,-5.644107 a 14.329071,14.874306 0 0 1 8.67912,-0.150156 12.337977,12.807449 0 0 1 3.15682,1.519226 26.148009,27.142959 0 0 0 7.66651,12.462988 z"
     opacity="0.1"
     id="path423"
     style="stroke-width:0.866931" />
  <path
     d="m 697.62578,62.253938 -9.15561,2.199353 -0.19569,-1.41324 a 8.100521,8.4087531 0 0 1 8.80675,-3.126785 z"
     opacity="0.1"
     id="path425"
     style="stroke-width:0.866931" />
  <path
     d="m 550.31032,51.407356 -10.98505,5.617611 -0.22121,-2.446663 a 80.120279,83.168927 0 0 1 11.06161,-5.096483 z"
     opacity="0.1"
     id="path427"
     style="stroke-width:0.866931" />
  <path
     d="m 689.31252,214.80391 c -18.558,3.0738 -44.93573,6.99552 -49.12213,5.67059 -3.48019,-1.09521 -14.5758,-0.98043 -24.23352,-0.63593 0.0854,-5.01698 0.17019,-8.34693 0.17019,-8.34693 l 71.8836,-7.77278 c 0,0 -0.0685,3.44476 1.30186,11.08505 z"
     opacity="0.1"
     id="path429"
     style="stroke-width:0.866931" />
  <path
     d="m 707.811,210.28157 c 0,0 -61.06872,10.88192 -67.62061,8.8327 -6.55189,-2.04919 -40.2048,0.16784 -40.2048,0.16784 -15.14594,10.53746 -8.82375,-5.00815 -8.82375,-5.00815 0,0 -1.32744,-8.11725 0.50198,-14.67997 a 86.399888,89.687476 0 0 0 2.51016,-14.69767 c 0,0 -0.33182,-10.3696 1.49755,-12.78977 1.82945,-2.42017 3.99925,-19.68813 3.99925,-19.68813 0,0 1.65921,-11.74753 1.49753,-14.33553 -0.16163,-2.58797 0.49357,-9.8485 0.49357,-9.8485 l 2.16974,-12.092 C 591.34898,114.42002 553.40759,90.236031 553.40759,90.236031 551.57815,82.118733 537.43627,63.119546 537.43627,63.119546 a 19.255753,19.988454 0 0 0 -1.16571,-4.663678 c -0.99556,-2.764642 13.98021,-8.293926 13.98021,-8.293926 0,0 11.1467,14.132358 13.47816,17.965759 2.33145,3.8334 10.31289,10.881914 10.31289,10.881914 a 8.0239407,8.3292588 0 0 1 3.65882,0.494636 l 0.19569,0.06181 v 0 a 29.662202,30.790873 0 0 1 7.44532,4.416357 14.465213,15.015632 0 0 1 10.15122,3.974756 c 0,0 6.80713,-1.042271 7.98993,0.167804 1.1827,1.210085 6.98581,0 6.98581,0 0,0 5.82011,-12.780964 9.64917,-9.071216 3.82899,3.709741 20.07261,3.533088 20.07261,3.533088 2.16127,-2.985462 7.4283,-5.122978 10.72125,-6.182908 a 14.388638,14.936134 0 0 1 8.67915,-0.150155 11.010579,11.429545 0 0 1 3.40355,1.766543 l 9.87891,10.016332 c 0,0 2.82497,-3.806925 2.49316,-4.663702 -0.33189,-0.856775 3.327,-1.554559 3.327,-1.554559 0,0 4.82453,-1.554559 6.65398,-2.075689 1.82944,-0.52113 3.50571,1.536889 3.65882,1.722381 -0.0596,-0.22082 -1.31038,-4.41636 -0.85089,-7.596143 0.45953,-3.179776 -1.99962,-6.182901 -1.99962,-6.182901 5.82019,-14.856645 18.9665,-2.420168 18.9665,-2.420168 0,0 1.49756,8.117268 0.17019,11.226386 -1.32745,3.109121 1.32737,9.671842 0.99554,11.403074 -0.33189,1.731206 0.67218,4.663675 0.67218,7.949451 0,3.28577 -1.70176,9.495168 -2.66327,12.259838 -0.9615,2.76462 -8.98547,8.98288 -8.98547,8.98288 0,0 -0.50205,9.84847 -3.99923,15.54561 -3.49717,5.69711 -1.30186,25.18209 -1.30186,25.18209 0,0 3.327,15.20109 7.48791,20.04143 4.16087,4.84032 10.31281,32.42493 10.31281,32.42493 z"
     fill="#3f3d56"
     id="path431"
     style="fill:#f4d7d7;stroke-width:0.866931" />
  <path
     d="m 618.79037,96.622082 c 0,0 -1.82941,-5.697112 -3.4972,-6.182895 a 38.494491,39.95924 0 0 1 -4.82456,-2.243519 l 1.07215,-2.128703 c 0,0 6.24557,1.766546 7.24961,3.683256 1.00403,1.916695 0,6.871861 0,6.871861 z"
     opacity="0.1"
     id="path433"
     style="stroke-width:0.866931" />
  <path
     d="m 585.34165,84.017771 c -0.33182,1.766556 -15.14587,3.276949 -15.14587,3.276949 l 7.48785,-7.790469 v 0 l 0.18718,0.07064 v 0 a 29.662202,30.790873 0 0 1 7.47084,4.442863 z"
     opacity="0.1"
     id="path435"
     style="stroke-width:0.866931" />
  <ellipse
     cx="542.49091"
     cy="60.310734"
     fill="#575988"
     id="circle437"
     rx="1.3273963"
     ry="1.3779048"
     style="stroke-width:0.866931" />
  <ellipse
     cx="544.19208"
     cy="63.075386"
     fill="#575988"
     id="circle439"
     rx="1.3273963"
     ry="1.3779048"
     style="stroke-width:0.866931" />
  <ellipse
     cx="545.86023"
     cy="65.628044"
     fill="#575988"
     id="circle441"
     rx="1.3273963"
     ry="1.3779048"
     style="stroke-width:0.866931" />
  <ellipse
     cx="547.60431"
     cy="68.383827"
     fill="#575988"
     id="circle443"
     rx="1.3273963"
     ry="1.3779048"
     style="stroke-width:0.866931" />
  <ellipse
     cx="704.45837"
     cy="68.233673"
     fill="#575988"
     id="circle445"
     rx="1.0806366"
     ry="1.1217557"
     style="stroke-width:0.866931" />
  <ellipse
     cx="704.62854"
     cy="70.786346"
     fill="#575988"
     id="circle447"
     rx="1.0806366"
     ry="1.1217557"
     style="stroke-width:0.866931" />
  <ellipse
     cx="704.77362"
     cy="73.330177"
     fill="#575988"
     id="circle449"
     rx="1.0806366"
     ry="1.1217557"
     style="stroke-width:0.866931" />
  <path
     d="m 618.84995,143.43555 c -0.16169,-0.20317 37.35426,48.96859 66.47193,20.55371 0.0259,0.01 -45.98236,6.48321 -66.47193,-20.55371 z"
     opacity="0.1"
     id="path451"
     style="stroke-width:0.866931" />
  <path
     d="m 597.32228,168.99743 c 0,0 22.44661,0.63594 24.79512,7.33997 v 6.97786 a 4.3055287,4.4693581 0 0 1 -4.17795,0 c -2.26338,-1.27191 -15.83512,-8.4264 -20.61717,-4.98166 z"
     opacity="0.1"
     id="path453"
     style="stroke-width:0.866931" />
  <path
     d="m 597.73922,168.99743 c 0,0 21.46807,0.60946 23.71446,7.00433 v 6.64221 a 4.1183322,4.2750381 0 0 1 -3.99923,0 c -2.16128,-1.20124 -15.13736,-8.02893 -19.71523,-4.74317 z"
     fill="#3f3d56"
     id="path455"
     style="stroke-width:0.866931" />
  <path
     d="m 609.57515,118.40358 a 72.223974,74.972161 0 0 0 8.70467,15.50144 58.592632,60.822138 0 0 0 13.61438,13.66422 c 0,0 -21.94464,-25.96823 -22.31905,-29.16566 z"
     opacity="0.1"
     id="path457"
     style="stroke-width:0.866931" />
  <path
     d="m 602.23193,91.331276 c 0,0 3.74395,16.782174 13.39313,22.479264 z"
     opacity="0.1"
     id="path459"
     style="stroke-width:0.866931" />
  <path
     d="m 596.4884,93.027144 c -0.0936,-0.309132 -3.327,13.249096 12.4401,20.783396 0,0 -6.69657,-2.35832 -12.4401,-20.783396 z"
     opacity="0.1"
     id="path461"
     style="stroke-width:0.866931" />
  <path
     d="m 694.503,81.774258 c -0.24677,0 7.77718,5.299646 9.96403,7.772813 0,0 -5.22453,-8.12612 -9.96403,-7.772813 z"
     opacity="0.1"
     id="path463"
     style="stroke-width:0.866931" />
  <path
     d="m 643.7216,70.176897 a 3.1227847,3.2416097 0 0 0 3.40359,3.206273 c 6.03283,0.388642 12.32098,0.662451 17.86877,-1.766546 a 6.8071606,7.0661793 0 0 0 2.72291,-1.872535 c 0.98701,-1.263076 1.1827,-2.976628 1.58266,-4.548851 0.78282,-3.073791 2.45053,-5.8031 3.6503,-8.726735 a 28.164626,29.236315 0 0 0 1.96559,-15.67808 10.210737,10.59927 0 0 0 -1.51461,-4.584188 c -1.59964,-2.375998 -4.51821,-3.338768 -6.63699,-5.228965 -2.11873,-1.890208 -3.48014,-4.778508 -5.95626,-6.182912 -2.22935,-1.28958 -4.96068,-1.130588 -7.47082,-0.688952 a 39.217755,40.71002 0 0 0 -13.93769,5.432124 c -1.438,0.883272 -3.01214,1.969698 -4.66289,1.642889 -1.44654,-0.282649 -2.50162,-1.545728 -3.4036,-2.729313 a 18.430389,19.131679 0 0 0 -1.42101,8.965213 3.7099024,3.8510675 0 0 1 -0.0427,1.35141 3.9141173,4.0630524 0 0 1 -0.92748,1.422063 c -1.4891,1.766549 -2.41658,4.637181 -0.94453,6.456725 0.63822,0.786111 1.62523,1.218915 2.24639,2.022694 1.11463,1.439734 0.74025,3.533089 0.71473,5.370295 a 2.6633013,2.7646423 0 0 0 0.44246,1.819542 2.5526854,2.6498168 0 0 0 2.44209,0.609455 6.6454903,6.8983572 0 0 1 2.60372,-0.25615 4.3650918,4.531187 0 0 1 2.26337,1.766545 c 2.74841,3.71858 3.83754,7.763968 5.01179,12.197999 z"
     fill="#2d293d"
     id="path465"
     style="stroke-width:0.866931" />
  <g
     opacity="0.1"
     id="g471"
     transform="matrix(0.85089506,0,0,0.88327239,21.062112,-32.768504)">
    <path
       d="m 845.26,232.52 a 8,8 0 0 1 -3.2,2.12 c -6.56,2.73 -13.94,2.42 -21,2 a 4.92,4.92 0 0 1 -2.19,-0.49 c -1.08,-0.63 -1.49,-1.95 -1.82,-3.15 -1.38,-5 -2.65,-9.59 -5.93,-13.76 a 5.14,5.14 0 0 0 -2.66,-2.05 8.2,8.2 0 0 0 -3.06,0.29 3,3 0 0 1 -2.87,-0.68 3.13,3.13 0 0 1 -0.52,-2.06 c 0,-2.1 0.47,-4.45 -0.84,-6.08 -0.73,-0.91 -1.89,-1.4 -2.64,-2.3 a 4.56,4.56 0 0 1 -0.45,-4.66 c -1.25,2 -1.78,4.51 -0.33,6.23 0.75,0.89 1.91,1.38 2.64,2.29 1.31,1.64 0.87,4 0.84,6.08 a 3.11,3.11 0 0 0 0.51,2.06 3,3 0 0 0 2.88,0.69 7.81,7.81 0 0 1 3.06,-0.29 5.13,5.13 0 0 1 2.66,2 c 3.27,4.17 4.55,8.75 5.93,13.77 a 5,5 0 0 0 1.73,3.17 4.85,4.85 0 0 0 2.2,0.48 c 7.09,0.44 14.48,0.76 21,-2 a 7.92,7.92 0 0 0 3.2,-2.12 6.11,6.11 0 0 0 1,-1.88 c 0.01,0.13 -0.06,0.24 -0.14,0.34 z"
       transform="translate(-84.46,-118.23)"
       id="path467" />
    <path
       d="m 800,198.61 a 3.42,3.42 0 0 0 0.71,-1.18 4.36,4.36 0 0 0 0,-1.53 21.69,21.69 0 0 1 1.09,-8.42 l -0.13,-0.15 a 21.5,21.5 0 0 0 -1.67,10.14 7.23,7.23 0 0 1 0,1.14 z"
       transform="translate(-84.46,-118.23)"
       id="path469" />
  </g>
  <path
     d="m 640.19039,82.631032 c 0,0 24.73551,3.409442 26.95633,-0.450469"
     opacity="0.1"
     id="path473"
     style="stroke-width:0.866931" />
  <path
     d="m 688.27448,72.005267 c 0,0 13.75046,0 16.77114,5.370299"
     opacity="0.1"
     id="path475"
     style="stroke-width:0.866931" />
  <path
     d="m 765.20389,549.10486 a 21.808437,22.638273 0 0 1 -14.84815,5.75894 c -1.39546,0 -3.32701,0.27382 -3.33547,1.72238 a 2.3399618,2.4289989 0 0 0 0.40843,1.18359 13.656865,14.176523 0 0 0 7.65804,6.24472 c 2.97815,0.93626 6.16048,0.77728 9.26625,0.60947 l 9.06201,-0.48577 c 1.70183,-0.0972 3.40359,-0.18552 5.1054,-0.40634 1.70177,-0.22083 3.55673,-0.58296 5.33508,-0.88327 a 69.773396,72.428338 0 0 1 13.19741,-0.63595 c 1.1742,0.0437 2.55266,0 3.25043,-0.88329 0.69771,-0.88325 0.34035,-2.5703 0.0764,-3.8952 -0.54458,-2.72933 0,-5.59112 -0.50205,-8.32928 -0.85089,-4.80499 -4.85858,-8.48824 -9.24919,-10.22828 -4.0843,-1.60754 -11.31693,-3.45359 -15.18001,-0.76847 -4.07577,2.81766 -6.56888,7.52553 -10.24475,10.99675 z"
     fill="#3f3d56"
     id="path477"
     style="stroke-width:0.866931" />
  <path
     d="m 774.20632,388.11962 c 0.79986,3.94824 4.48426,6.96903 4.58637,10.99675 0.0936,3.23276 -2.12724,5.94439 -3.72696,8.70904 a 55.971877,58.10166 0 0 0 -3.80349,8.93871 131.53988,136.54506 0 0 1 -11.16372,23.0534 c -2.12723,3.53311 -4.50974,7.30467 -4.02471,11.4119 a 16.473325,17.100157 0 0 0 1.93151,5.45863 l 6.38171,13.16077 a 36.716123,38.113202 0 0 1 3.25893,8.3116 c 0.55305,2.49966 0.60413,5.08765 0.92747,7.63145 1.00404,8.07312 4.6544,16.19925 2.49313,24.02505 -0.18723,0.67129 -0.85089,1.48388 -1.36993,1.01577 2.11018,4.08953 3.80349,8.20559 3.64183,12.84277 -0.0855,2.42899 -0.79986,4.96401 0.0595,7.22518 0.36586,0.94509 1.00406,1.82839 0.99555,2.84413 0,0.67129 -0.29783,1.29841 -0.3659,1.95202 -0.17867,1.8637 1.47207,3.41828 3.18237,4.01005 1.71028,0.59178 3.57375,0.54766 5.30103,1.08645 3.31852,1.03341 5.69251,4.00123 8.50895,6.05927 a 18.115559,18.804871 0 0 0 9.80235,3.31223 2.467596,2.5614899 0 0 0 1.44651,-0.30031 2.3399618,2.4289989 0 0 0 0.79983,-1.81954 9.7342375,10.104636 0 0 0 -3.50569,-8.77973 3.8290279,3.9747256 0 0 1 -1.30188,-1.41322 3.284455,3.4094314 0 0 1 -0.11907,-1.58106 114.68366,119.04747 0 0 0 -0.37442,-21.7285 31.789441,32.999057 0 0 1 -0.33187,-6.91603 c 0.17868,-1.92551 0.74032,-3.83341 0.53609,-5.75014 -0.20422,-1.91664 -1.14873,-3.66555 -1.70183,-5.51161 -0.98702,-3.28575 -0.71474,-6.81884 -0.85088,-10.2548 -0.17018,-5.97091 -1.48905,-11.83582 -2.79942,-17.66545 -0.51904,-2.28767 -1.08916,-4.68136 -2.64628,-6.37722 -1.3274,-1.43974 -3.47167,-2.81764 -2.96965,-4.73436 a 5.4031836,5.60878 0 0 1 1.2168,-1.88137 7.2751527,7.551979 0 0 0 1.51461,-5.75893 2.4931224,2.5879878 0 0 0 2.86748,-1.39558 c 10.36391,-5.07882 18.71972,-15.23644 22.44662,-26.49816 a 8.4238611,8.7443968 0 0 1 1.00408,-2.36719 c 0.96151,-1.39554 2.62923,-1.99617 4.1098,-2.76463 4.6459,-2.42898 7.85375,-6.97787 10.79786,-11.42951 1.7018,-2.57918 3.40357,-5.24664 4.16941,-8.28513 a 26.156513,27.151792 0 0 0 0.57006,-5.97971 l 0.2638,-10.37849 a 5.4031836,5.60878 0 0 0 -0.18721,-2.03149 4.8926464,5.0788166 0 0 0 -1.08062,-1.64293 19.221719,19.953126 0 0 0 -10.60217,-5.93558 c -2.72284,-0.50345 -5.50528,-0.40632 -8.2622,-0.6448 -5.3436,-0.45927 -10.61914,-2.18168 -15.96279,-1.76653 -8.39833,0.64478 -15.8777,6.68635 -19.83434,14.40616 -1.38696,2.72049 -2.85051,5.08768 -5.82867,5.14066 z"
     fill="#464353"
     id="path479"
     style="stroke-width:0.866931" />
  <path
     d="m 727.57729,320.63759 a 11.172251,11.597367 0 0 1 -0.61265,4.72553 c -0.65519,1.44857 -2.29741,2.57915 -3.73541,1.98737 0.43393,-1.01576 -0.71473,-2.17286 -1.78689,-2.0492 a 3.3440176,3.4712605 0 0 0 -2.35694,2.10218 7.5304211,7.8169605 0 0 0 -0.68075,4.79617 c 0.34038,2.03155 1.47206,3.98354 1.17421,6.02391 -0.23824,1.6959 -1.438,3.38294 -0.7998,4.95517 a 7.7346361,8.028946 0 0 0 1.54013,1.91671 5.207478,5.4056273 0 0 1 -0.5531,7.41949 l 16.09895,0.33562 c -0.58712,2.79114 0.62114,5.64411 1.99956,8.12609 a 49.351911,51.229796 0 0 0 36.79272,24.93483 3.1993655,3.3211042 0 0 0 -0.77429,5.07878 c 1.31036,1.35141 3.53121,1.18361 5.17342,0.30917 1.64221,-0.87446 2.92709,-2.32304 4.42465,-3.44478 a 13.614318,14.132358 0 0 1 9.09608,-2.5438 c 2.01661,0.20312 3.97366,0.88325 5.99879,0.98924 5.95628,0.32683 11.06167,-4.12488 16.79669,-5.94441 4.1779,-1.33376 8.91738,-1.33376 12.42306,-4.0454 1.51459,-1.16592 2.75689,-3.08262 2.31443,-4.97284 a 8.0069224,8.3115934 0 0 0 -1.70177,-2.92362 c -2.01663,-2.71163 -3.2079,-5.97091 -4.65441,-9.05353 a 52.168375,54.153434 0 0 0 -11.63175,-16.18155 104.07297,108.03306 0 0 0 -11.53812,-9.08005 19.672696,20.421261 0 0 0 -3.11429,-1.95204 c -1.41247,-0.64479 -2.97814,-0.95392 -4.25449,-1.76654 -1.88897,-1.23657 -2.97812,-3.41825 -4.43314,-5.17597 -3.19085,-3.86873 -8.09203,-5.64411 -12.02314,-8.68258 -2.63775,-2.04036 -4.96921,-4.72551 -8.11754,-5.70593 -1.53164,-0.4858 -3.15682,-0.52112 -4.68846,-0.99809 -3.48013,-1.09523 -6.0158,-4.30153 -9.42788,-5.59996 -2.69735,-1.02458 -5.67551,-0.75961 -8.50895,-1.12174 a 19.919454,20.67741 0 0 1 -8.89187,-3.51541 10.551097,10.952579 0 0 0 -2.83347,-1.71357 c -4.31406,-1.36023 -4.66291,6.97786 -5.10541,9.86615 -0.57007,4.29271 -1.60817,8.55892 -1.60817,12.9046 z"
     fill="#73ff63"
     id="path481"
     style="stroke-width:0.866931" />
  <path
     d="m 729.23656,355.28837 c 0.69238,7.63149 -4.97716,15.02291 -3.32357,22.49714 0.35027,1.58918 1.02642,3.10388 1.27079,4.71795 0.69239,4.42824 -1.91434,8.6247 -4.39878,12.33279 l -21.34233,31.82539 a 19.696845,20.013991 0 0 1 -3.04658,3.82404 c -4.07296,3.68329 -10.19873,3.3108 -15.55873,4.40342 a 26.881552,27.314376 0 0 0 -10.42679,4.68482 0.67611174,0.68699796 0 0 0 -0.13033,0.95186 8.9605185,9.1047922 0 0 0 7.74677,3.69984 c 0.56206,0.74495 0,1.85408 -0.77389,2.3921 -1.14036,0.8277 -2.72067,1.01805 -2.94879,2.99628 a 3.2583697,3.3108334 0 0 0 0.39098,1.98649 6.0850055,6.1829816 0 0 0 3.73089,2.63214 c 7.38831,2.30102 15.37135,-1.73819 20.90242,-7.2259 5.53106,-5.4877 9.49817,-12.41564 14.92331,-17.99438 3.00587,-3.09563 6.41901,-5.73599 9.51443,-8.73235 6.17466,-5.98432 10.9807,-13.24329 15.6076,-20.51884 1.39296,-2.19346 2.80222,-4.44481 3.3806,-6.9859 0.57833,-2.54102 0.30951,-5.11522 0.96936,-7.5735 0.86347,-3.2198 3.18505,-5.79396 5.11563,-8.49228 3.78786,-5.29737 6.32121,-11.7783 5.81617,-18.30892 -0.50507,-6.53062 -4.48024,-12.97019 -10.54081,-15.18846 a 9.4737119,9.6262471 0 0 0 -5.9058,-0.36418 c -2.48454,0.77804 -4.31737,2.86387 -6.01171,4.86691 l -4.07294,4.75106 a 10.907392,11.083016 0 0 0 -2.28904,3.65018 3.7552711,3.8157352 0 0 0 0.81464,4.05578"
     fill="#fbbebe"
     id="path483"
     style="stroke-width:0.821126" />
  <path
     d="m 743.08058,315.19664 c -2.92703,0.17666 -6.15192,0.47697 -8.21962,2.64983 a 11.699805,12.144996 0 0 0 -2.07617,3.37409 c -2.00813,4.24857 -3.96519,8.69141 -4.10985,13.42574 -0.11908,3.78042 0.936,7.48132 1.4891,11.21756 0.45947,3.1091 -0.70629,6.28008 -0.92748,9.42451 3.63331,-1.15708 8.43234,-2.7293 11.72531,-4.68134 2.24639,-1.33374 4.41617,-2.85295 6.86672,-3.70092 3.49717,-1.21006 9.35984,0.88328 12.68683,2.5615 0.17869,-2.42018 -1.57414,-6.64221 -1.38691,-9.0712 a 9.7597698,10.131133 0 0 1 0.51905,-3.00311 17.545458,18.213077 0 0 1 1.76131,-2.906 11.453045,11.888848 0 0 0 -1.02959,-13.9292 c -2.95261,-3.44476 -7.57294,-4.73434 -11.98058,-5.29963 a 51.819507,53.791292 0 0 0 -8.36431,-0.30031"
     fill="#73ff63"
     id="path485"
     style="stroke-width:0.866931" />
  <metadata
     id="metadata1088">
    <rdf:RDF>
      <cc:Work
         rdf:about="">
        <dc:title>wallet</dc:title>
      </cc:Work>
    </rdf:RDF>
  </metadata>
</svg>
